<?xml version="1.0" standalone="no"?>
<!DOCTYPE svg PUBLIC "-//W3C//DTD SVG 1.1//EN" "http://www.w3.org/Graphics/SVG/1.1/DTD/svg11.dtd" >
<svg>
<metadata>
Created by FontForge 20090914 at Thu Jul  2 19:04:46 2020
 By www-data
Copyright (c) 2012 by Fontfabric LLC. All rights reserved.
</metadata>
<defs>
<font id="Nexa-Black" horiz-adv-x="622" >
  <font-face 
    font-family="Nexa Black"
    font-weight="900"
    font-stretch="normal"
    units-per-em="1000"
    panose-1="2 0 0 0 0 0 0 0 0 0"
    ascent="750"
    descent="-250"
    x-height="494"
    cap-height="700"
    bbox="-184 -305 1273 990.999"
    underline-thickness="50"
    underline-position="-125"
    unicode-range="U+0020-U+FB02"
  />
<missing-glyph horiz-adv-x="665" 
d="M250 142c0 -25.333 10.333 -43.333 31 -54s41.334 -10.667 62.001 0s31 28.667 31 54c0 26.667 -10.333 45.5 -31 56.5s-41.334 11 -62.001 0s-31 -29.833 -31 -56.5zM142 443l108 -0.00292969c-0.666992 16 6 30 20 42s30.667 18 50 18c48.667 0 73.334 -19 74.001 -57
c0 -11.333 -3.16699 -20 -9.5 -26s-17.5 -12 -33.5 -18s-27.333 -11 -34 -15c-1.33301 -1.33301 -5.83301 -5.16602 -13.5 -11.499s-13.5 -12 -17.5 -17s-8.83301 -12.333 -14.5 -22s-9.66699 -21.667 -12 -36s-3.5 -30.833 -3.5 -49.5l107 -1c0 12 2.33301 28.333 7 49
c6.66699 6 18.667 13.167 36 21.5s32.666 16.333 45.999 24s25.5 20.334 36.5 38.001s16.167 38.834 15.5 63.501c0 50 -17.667 88.167 -53 114.5s-79 39.5 -131 39.5s-94.833 -13.667 -128.5 -41s-50.167 -66 -49.5 -116zM40 -0.00292969v700h563v-700h-563z" />
    <glyph glyph-name=".notdef" horiz-adv-x="665" 
d="M250 142c0 -25.333 10.333 -43.333 31 -54s41.334 -10.667 62.001 0s31 28.667 31 54c0 26.667 -10.333 45.5 -31 56.5s-41.334 11 -62.001 0s-31 -29.833 -31 -56.5zM142 443l108 -0.00292969c-0.666992 16 6 30 20 42s30.667 18 50 18c48.667 0 73.334 -19 74.001 -57
c0 -11.333 -3.16699 -20 -9.5 -26s-17.5 -12 -33.5 -18s-27.333 -11 -34 -15c-1.33301 -1.33301 -5.83301 -5.16602 -13.5 -11.499s-13.5 -12 -17.5 -17s-8.83301 -12.333 -14.5 -22s-9.66699 -21.667 -12 -36s-3.5 -30.833 -3.5 -49.5l107 -1c0 12 2.33301 28.333 7 49
c6.66699 6 18.667 13.167 36 21.5s32.666 16.333 45.999 24s25.5 20.334 36.5 38.001s16.167 38.834 15.5 63.501c0 50 -17.667 88.167 -53 114.5s-79 39.5 -131 39.5s-94.833 -13.667 -128.5 -41s-50.167 -66 -49.5 -116zM40 -0.00292969v700h563v-700h-563z" />
    <glyph glyph-name="space" unicode=" " horiz-adv-x="227" 
 />
    <glyph glyph-name="exclam" unicode="!" horiz-adv-x="321" 
d="M254 230h-187l-3 470h194zM159 -5c-33.333 0 -59.332 10.167 -77.999 30.5s-28 42.833 -28 67.5s9.33301 47.167 28 67.5s44.667 30.5 78 30.5s59.666 -10.167 78.999 -30.5s29 -42.833 29 -67.5s-9.5 -47.167 -28.5 -67.5s-45.5 -30.5 -79.5 -30.5z" />
    <glyph glyph-name="quotedbl" unicode="&#x22;" horiz-adv-x="471" 
d="M58 701h150v-273h-150v273zM263 701h150v-273h-150v273z" />
    <glyph glyph-name="numbersign" unicode="#" horiz-adv-x="739" 
d="M244 700h168l-36 -143h93l35 143h170l-36 -143h64v-141h-99l-38 -145h72v-142h-104l-31 -129h-169l31 129h-92l-32 -129h-167l31 129h-68v142h104l35 146h-74v140h109zM437 425h-93l-40 -160h93z" />
    <glyph glyph-name="dollar" unicode="$" horiz-adv-x="685" 
d="M259 -110l0.00292969 94.002c-86.667 10 -162.334 49.667 -227.001 119l109 125c54 -52.667 122.333 -79 205 -79c33.333 0 60 5.5 80 16.5s30 26.167 30 45.5c0 35.333 -39 56.666 -117 63.999c-42.667 4 -79.334 9.83301 -110.001 17.5s-60.167 19.5 -88.5 35.5
s-49.833 38.5 -64.5 67.5s-22 64.5 -22 106.5c0 56 19 101.167 57 135.5s87.333 57.166 148 68.499v91h168v-89c68.667 -10 129.334 -35.667 182.001 -77l-98 -125c-42.667 32 -97.334 48 -164.001 48c-26.667 0 -49.167 -4.33301 -67.5 -13s-27.5 -21.667 -27.5 -39
c0 -22 9 -36.833 27 -44.5s47.667 -13.5 89 -17.5c38 -4 72.667 -10.833 104 -20.5s61.166 -23.167 89.499 -40.5s50.5 -40.5 66.5 -69.5s24 -62.833 24 -101.5c0 -62 -21 -111.5 -63 -148.5s-96.333 -61.167 -163 -72.5h1v-97h-168z" />
    <glyph glyph-name="percent" unicode="%" horiz-adv-x="900" 
d="M211 710c58 0 102.333 -16.5 133 -49.5s46 -72.5 46 -118.5c0 -46.667 -15.333 -86.167 -46 -118.5s-75 -48.5 -133 -48.5s-102.167 16.167 -132.5 48.5s-45.5 71.833 -45.5 118.5c0 46 15.167 85.5 45.5 118.5s74.5 49.5 132.5 49.5zM588 699h180l-458 -699h-183z
M211 498c15.333 0 27 4.33301 35 13s12 19 12 31s-4 22.333 -12 31s-19.667 13 -35 13s-27 -4.33301 -35 -13s-12 -19 -12 -31s4 -22.333 12 -31s19.667 -13 35 -13zM688 327c58 0 102.333 -16.5 133 -49.5s46 -72.5 46 -118.5c0 -46.667 -15.333 -86.167 -46 -118.5
s-75 -48.5 -133 -48.5s-102.167 16.167 -132.5 48.5s-45.5 71.833 -45.5 118.5c0 46 15.167 85.5 45.5 118.5s74.5 49.5 132.5 49.5zM688 115c15.333 0 27 4.33301 35 13s12 19 12 31s-4 22.333 -12 31s-19.667 13 -35 13s-27 -4.33301 -35 -13s-12 -19 -12 -31
s4 -22.333 12 -31s19.667 -13 35 -13z" />
    <glyph glyph-name="ampersand" unicode="&#x26;" horiz-adv-x="743" 
d="M236 215c0 -22.667 9.33301 -39.501 28 -50.501s41.667 -16.5 69 -16.5c30.667 0 57.167 7.83301 79.5 23.5s33.5 36.834 33.5 63.501v47h-107c-68.667 0 -103 -22.333 -103 -67zM627 497.999l-179.998 0.00195312c-0.666992 29.333 -16 49.666 -46 60.999
s-60 11.166 -90 -0.500977s-45 -31.167 -45 -58.5c0 -24 8.66699 -42.5 26 -55.5s36.666 -19.5 57.999 -19.5h345v-140h-71v-54c0 -20 6.66699 -35.833 20 -47.5s31.666 -15.5 54.999 -11.5v-173c-90 -17.333 -148.333 7.66699 -175 75c-53.333 -56.667 -125 -85 -215 -85
c-36 0 -69 3.5 -99 10.5s-58.167 18.167 -84.5 33.5s-47 37.5 -62 66.5s-22.5 63.833 -22.5 104.5c0 27.333 9.33301 55.333 28 84s43 51.667 73 69c-26 13.333 -45.333 33.666 -58 60.999s-19 53.333 -19 78c0 40 9.16699 74.833 27.5 104.5s42.5 52.334 72.5 68.001
s60.833 27 92.5 34s64.5 10.5 98.5 10.5c78.667 0 143.5 -17.167 194.5 -51.5s76.5 -88.833 76.5 -163.5z" />
    <glyph glyph-name="quotesingle" unicode="'" horiz-adv-x="266" 
d="M58 701h150v-273h-150v273z" />
    <glyph glyph-name="parenleft" unicode="(" horiz-adv-x="374" 
d="M284 797l83.999 -97.999c-53.333 -44 -95.666 -99.5 -126.999 -166.5s-47 -138.5 -47 -214.5c0 -71.333 14.833 -141.333 44.5 -210s69.5 -123.667 119.5 -165l-79 -106c-82.667 55.333 -145.167 124.166 -187.5 206.499s-63.5 173.833 -63.5 274.5
c0 96 23.167 186.167 69.5 270.5s108.5 153.833 186.5 208.5z" />
    <glyph glyph-name="parenright" unicode=")" horiz-adv-x="374" 
d="M6 699l83.999 97.999c78 -54.667 140.167 -124.167 186.5 -208.5s69.5 -174.5 69.5 -270.5c0 -100.667 -21.167 -192.167 -63.5 -274.5s-104.833 -151.166 -187.5 -206.499l-79 106c50 41.333 89.833 96.333 119.5 165s44.5 138.667 44.5 210
c0 76 -15.667 147.5 -47 214.5s-73.666 122.5 -126.999 166.5z" />
    <glyph glyph-name="asterisk" unicode="*" horiz-adv-x="433" 
d="M369 463l-106 -79l-46 78l-45 -79l-109 69l62 66l-88 18l37 118l85 -34l-7 86h133l-14 -87l91 38l34 -121l-87 -16z" />
    <glyph glyph-name="plus" unicode="+" horiz-adv-x="518" 
d="M40 400h136v132h165v-132h137v-153h-137v-133h-165v133h-136v153z" />
    <glyph glyph-name="comma" unicode="," horiz-adv-x="275" 
d="M230 61c0 -33.333 -19.333 -89.666 -58 -168.999h-96l21 103c-35.333 6.66699 -53 29 -53 67c0 25.333 9.5 45.166 28.5 59.499s41.833 21.5 68.5 21.5c24.667 0 45.667 -7.16699 63 -21.5s26 -34.5 26 -60.5z" />
    <glyph glyph-name="hyphen" unicode="-" horiz-adv-x="510" 
d="M54 217v146h402v-146h-402z" />
    <glyph glyph-name="period" unicode="." horiz-adv-x="283" 
d="M141 -8c-30.667 0 -55 9.5 -73 28.5s-27 39.667 -27 62s8.83301 43 26.5 62s42.167 28.5 73.5 28.5c25.333 0 46.666 -6.16699 63.999 -18.5s28 -27.333 32 -45s4 -35.5 0 -53.5s-14.667 -33.167 -32 -45.5s-38.666 -18.5 -63.999 -18.5z" />
    <glyph glyph-name="slash" unicode="/" horiz-adv-x="532" 
d="M336 752h173l-314 -829h-171z" />
    <glyph glyph-name="zero" unicode="0" horiz-adv-x="728" 
d="M241 392l-0.000976562 -94.999c0 -51.333 11.333 -89.833 34 -115.5s52.334 -38.5 89.001 -38.5c37.333 0 67.333 12.833 90 38.5s34 64.167 34 115.5v95c0 49.333 -11.167 86.666 -33.5 111.999s-51.833 38 -88.5 38s-66.667 -12.5 -90 -37.5s-35 -62.5 -35 -112.5z
M46.999 297.001l0.00195312 96c0 107.333 29.833 186.833 89.5 238.5s136.167 77.5 229.5 77.5s169.166 -26.5 227.499 -79.5s87.5 -131.833 87.5 -236.5v-95c0 -106 -29.5 -185.333 -88.5 -238s-133.833 -79 -224.5 -79c-43.333 0 -83.5 5.83301 -120.5 17.5
s-70.833 29.667 -101.5 54s-54.834 57.333 -72.501 99s-26.5 90.167 -26.5 145.5z" />
    <glyph glyph-name="one" unicode="1" horiz-adv-x="474" 
d="M48 0v149h112v333l-106 -31v155l292 106v-563h104v-149h-402z" />
    <glyph glyph-name="two" unicode="2" horiz-adv-x="690" 
d="M251 479l-192.999 -0.000976562c0.666992 76.667 28.667 134.334 84 173.001s125.333 58 210 58c83.333 0 152.5 -19 207.5 -57s82.5 -92.667 82.5 -164c0 -154.667 -97.667 -232 -293 -232c-76 0 -114 -29.667 -114 -89h402v-168h-591v163c0 166.667 101 250 303 250
c24.667 0 47.167 5.83301 67.5 17.5s30.5 30.167 30.5 55.5c0 22.667 -9.16699 39.5 -27.5 50.5s-40.833 16.5 -67.5 16.5c-62.667 0 -96.334 -24.667 -101.001 -74z" />
    <glyph glyph-name="three" unicode="3" horiz-adv-x="696" 
d="M351 287l-126.994 0.00195312v140h118c64 0 96.667 19.333 98 58c0 18 -9 33.167 -27 45.5s-41.667 18.5 -71 18.5c-28.667 0 -52.834 -5.66699 -72.501 -17s-29.834 -28.666 -30.501 -51.999h-190c0.666992 33.333 6.83398 63.333 18.501 90s27 48.667 46 66
s41.167 31.833 66.5 43.5s51.5 20 78.5 25s54.833 7.5 83.5 7.5c36 0 70.667 -4 104 -12s64.666 -20.167 93.999 -36.5s53 -39.166 71 -68.499s27 -63.333 27 -102c0 -27.333 -8.5 -53.666 -25.5 -78.999s-39.5 -44 -67.5 -56c72.667 -26.667 109 -78 109 -154
c0 -38.667 -9.66699 -72.834 -29 -102.501s-45 -52.334 -77 -68.001s-65.333 -27.334 -100 -35.001s-70.334 -11.5 -107.001 -11.5c-29.333 0 -57.833 2.66699 -85.5 8s-54.834 14.166 -81.501 26.499s-49.834 27.666 -69.501 45.999s-35.5 41.5 -47.5 69.5
s-18 59.333 -18 94h194c0.666992 -29.333 12.167 -50.666 34.5 -63.999s50.166 -20 83.499 -20c26 0 48.667 6.16699 68 18.5s29 29.166 29 50.499c0 6.66699 -0.833008 13 -2.5 19s-5.33398 13.5 -11.001 22.5s-15.667 16.167 -30 21.5s-32.166 8 -53.499 8z" />
    <glyph glyph-name="four" unicode="4" horiz-adv-x="691" 
d="M392 700h183v-423h75v-156h-75v-121h-186v121h-357l-13 164zM223 277h166v183z" />
    <glyph glyph-name="five" unicode="5" horiz-adv-x="665" 
d="M591 699v-161.001h-349v-83h94c42 0 79.167 -3.33301 111.5 -10s62.833 -18 91.5 -34s50.667 -39.833 66 -71.5s23 -70.167 23 -115.5c0 -41.333 -8.66699 -77.5 -26 -108.5s-40.333 -55.333 -69 -73s-59.334 -30.667 -92.001 -39s-66.334 -12.5 -101.001 -12.5
c-90 0 -161.167 19.167 -213.5 57.5s-78.833 99.5 -79.5 183.5h193c0 -27.333 10 -47.833 30 -61.5s42.667 -20.5 68 -20.5c8.66699 0 17.834 1 27.501 3s20.167 5.5 31.5 10.5s20.5 12.667 27.5 23s10.5 22.833 10.5 37.5c0 16 -3.16699 29.5 -9.5 40.5
s-15.166 18.833 -26.499 23.5s-21.833 7.83398 -31.5 9.50098s-20.167 2.5 -31.5 2.5h-277v399h532z" />
    <glyph glyph-name="six" unicode="6" horiz-adv-x="706" 
d="M652 497l-189.003 -0.00195312c-2 20 -12.667 35.167 -32 45.5s-43.666 15.5 -72.999 15.5s-55 -7.66699 -77 -23s-33 -35.666 -33 -60.999v-66c42.667 32 96.667 48 162 48c76.667 0 138.834 -19.833 186.501 -59.5s71.5 -95.5 71.5 -167.5
c0 -41.333 -8.5 -78 -25.5 -110s-40.167 -57.167 -69.5 -75.5s-61.666 -32.166 -96.999 -41.499s-73 -14 -113 -14c-53.333 0 -102.5 7.83301 -147.5 23.5s-83.167 42.5 -114.5 80.5s-47 84.333 -47 139v243c0 52.667 14.833 97.5 44.5 134.5s66.667 63.5 111 79.5
s93.5 24 147.5 24c41.333 0 79 -3.66699 113 -11s65 -19 93 -35s49.833 -38.333 65.5 -67s23.5 -62.667 23.5 -102zM362.997 149.998c31.333 0 57.168 7.16797 77.501 21.501s30.5 33.5 30.5 57.5c0 26.667 -9.66699 47.5 -29 62.5s-45.333 22.5 -78 22.5
c-36.667 0 -64.834 -7.83301 -84.501 -23.5s-29.5 -35.834 -29.5 -60.501c0 -22 10 -40.833 30 -56.5s47.667 -23.5 83 -23.5z" />
    <glyph glyph-name="seven" unicode="7" horiz-adv-x="593" 
d="M285 0h-214l265 538h-307v163h552l5 -89z" />
    <glyph glyph-name="eight" unicode="8" horiz-adv-x="721" 
d="M361 292c-34.667 0 -62.333 -6.50098 -83 -19.501s-31 -31.167 -31 -54.5s10.833 -41.5 32.5 -54.5s48.5 -19.5 80.5 -19.5c31.333 0 57.833 6.33301 79.5 19s32.167 30.667 31.5 54c0 22.667 -9.66699 40.834 -29 54.501s-46.333 20.5 -81 20.5zM42.001 217.999
c0.666992 23.333 8.83398 49.334 24.501 78.001s38.5 51 68.5 67c-46.667 33.333 -70.667 79.666 -72 138.999c0 68.667 26.833 121.334 80.5 158.001s123.167 55 208.5 55c87.333 0 160.5 -18.5 219.5 -55.5s88.5 -88.833 88.5 -155.5
c0.666992 -27.333 -5.5 -52.833 -18.5 -76.5s-31.5 -42.834 -55.5 -57.501c32.667 -18 56 -41.333 70 -70s21.333 -56 22 -82c1.33301 -80.667 -26.834 -139.667 -84.501 -177s-135.5 -56 -233.5 -56c-63.333 0 -118.166 7.16699 -164.499 21.5s-83.833 39.333 -112.5 75
s-42.334 81.167 -41.001 136.5zM356.001 422c24.667 0 45.3359 4.83301 62.0029 14.5s27 21.5 31 35.5s4.16699 28.167 0.5 42.5s-13.834 26.333 -30.501 36s-37.334 14.5 -62.001 14.5s-45.334 -4.83301 -62.001 -14.5s-27 -21.5 -31 -35.5s-4 -28.167 0 -42.5
s14.333 -26.333 31 -36s37 -14.5 61 -14.5z" />
    <glyph glyph-name="nine" unicode="9" horiz-adv-x="708" 
d="M49 203l189.004 0.00195312c2 -20 12.667 -35.167 32 -45.5s43.666 -15.5 72.999 -15.5c30.667 0 57.834 8 81.501 24s35.5 38 35.5 66v60c-40 -32 -94 -48 -162 -48c-76.667 0 -138.834 19.833 -186.501 59.5s-71.5 95.5 -71.5 167.5c0 41.333 8.5 78 25.5 110
s40.167 57.167 69.5 75.5s61.666 32.166 96.999 41.499s73 14 113 14c53.333 0 102.5 -7.83301 147.5 -23.5s83.167 -42.5 114.5 -80.5s47 -84.333 47 -139v-236c0 -42 -8.66699 -79.333 -26 -112s-41 -58.334 -71 -77.001s-62.833 -32.667 -98.5 -42s-73.5 -14 -113.5 -14
c-32.667 0 -63.167 2.16699 -91.5 6.5s-55.333 11.833 -81 22.5s-47.334 24 -65.001 40s-31.834 36.5 -42.501 61.5s-16 53.167 -16 84.5zM345.004 550.002c-31.333 0 -57.168 -7.16797 -77.501 -21.501s-30.5 -33.5 -30.5 -57.5c0 -26.667 9.66699 -47.5 29 -62.5
s45.333 -22.5 78 -22.5c36.667 0 64.834 7.83301 84.501 23.5s29.5 35.834 29.5 60.501c0 22 -10 40.833 -30 56.5s-47.667 23.5 -83 23.5z" />
    <glyph glyph-name="colon" unicode=":" horiz-adv-x="314" 
d="M57 83c0 28 9.83301 49.833 29.5 65.5s42.834 23.5 69.501 23.5c27.333 0 51 -7.83301 71 -23.5s30 -37.5 30 -65.5s-10 -49.833 -30 -65.5s-43.667 -23.5 -71 -23.5c-26.667 0 -49.834 7.83301 -69.501 23.5s-29.5 37.5 -29.5 65.5zM57 354c0 28 9.66699 49.667 29 65
s42.666 23 69.999 23s51 -7.66699 71 -23s30 -37 30 -65s-10 -49.833 -30 -65.5s-43.667 -23.5 -71 -23.5s-50.666 7.83301 -69.999 23.5s-29 37.5 -29 65.5z" />
    <glyph glyph-name="semicolon" unicode=";" horiz-adv-x="296" 
d="M54 354c0 26 9 46.167 27 60.5s39.667 21.5 65 21.5s47.333 -7.16699 66 -21.5s28 -34.5 28 -60.5c0 -26.667 -9.33301 -47.167 -28 -61.5s-40.667 -21.5 -66 -21.5s-47 7.16699 -65 21.5s-27 34.833 -27 61.5zM241 61c0 -33.333 -19.333 -89.666 -58 -168.999h-96
l21 103c-35.333 6.66699 -53 29 -53 67c0 25.333 9.5 45.166 28.5 59.499s41.833 21.5 68.5 21.5c24.667 0 45.667 -7.16699 63 -21.5s26 -34.5 26 -60.5z" />
    <glyph glyph-name="less" unicode="&#x3c;" horiz-adv-x="441" 
d="M245 309l144 -136l-115 -117l-243 248v12l245 247l114 -117z" />
    <glyph glyph-name="equal" unicode="=" horiz-adv-x="557" 
d="M60 127v144h437v-144h-437zM60 341v145h437v-145h-437z" />
    <glyph glyph-name="greater" unicode="&#x3e;" horiz-adv-x="443" 
d="M53 164l149 145l-151 146l116 112l245 -250v-14l-245 -250z" />
    <glyph glyph-name="question" unicode="?" horiz-adv-x="601" 
d="M382 230l-193.999 0.00292969c1.33301 26 5.33301 49.5 12 70.5s13.167 37.333 19.5 49s16.833 23.667 31.5 36s25 20.5 31 24.5s17.667 11 35 21c31.333 18.667 47.333 37.667 48 57c0.666992 16.667 -5.33301 30.834 -18 42.501s-31 17.5 -55 17.5
c-55.333 0 -83 -24.667 -83 -74h-176c-4.66699 49.333 5 92.166 29 128.499s56 63 96 80s84.667 25.5 134 25.5c78 0 143.667 -18.333 197 -55s79.666 -91 78.999 -163c0 -26.667 -6.33301 -49.834 -19 -69.501s-28 -35.834 -46 -48.501l-54 -36.5
c-18 -11.667 -33.5 -26.334 -46.5 -44.001s-19.833 -38.167 -20.5 -61.5zM287.001 -4.99707c-33.333 0 -59.332 10.167 -77.999 30.5s-28 42.833 -28 67.5s9.33301 47.167 28 67.5s44.667 30.5 78 30.5s59.666 -10.167 78.999 -30.5s29 -42.833 29 -67.5
s-9.5 -47.167 -28.5 -67.5s-45.5 -30.5 -79.5 -30.5z" />
    <glyph glyph-name="at" unicode="@" horiz-adv-x="922" 
d="M590 -19l44.998 -91.001c-53.333 -31.333 -111.666 -47 -174.999 -47c-42 0 -82.833 4.66699 -122.5 14s-77.667 24.5 -114 45.5s-67.833 46.833 -94.5 77.5s-48 68.5 -64 113.5s-24 94.833 -24 149.5c0 64 12.167 122.5 36.5 175.5s56.833 96.167 97.5 129.5
s86.167 59 136.5 77s102.166 27 155.499 27c60 0 115 -8 165 -24s94.333 -39.667 133 -71s68.834 -73.166 90.501 -125.499s32.5 -112.5 32.5 -180.5c0 -79.333 -17.5 -142.666 -52.5 -189.999s-82.167 -71 -141.5 -71c-51.333 0 -85 26.333 -101 79
c-29.333 -48 -79 -72 -149 -72c-71.333 0 -128.666 21.667 -171.999 65s-65 103.666 -65 180.999c0 76 23.5 135.667 70.5 179s102.5 65 166.5 65c30.667 0 58.5 -5.83301 83.5 -17.5s43.167 -27.5 54.5 -47.5l6 49l107 -17v-321c0 -10.667 2.5 -18.167 7.5 -22.5
s9.83301 -6.5 14.5 -6.5c18.667 0 33.334 12.333 44.001 37s16 60.334 16 107.001c0 104.667 -26.5 180.5 -79.5 227.5s-129.833 70.5 -230.5 70.5c-84.667 0 -157.5 -28 -218.5 -84s-91.5 -129 -91.5 -219c0 -51.333 8.33301 -96.333 25 -135s39.5 -69.334 68.5 -92.001
s61.333 -39.5 97 -50.5s74.167 -16.5 115.5 -16.5c49.333 0 91.666 10.667 126.999 32zM459.998 362.999c-37.333 0 -65.667 -11.667 -85 -35s-29 -51.333 -29 -84s9.83301 -60.334 29.5 -83.001s48.167 -34 85.5 -34c36.667 0 65 11.5 85 34.5s30 52.167 30 87.5
c0 32.667 -10 59.834 -30 81.501s-48.667 32.5 -86 32.5z" />
    <glyph glyph-name="A" unicode="A" horiz-adv-x="797" 
d="M600 0l-46 115h-313l-46 -115h-210l314 700h200l313 -700h-212zM487 281l-89 223l-90 -223h179z" />
    <glyph glyph-name="B" unicode="B" horiz-adv-x="739" 
d="M266 287v-133h167c24 0 42.333 6 55 18s19 28 19 48s-6.33301 36.167 -19 48.5s-31 18.5 -55 18.5h-167zM266 540v-107h158c20 0 35.5 4.66699 46.5 14s16.5 22 16.5 38s-5.5 29.167 -16.5 39.5s-25.833 15.5 -44.5 15.5h-160zM71 700l358 0.000976562
c74 0 134.833 -16.667 182.5 -50s71.5 -82 71.5 -146c0 -67.333 -25.667 -112.666 -77 -135.999c31.333 -16.667 55.333 -39.834 72 -69.501s25 -60.834 25 -93.501c0 -37.333 -7.83301 -69.833 -23.5 -97.5s-37.167 -49 -64.5 -64s-56 -26 -86 -33s-62.333 -10.5 -97 -10.5
h-361v700z" />
    <glyph glyph-name="C" unicode="C" horiz-adv-x="707" 
d="M581 221l116.003 -129.999c-73.333 -72.667 -167 -109 -281 -109c-66.667 0 -125.167 9.83301 -175.5 29.5s-90.166 46.667 -119.499 81s-51.333 72.666 -66 114.999s-22 88.166 -22 137.499c0 46 7.83301 90.667 23.5 134s38.5 82.833 68.5 118.5
s70.167 64.334 120.5 86.001s107.166 32.5 170.499 32.5c104 0 194.333 -37.333 271 -112l-122 -120c-42.667 40.667 -92.334 61 -149.001 61c-62 0 -108.833 -20.5 -140.5 -61.5s-47.167 -87.5 -46.5 -139.5c0.666992 -52.667 16.167 -98.167 46.5 -136.5
s77.166 -57.5 140.499 -57.5c26 0 54.167 5.83301 84.5 17.5s57.166 29.5 80.499 53.5z" />
    <glyph glyph-name="D" unicode="D" horiz-adv-x="771" 
d="M71 700l299.998 -0.000976562c118.667 0 209.334 -32.167 272.001 -96.5s94 -147.166 94 -248.499c0 -102.667 -31.167 -187.5 -93.5 -254.5s-153.166 -100.5 -272.499 -100.5h-300v700zM266.998 534.999v-368h104c58.667 0 101.667 18.167 129 54.5s41 81.5 41 135.5
c0 52 -14 94.667 -42 128s-70.667 50 -128 50h-104z" />
    <glyph glyph-name="E" unicode="E" horiz-adv-x="672" 
d="M631 167v-167h-560v700h546v-166h-351v-100h331v-161h-331v-106h365z" />
    <glyph glyph-name="F" unicode="F" horiz-adv-x="641" 
d="M267 0h-196v700h537v-166h-341v-131h320v-162h-320v-241z" />
    <glyph glyph-name="G" unicode="G" horiz-adv-x="756" 
d="M690 607l-115 -113.998c-43.333 40.667 -96.666 61 -159.999 61c-58.667 0 -104.667 -17.5 -138 -52.5s-50 -85.833 -50 -152.5c0 -33.333 5.5 -64.333 16.5 -93s31.333 -53.834 61 -75.501s66.5 -32.5 110.5 -32.5c56.667 0 101.667 12 135 36v90h-177v155h342v-311
c-21.333 -43.333 -59.5 -77 -114.5 -101s-117.167 -36 -186.5 -36c-66.667 0 -125.334 10.5 -176.001 31.5s-90.5 49.167 -119.5 84.5s-50.667 74.166 -65 116.499s-21.5 87.5 -21.5 135.5c0 47.333 7.83301 92.5 23.5 135.5s38.667 82.333 69 118s70.5 64.167 120.5 85.5
s106.667 32 170 32c54 0 102.667 -8 146 -24s86.333 -45.667 129 -89z" />
    <glyph glyph-name="H" unicode="H" horiz-adv-x="788" 
d="M717 -1h-196v265h-252v-265h-198v700h198v-266h252v266h196v-700z" />
    <glyph glyph-name="I" unicode="I" horiz-adv-x="339" 
d="M268 0h-197v700h197v-700z" />
    <glyph glyph-name="J" unicode="J" horiz-adv-x="728" 
d="M15 302h193c0.666992 -49.333 13 -85.833 37 -109.5s54.667 -35.5 92 -35.5c42 0 74.5 12.5 97.5 37.5s34.5 61.167 34.5 108.5v231h-186v166h384v-398c0 -94.667 -29.167 -171.167 -87.5 -229.5s-139.833 -87.5 -244.5 -87.5c-213.333 0 -320 105.667 -320 317z" />
    <glyph glyph-name="K" unicode="K" horiz-adv-x="703" 
d="M690 700v-12l-284 -331l308 -345v-12h-245l-200 233v-233h-198v700h198v-230l184 230h237z" />
    <glyph glyph-name="L" unicode="L" horiz-adv-x="620" 
d="M71 700h198v-532h335v-168h-533v700z" />
    <glyph glyph-name="M" unicode="M" horiz-adv-x="923" 
d="M656 0v417l-179 -212h-35l-175 211v-416h-196v700h207l184 -237l184 237h206v-700h-196z" />
    <glyph glyph-name="N" unicode="N" horiz-adv-x="799" 
d="M239 700l296 -383.001c-1.33301 20.667 -3.33301 68.334 -6 143.001v240h199v-700h-168l-292 377l3 -153v-224h-200v700h168z" />
    <glyph glyph-name="O" unicode="O" horiz-adv-x="842" 
d="M810 350c0 -114.667 -35.5 -204.5 -106.5 -269.5s-165.167 -97.5 -282.5 -97.5c-116.667 0 -210.667 32.5 -282 97.5s-107 154.833 -107 269.5c0 113.333 35.833 202.833 107.5 268.5s165.5 98.5 281.5 98.5c117.333 0 211.5 -32.5 282.5 -97.5
s106.5 -154.833 106.5 -269.5zM612 350c0 60 -17.333 108 -52 144s-81 54 -139 54c-56.667 0 -102.667 -18.5 -138 -55.5s-53 -84.5 -53 -142.5c0 -58.667 17.833 -106.334 53.5 -143.001s81.5 -55 137.5 -55c57.333 0 103.5 18.333 138.5 55s52.5 84.334 52.5 143.001z" />
    <glyph glyph-name="P" unicode="P" horiz-adv-x="709" 
d="M269 530v-174h142c26 0 46.333 8.16699 61 24.5s22 36.833 22 61.5s-7.33301 45.5 -22 62.5s-35 25.5 -61 25.5h-142zM411 189l-142 0.00292969v-189h-198v700h340c90 0 159.333 -24.333 208 -73s73 -109.334 73 -182.001c0 -74.667 -24.333 -135.834 -73 -183.501
s-118 -71.834 -208 -72.501z" />
    <glyph glyph-name="Q" unicode="Q" horiz-adv-x="839" 
d="M806 351c0 -77.333 -19.6689 -146.667 -59.002 -208l79 -81l-132 -130l-88 90c-53.333 -25.333 -115.666 -38 -186.999 -38c-116 0 -209.5 32.833 -280.5 98.5s-106.5 155.167 -106.5 268.5s35.5 202.666 106.5 267.999s164.5 98 280.5 98
c116.667 0 210.334 -32.667 281.001 -98s106 -154.666 106 -267.999zM607.998 350.999c0 58.667 -17.168 106.333 -51.501 143s-80.166 55 -137.499 55c-56 0 -101.833 -18.5 -137.5 -55.5s-53.5 -84.5 -53.5 -142.5c0 -60 17.667 -108 53 -144s81.333 -54 138 -54
c58 0 104 17.5 138 52.5s51 83.5 51 145.5z" />
    <glyph glyph-name="R" unicode="R" horiz-adv-x="737" 
d="M719 12v-12.001h-218l-163 227h-69v-227h-198v700h342c85.333 0 152 -23.333 200 -70s72 -103.667 72 -171c0 -47.333 -10.833 -88.166 -32.5 -122.499s-60.167 -63.833 -115.5 -88.5zM413 541.999l-144.001 -0.000976562v-168h146c24.667 0 43.334 7.83301 56.001 23.5
s19 34.834 19 57.501c0 24 -6.66699 44.5 -20 61.5s-32.333 25.5 -57 25.5z" />
    <glyph glyph-name="S" unicode="S" horiz-adv-x="666" 
d="M600 631l-97.9971 -124.999c-42.667 32 -97.334 48 -164.001 48c-26.667 0 -49.167 -4.33301 -67.5 -13s-27.5 -21.667 -27.5 -39c0 -22 9 -36.833 27 -44.5s47.667 -13.5 89 -17.5c38 -4 72.667 -10.833 104 -20.5s61.166 -23.167 89.499 -40.5s50.5 -40.5 66.5 -69.5
s24 -62.833 24 -101.5c0 -50.667 -15 -93.667 -45 -129s-67.5 -60.5 -112.5 -75.5s-94.833 -22.833 -149.5 -23.5c-68 -0.666992 -125.667 7.5 -173 24.5s-94 49.833 -140 98.5l109 125c54 -52.667 122.333 -79 205 -79c33.333 0 60 5.5 80 16.5s30 26.167 30 45.5
c0 35.333 -39 56.666 -117 63.999c-42.667 4 -79.334 9.83301 -110.001 17.5s-60.167 19.5 -88.5 35.5s-49.833 38.5 -64.5 67.5s-22 64.5 -22 106.5c0 69.333 28.5 122 85.5 158s126.167 54 207.5 54c104 0 191.333 -27.667 262 -83z" />
    <glyph glyph-name="T" unicode="T" horiz-adv-x="636" 
d="M219 0v537h-204v163h606v-163h-205v-537h-197z" />
    <glyph glyph-name="U" unicode="U" horiz-adv-x="782" 
d="M524 699l197 -0.000976562v-391c0.666992 -102.667 -28.333 -182.167 -87 -238.5s-139.667 -84.5 -243 -84.5c-104 0 -185 27.833 -243 83.5s-87 136.167 -87 241.5v389h197v-389c0 -53.333 11.667 -92.666 35 -117.999s56 -38 98 -38c41.333 0 73.833 12.833 97.5 38.5
s35.5 64.167 35.5 115.5v391z" />
    <glyph glyph-name="V" unicode="V" horiz-adv-x="749" 
d="M762 700l-291 -703h-193l-291 703h219l80 -210l88 -259l89 259l80 210h219z" />
    <glyph glyph-name="W" unicode="W" horiz-adv-x="1066" 
d="M1072 700l-255 -699h-161l-124 335l-120 -335h-160l-261 699h216l90 -246c10 -30.667 22.333 -84.667 37 -162l129 408h137l133 -408c10 54 23 109.667 39 167l84 241h216z" />
    <glyph glyph-name="X" unicode="X" horiz-adv-x="714" 
d="M292 593l65 -124l66 126l64 105h213v-11l-220 -337l235 -344v-8h-215l-65 97l-78 130l-79 -132l-64 -95h-215v8l235 344l-220 337v11h213z" />
    <glyph glyph-name="Y" unicode="Y" horiz-adv-x="722" 
d="M217 700l145 -240l151 240h223v-9l-278 -412v-279h-198v279l-266 413v8h223z" />
    <glyph glyph-name="Z" unicode="Z" horiz-adv-x="643" 
d="M42 540v160h561v-56l-306 -473h314v-171h-586v62l313 478h-296z" />
    <glyph glyph-name="bracketleft" unicode="[" horiz-adv-x="372" 
d="M337 -157h-271v860h271v-145h-106v-570h106v-145z" />
    <glyph glyph-name="backslash" unicode="\" horiz-adv-x="533" 
d="M23 752h172l314 -829h-173z" />
    <glyph glyph-name="bracketright" unicode="]" horiz-adv-x="374" 
d="M308 -157h-273v145h106v570h-106v145h273v-860z" />
    <glyph glyph-name="asciicircum" unicode="^" horiz-adv-x="638" 
d="M36 331v13l225 347h106l235 -346v-14h-177l-112 163l-105 -163h-172z" />
    <glyph glyph-name="underscore" unicode="_" horiz-adv-x="511" 
d="M9 -143v146h493v-146h-493z" />
    <glyph glyph-name="grave" unicode="`" horiz-adv-x="288" 
d="M-3 693v8h193l77 -161v-6h-161z" />
    <glyph glyph-name="a" unicode="a" horiz-adv-x="648" 
d="M412 441l9.00098 53.001h173v-494h-170l-8 53c-20 -22.667 -44.667 -39 -74 -49s-59 -14.333 -89 -13c-71.333 4.66699 -126.833 30.167 -166.5 76.5s-59.5 106.166 -59.5 179.499c0 74 22.167 135.5 66.5 184.5s102.166 73.5 173.499 73.5c68.667 0 117 -21.333 145 -64
zM309.001 356.001c-28.667 0 -52.334 -9.83398 -71.001 -29.501s-28 -46.167 -28 -79.5s9.33301 -59.666 28 -78.999s42.334 -29 71.001 -29c30 0 54.5 10.5 73.5 31.5s28.5 46.5 28.5 76.5c0 33.333 -9 59.833 -27 79.5s-43 29.5 -75 29.5z" />
    <glyph glyph-name="b" unicode="b" horiz-adv-x="643" 
d="M238 700v-248c28.667 35.333 74.334 53 137.001 53c71.333 0 129.166 -24 173.499 -72s66.5 -110 66.5 -186c0 -78 -19.5 -139 -58.5 -183s-94.833 -68.333 -167.5 -73c-30 -1.33301 -59.667 3 -89 13s-54 26.333 -74 49l-8 -53h-164v700h184zM333 356
c-31.333 0 -55.666 -10.999 -72.999 -32.999s-26 -49 -26 -81c0 -27.333 9.16699 -51.333 27.5 -72s42.166 -31 71.499 -31c28.667 0 52.334 9.66699 71.001 29s28 45.666 28 78.999s-9.33301 59.833 -28 79.5s-42.334 29.5 -71.001 29.5z" />
    <glyph glyph-name="c" unicode="c" horiz-adv-x="519" 
d="M406 184l105.001 -110.001c-62.667 -56 -130.667 -84 -204 -84c-37.333 0 -72.333 4.83301 -105 14.5s-62.334 24.334 -89.001 44.001s-47.667 46.334 -63 80.001s-23 72.834 -23 117.501c0 43.333 7.83301 82 23.5 116s36.667 61.167 63 81.5
s55.666 35.666 87.999 45.999s66.5 15.5 102.5 15.5c78 0 142.667 -25.667 194 -77l-98 -106c-23.333 24 -51.666 36 -84.999 36c-34 0 -60.5 -10.667 -79.5 -32s-28.5 -48.333 -28.5 -81c0 -28.667 9.5 -52.834 28.5 -72.501s45.167 -29.5 78.5 -29.5
c36 0 66.667 13.667 92 41z" />
    <glyph glyph-name="d" unicode="d" horiz-adv-x="643" 
d="M405 452v248h184v-700h-164l-8 53c-20 -22.667 -44.667 -39 -74 -49s-59 -14.333 -89 -13c-72.667 4.66699 -128.5 29 -167.5 73s-58.5 105 -58.5 183c0 76 22.167 138 66.5 186s102.166 72 173.499 72c62.667 0 108.334 -17.667 137.001 -53zM310 356
c-28.667 0 -52.334 -9.83398 -71.001 -29.501s-28 -46.167 -28 -79.5s9.33301 -59.666 28 -78.999s42.334 -29 71.001 -29c29.333 0 53.166 10.333 71.499 31s27.5 44.667 27.5 72c0 32 -8.66699 59 -26 81s-41.666 33 -72.999 33z" />
    <glyph glyph-name="e" unicode="e" horiz-adv-x="590" 
d="M214 313h179c-1.33301 24.667 -16 42.167 -44 52.5s-56.5 10.5 -85.5 0.5s-45.5 -27.667 -49.5 -53zM302 506c90.667 0 161.169 -28.167 211.502 -84.5s65.166 -131.833 44.499 -226.5h-345c6 -20 20 -35.5 42 -46.5s44.667 -16.5 68 -16.5
c49.333 0 91.666 13.333 126.999 40l90 -101c-58.667 -54.667 -133.667 -82 -225 -82c-84 0 -153 21.5 -207 64.5s-81 107.167 -81 192.5c0 84 27.333 148.333 82 193s119 67 193 67z" />
    <glyph glyph-name="f" unicode="f" horiz-adv-x="428" 
d="M286 0h-183.999v343h-84v142h84v24c0 67.333 21.167 117.833 63.5 151.5s92.166 50.5 149.499 50.5c62 0 111.667 -18 149 -54l-56 -111c-18.667 16 -41 24 -67 24c-16 0 -29.167 -5.16699 -39.5 -15.5s-15.5 -25.5 -15.5 -45.5v-24h128v-142h-128v-343z" />
    <glyph glyph-name="g" unicode="g" horiz-adv-x="615" 
d="M34 -35l173 0.000976562c-1.33301 -62.667 29.667 -94 93 -94c26 0 47.667 6.16699 65 18.5s26 29.833 26 52.5c0 44 -29.667 66 -89 66c-83.333 0 -150 22.5 -200 67.5s-75 105.5 -75 181.5s26.167 137.167 78.5 183.5s117.833 69.5 196.5 69.5
c33.333 0 67.333 -6.33301 102 -19l25.5 32.5l27.5 35.5l133 -95l-64 -76c33.333 -37.333 49 -81.666 47 -132.999c-1.33301 -66.667 -31.333 -121.334 -90 -164.001c64.667 -36.667 97 -86.334 97 -149.001c0 -38.667 -7.83301 -72.5 -23.5 -101.5s-37 -51.833 -64 -68.5
s-56.667 -29.167 -89 -37.5s-66.833 -12.5 -103.5 -12.5c-88 0 -155.667 21.5 -203 64.5s-68.333 102.5 -63 178.5zM302 359.001c-28 0 -50.998 -9.00098 -68.998 -27.001s-27 -43 -27 -75c0 -28.667 9.16699 -52 27.5 -70s41.166 -27 68.499 -27c26 0 48 8.33301 66 25
s27 40.667 27 72c0 28.667 -8.83301 52.834 -26.5 72.501s-39.834 29.5 -66.501 29.5z" />
    <glyph glyph-name="h" unicode="h" horiz-adv-x="613" 
d="M54 700h186v-259c33.333 42.667 77.333 64 132 64c55.333 0 101.5 -19 138.5 -57s55.5 -96 55.5 -174v-274h-183v273c-2 48.667 -24.333 73 -67 73c-20 0 -37.667 -7.33301 -53 -22s-23.333 -35.667 -24 -63v-261h-185v700z" />
    <glyph glyph-name="i" unicode="i" horiz-adv-x="293" 
d="M43 621c0 29.333 10.333 52.166 31 68.499s45 24.5 73 24.5s52.167 -8.16699 72.5 -24.5s30.5 -39.166 30.5 -68.499c0 -28.667 -10.333 -51.167 -31 -67.5s-44.667 -24.5 -72 -24.5c-28 0 -52.333 8.16699 -73 24.5s-31 38.833 -31 67.5zM54 0h185v486h-185v-486z" />
    <glyph glyph-name="j" unicode="j" horiz-adv-x="292" 
d="M43 621c0 29.333 10.333 52.166 31 68.499s45 24.5 73 24.5s52.167 -8.16699 72.5 -24.5s30.5 -39.166 30.5 -68.499c0 -28.667 -10.333 -51.167 -31 -67.5s-44.667 -24.5 -72 -24.5c-28 0 -52.333 8.16699 -73 24.5s-31 38.833 -31 67.5zM-35 -72l-34.9971 -128.997
c39.333 -19.333 77.666 -29.833 114.999 -31.5s70.166 4.66602 98.499 18.999s51.166 38 68.499 71s26 72.833 26 119.5v509h-184v-509c0 -30.667 -8 -50.334 -24 -59.001s-37.667 -5.33398 -65 9.99902z" />
    <glyph glyph-name="k" unicode="k" horiz-adv-x="569" 
d="M54 700h185v-351l103 145h205v-8l-173 -224l201 -251v-11h-208l-128 172v-172h-185v700z" />
    <glyph glyph-name="l" unicode="l" horiz-adv-x="290" 
d="M54 701h182v-701h-182v701z" />
    <glyph glyph-name="m" unicode="m" horiz-adv-x="882" 
d="M535 0l-180.999 -0.00195312v274c0 50.667 -17.333 76 -52 76c-17.333 0 -32.333 -6.83301 -45 -20.5s-19.334 -33.167 -20.001 -58.5v-271h-183v494h155l13 -53c14.667 20.667 34.334 36.5 59.001 47.5s50.334 16.167 77.001 15.5
c57.333 -1.33301 98.333 -24.666 123 -69.999c38 47.333 92.667 71 164 71c57.333 0 103.166 -18.833 137.499 -56.5s51.5 -95.5 51.5 -173.5v-275h-184v274c0 24.667 -4.83301 43 -14.5 55s-21.834 18 -36.501 18c-17.333 0 -32.333 -6.16699 -45 -18.5
s-19 -31.166 -19 -56.499v-272z" />
    <glyph glyph-name="n" unicode="n" 
d="M574 0h-184.001v273c0 28 -6.66699 48.667 -20 62s-29.666 20 -48.999 20c-24 0 -44.167 -8.16699 -60.5 -24.5s-24.5 -39.833 -24.5 -70.5v-260h-182v494h163l8 -54c38.667 45.333 90.667 67.333 156 66c58 -0.666992 104.667 -19 140 -55s53 -95 53 -177v-274z" />
    <glyph glyph-name="o" unicode="o" horiz-adv-x="618" 
d="M309 505c79.333 0 146.168 -22 200.501 -66s81.5 -108.333 81.5 -193c0 -84 -27.833 -148 -83.5 -192s-121.834 -66 -198.501 -66c-36.667 0 -71.5 5.16699 -104.5 15.5s-62.833 25.5 -89.5 45.5s-48 47 -64 81s-24 72.667 -24 116c0 58 13.833 107.167 41.5 147.5
s62.167 69 103.5 86s87 25.5 137 25.5zM309.002 139c30.667 0 55.332 10.167 73.999 30.5s28 45.833 28 76.5c0 30 -9.16699 55.5 -27.5 76.5s-43.166 31.5 -74.499 31.5s-56.166 -10.5 -74.499 -31.5s-27.5 -46.5 -27.5 -76.5s9.16699 -55.333 27.5 -76
s43.166 -31 74.499 -31z" />
    <glyph glyph-name="p" unicode="p" horiz-adv-x="643" 
d="M238 42v-248h-184v700h164l8 -53c20 22.667 44.667 39 74 49s59 14.333 89 13c72.667 -4.66699 128.5 -29 167.5 -73s58.5 -105 58.5 -183c0 -76 -22.167 -138 -66.5 -186s-102.166 -72 -173.499 -72c-62.667 0 -108.334 17.667 -137.001 53zM333 138
c28.667 0 52.334 9.83398 71.001 29.501s28 46.167 28 79.5s-9.33301 59.666 -28 78.999s-42.334 29 -71.001 29c-29.333 0 -53.166 -10.333 -71.499 -31s-27.5 -44.667 -27.5 -72c0 -32 8.66699 -59 26 -81s41.666 -33 72.999 -33z" />
    <glyph glyph-name="q" unicode="q" horiz-adv-x="643" 
d="M405 -206v248c-28.667 -35.333 -74.334 -53 -137.001 -53c-71.333 0 -129.166 24 -173.499 72s-66.5 110 -66.5 186c0 78 19.5 139 58.5 183s94.833 68.333 167.5 73c30 1.33301 59.667 -3 89 -13s54 -26.333 74 -49l8 53h164v-700h-184zM310 138
c31.333 0 55.666 10.999 72.999 32.999s26 49 26 81c0 27.333 -9.16699 51.333 -27.5 72s-42.166 31 -71.499 31c-28.667 0 -52.334 -9.66699 -71.001 -29s-28 -45.666 -28 -78.999s9.33301 -59.833 28 -79.5s42.334 -29.5 71.001 -29.5z" />
    <glyph glyph-name="r" unicode="r" horiz-adv-x="472" 
d="M54 494l165.001 0.000976562l11 -54c24.667 44 64.667 66 120 66c53.333 0 96.666 -17.667 129.999 -53l-74 -133c-25.333 20 -53 30 -83 30c-24.667 0 -45 -7.83301 -61 -23.5s-24 -38.834 -24 -69.501v-257h-184v494z" />
    <glyph glyph-name="s" unicode="s" horiz-adv-x="511" 
d="M19 52l60.001 134c51.333 -33.333 109.666 -51.666 174.999 -54.999c33.333 0 50 8 50 24c0 15.333 -17.333 24.333 -52 27c-26 0.666992 -50.667 4 -74 10s-45.833 15 -67.5 27s-38.834 28.667 -51.501 50s-19 46.333 -19 75c0 55.333 21.833 96.166 65.5 122.499
s97.834 39.5 162.501 39.5c81.333 0 148.666 -20 201.999 -60l-78 -110c-13.333 8.66699 -32.333 16 -57 22s-47 8.66699 -67 8c-29.333 0 -44 -8 -44 -24c0 -15.333 12.333 -23.333 37 -24c151.333 -4.66699 227 -59 227 -163c0 -38.667 -11.167 -71 -33.5 -97
s-50.166 -44.333 -83.499 -55s-71 -16 -113 -16c-44 0 -88 5.83301 -132 17.5s-79.667 27.5 -107 47.5z" />
    <glyph glyph-name="t" unicode="t" horiz-adv-x="432" 
d="M98 614l183 20v-143h111v-141h-112v-162c0.666992 -32 17 -48 49 -48c19.333 0 37.333 5.66699 54 17l40 -136c-38.667 -22 -86 -33 -142 -33c-55.333 0 -100 15.333 -134 46s-50.333 82 -49 154v162h-79v141h79v123z" />
    <glyph glyph-name="u" unicode="u" 
d="M48 494h184.001v-273c0 -28 6.66699 -48.667 20 -62s29.666 -20 48.999 -20c24 0 44.167 7.66699 60.5 23s24.5 38.333 24.5 69v263h182v-494h-163l-8 54c-38.667 -45.333 -90.667 -67.333 -156 -66c-58 0.666992 -104.667 19 -140 55s-53 95 -53 177v274z" />
    <glyph glyph-name="v" unicode="v" horiz-adv-x="589" 
d="M187 494l54 -138l53 -160l50 160l53 138h195l-204 -497h-183l-213 497h195z" />
    <glyph glyph-name="w" unicode="w" horiz-adv-x="836" 
d="M363 494h111l87 -275l37 140l46 135h193l-181 -497h-169l-69 187l-68 -187h-171l-180 497h192l47 -136l38 -139z" />
    <glyph glyph-name="x" unicode="x" horiz-adv-x="566" 
d="M331 55l-48 84l-48 -84l-32 -55h-203l166 248l-150 237v9h198l34 -60l35 -70l35 69l34 61h198v-9l-149 -236l165 -249h-203z" />
    <glyph glyph-name="y" unicode="y" horiz-adv-x="582" 
d="M394 494h197l-306 -703h-192l100 231l-196 472h195l42 -118l54 -171l60 172z" />
    <glyph glyph-name="z" unicode="z" horiz-adv-x="495" 
d="M42 494h413v-62l-188 -274h197v-158h-441v57l197 291h-178v146z" />
    <glyph glyph-name="braceleft" unicode="{" horiz-adv-x="386" 
d="M350 -14l0.000976562 -131.999c-35.333 -6.66699 -66.333 -10 -93 -10c-111.333 0 -167 58.333 -167 175v141c0 7.33301 -0.666992 13.666 -2 18.999s-4 11 -8 17s-10.5 10.667 -19.5 14s-20.167 5 -33.5 5v128c25.333 0 42.166 5.16699 50.499 15.5
s12.5 23.833 12.5 40.5v133c0 60 13 105.667 39 137s68.667 47 128 47c28 0 59 -3 93 -9v-122c-58 12 -87 -8 -87 -60v-140c0 -15.333 -0.166992 -26.5 -0.5 -33.5s-1.83301 -15.833 -4.5 -26.5s-7.5 -19.667 -14.5 -27s-16.167 -14.333 -27.5 -21
c19.333 -10.667 32 -24.167 38 -40.5s9 -37.5 9 -63.5v-136c0 -19.333 4.33301 -33.333 13 -42s19.5 -12.667 32.5 -12s26.833 1.66699 41.5 3z" />
    <glyph glyph-name="bar" unicode="|" horiz-adv-x="311" 
d="M245 750v-820h-179v820h179z" />
    <glyph glyph-name="braceright" unicode="}" horiz-adv-x="386" 
d="M36 -146l-0.000976562 132c14.667 -1.33301 28.5 -2.33301 41.5 -3s23.833 3.33301 32.5 12s13 22.667 13 42v136c0 26 3 47.167 9 63.5s18.667 29.833 38 40.5c-11.333 6.66699 -20.5 13.667 -27.5 21s-11.833 16.333 -14.5 27s-4.16699 19.5 -4.5 26.5
s-0.5 18.167 -0.5 33.5v140c0 52 -29 72 -87 60v122c34 6 65 9 93 9c59.333 0 102 -15.667 128 -47s39 -77 39 -137v-133c0 -10.667 1.16699 -19.5 3.5 -26.5s8.33301 -13.667 18 -20s23.5 -9.5 41.5 -9.5v-128c-25.333 0 -42.166 -5.16699 -50.499 -15.5
s-12.5 -23.5 -12.5 -39.5v-141c0 -116.667 -55.667 -175 -167 -175c-26.667 0 -57.667 3.33301 -93 10z" />
    <glyph glyph-name="asciitilde" unicode="~" horiz-adv-x="619" 
d="M170 208l-123 45.001c6.66699 47.333 24.667 85.166 54 113.499s67.666 42.166 114.999 41.499c18 -0.666992 37.833 -5.33398 59.5 -14.001s40.5 -17.5 56.5 -26.5s31.833 -16.167 47.5 -21.5s29.5 -4.33301 41.5 3s22 22.666 30 45.999l123 -45
c-6.66699 -47.333 -24.667 -85.166 -54 -113.499s-67.666 -42.166 -114.999 -41.499c-21.333 0.666992 -44.5 7.33398 -69.5 20.001s-45.333 24 -61 34s-33 12.833 -52 8.5s-36.5 -20.833 -52.5 -49.5z" />
    <glyph glyph-name="exclamdown" unicode="&#xa1;" horiz-adv-x="303" 
d="M244 269h-187l-4 -470h194zM152 504c33.333 0 59.332 -10.167 77.999 -30.5s28 -42.833 28 -67.5s-9.33301 -47.167 -28 -67.5s-44.667 -30.5 -78 -30.5s-59.666 10.167 -78.999 30.5s-29 42.833 -29 67.5s9.5 47.167 28.5 67.5s45.5 30.5 79.5 30.5z" />
    <glyph glyph-name="cent" unicode="&#xa2;" horiz-adv-x="561" 
d="M422 184l104.999 -109.998c-44.667 -40.667 -92.667 -66.334 -144 -77.001v-76h-161v82c-54.667 15.333 -98.167 43 -130.5 83s-48.5 93.333 -48.5 160c0 65.333 16.5 118.5 49.5 159.5s76.167 69.5 129.5 85.5v85h161v-78c50 -10.667 93.667 -34 131 -70l-98 -106
c-23.333 24 -51.666 36 -84.999 36c-34 0 -60.5 -10.667 -79.5 -32s-28.5 -48.333 -28.5 -81c0 -28.667 9.5 -52.834 28.5 -72.501s45.167 -29.5 78.5 -29.5c36 0 66.667 13.667 92 41z" />
    <glyph glyph-name="sterling" unicode="&#xa3;" horiz-adv-x="669" 
d="M291 472c0 -20.667 3.33398 -43.6689 10.001 -69.002h189v-136h-166c2.66699 -17.333 1 -37.166 -5 -59.499s-14.667 -39.166 -26 -50.499h333v-157h-576v156c29.333 0.666992 51.666 12.667 66.999 36s22 48.333 20 75h-87v136h60
c-5.33301 23.333 -8.66602 46 -9.99902 68c-3.33301 71.333 18.167 129 64.5 173s111.833 66 196.5 66c79.333 0 141.666 -19.167 186.999 -57.5s66.333 -94.833 63 -169.5h-175c-0.666992 24 -7.16699 42 -19.5 54s-28.833 18 -49.5 18c-23.333 0 -41.833 -7 -55.5 -21
s-20.5 -34.667 -20.5 -62z" />
    <glyph glyph-name="currency" unicode="&#xa4;" horiz-adv-x="632" 
d="M316 233c23.333 0 41.833 6.66699 55.5 20s20.5 32 20.5 56s-6.83301 42.667 -20.5 56s-32.167 20 -55.5 20s-41.833 -6.66699 -55.5 -20s-20.5 -32 -20.5 -56s6.83301 -42.667 20.5 -56s32.167 -20 55.5 -20zM316 520c24.667 0 51.333 -3.33398 80 -10.001l68 69
l121 -121l-56 -56c12 -26 18 -57 18 -93c0 -33.333 -6 -64.333 -18 -93l55 -54l-121 -121l-67 67c-27.333 -7.33301 -54 -11 -80 -11c-29.333 0 -56.333 3.33301 -81 10l-66 -67l-121 121l55 56c-11.333 26.667 -17 57.334 -17 92.001c0 34 5.66699 64.333 17 91l-58 58
l121 121l70 -69c24 6.66699 50.667 10 80 10z" />
    <glyph glyph-name="yen" unicode="&#xa5;" horiz-adv-x="797" 
d="M139 110v119h157v41h-157v127h80l-191 295v8h220l74 -123l74 -140l76 139l78 124h220v-9l-200 -294h80v-127h-160v-41h160v-119h-160v-110h-194v110h-157z" />
    <glyph glyph-name="brokenbar" unicode="&#xa6;" horiz-adv-x="318" 
d="M252 339h-186v360h186v-360zM66 280h186v-366h-186v366z" />
    <glyph glyph-name="section" unicode="&#xa7;" horiz-adv-x="639" 
d="M37 69l79 117.006c62 -42 129.667 -63 203 -63c63.333 0 95 10.333 95 31c0 8.66699 -8 15.667 -24 21s-38.333 7.66602 -67 6.99902c-33.333 -0.666992 -65.5 1.83301 -96.5 7.5s-59.667 14.667 -86 27s-47.166 29.833 -62.499 52.5s-22 48.667 -20 78
c0.666992 15.333 7.66699 32.333 21 51s30 32 50 40c-43.333 23.333 -65 57 -65 101c0 32 8.33301 59.667 25 83s39 41.166 67 53.499s56.833 21.166 86.5 26.499s60.5 8 92.5 8c46.667 0 88.667 -5 126 -15s74 -31 110 -63l-97 -96c-31.333 24 -77.666 36 -138.999 36
c-60 0 -90 -9.66699 -90 -29c0 -17.333 28 -26 84 -26c26 0 50.667 -1.16699 74 -3.5s47.5 -7.33301 72.5 -15s46.167 -17.334 63.5 -29.001s31.166 -27.834 41.499 -48.501s14.5 -44.667 12.5 -72c-2 -15.333 -8.66699 -31.5 -20 -48.5s-25.333 -30.833 -42 -41.5
c19.333 -12.667 34.333 -28.334 45 -47.001s16 -37.334 16 -56.001c0 -28.667 -6.66699 -54 -20 -76s-29.833 -39 -49.5 -51s-42.667 -21.667 -69 -29s-50.333 -12.166 -72 -14.499s-43.834 -3.5 -66.501 -3.5c-58 0 -109.333 6 -154 18s-86 35 -124 69zM421 351.006
c0 26 -30.667 39 -92 39c-66.667 0 -100 -12.667 -100 -38c0 -12 8.16699 -21.333 24.5 -28s37.5 -10 63.5 -10c69.333 0 104 12.333 104 37z" />
    <glyph glyph-name="dieresis" unicode="&#xa8;" horiz-adv-x="565" 
d="M38 626c0 26.667 9.16699 47.667 27.5 63s40.166 23 65.499 23s47.5 -7.66699 66.5 -23s28.5 -36.333 28.5 -63c0 -25.333 -9.5 -45.5 -28.5 -60.5s-41.167 -22.5 -66.5 -22.5s-47.166 7.5 -65.499 22.5s-27.5 35.167 -27.5 60.5zM328 626c0 26.667 9.33301 47.667 28 63
s41 23 67 23c24.667 0 46.5 -7.66699 65.5 -23s28.5 -36.333 28.5 -63c0 -25.333 -9.5 -45.5 -28.5 -60.5s-40.833 -22.5 -65.5 -22.5c-26 0 -48.333 7.5 -67 22.5s-28 35.167 -28 60.5z" />
    <glyph glyph-name="copyright" unicode="&#xa9;" horiz-adv-x="818" 
d="M413 721c114 0 203.333 -34 268 -102s97 -155.667 97 -263c0 -108 -32.333 -195.833 -97 -263.5s-154 -101.5 -268 -101.5c-113.333 0 -204 34.167 -272 102.5s-102 155.833 -102 262.5c0 104 34.167 190.833 102.5 260.5s158.833 104.5 271.5 104.5zM225 352
c0 -58.667 19.167 -104.833 57.5 -138.5s84.5 -50.5 138.5 -50.5c60.667 0 113 21.667 157 65l-68 68c-22 -22 -48.667 -33 -80 -33c-27.333 0 -50.666 7.83301 -69.999 23.5s-29 37.5 -29 65.5c0 31.333 9.5 55.166 28.5 71.499s42.5 24.5 70.5 24.5
c29.333 0 55.333 -10 78 -30l67 66c-42.667 42 -92.667 63 -150 63c-54.667 0 -100.834 -17.167 -138.501 -51.5s-58.167 -82.166 -61.5 -143.499zM149 356.001c0 -80 24.1689 -144.666 72.502 -193.999s112.166 -74 191.499 -74c80 0 142.667 24.167 188 72.5
s68 113.5 68 195.5s-22.667 147 -68 195s-108 72 -188 72c-78.667 0 -142.334 -24.833 -191.001 -74.5s-73 -113.834 -73 -192.501z" />
    <glyph glyph-name="ordfeminine" unicode="&#xaa;" horiz-adv-x="438" 
d="M274 652l12.999 42h107v-332h-113l-8 44c-18 -34.667 -52 -52 -102 -52c-46.667 2.66699 -84.167 18.667 -112.5 48s-42.5 71.333 -42.5 126s14.833 97.167 44.5 127.5s67.834 45.5 114.501 45.5c44.667 0 77.667 -16.333 99 -49zM198.999 588
c-17.333 0 -31.333 -5.33203 -42 -15.999s-16 -25.334 -16 -44.001c0 -19.333 5.33301 -34.333 16 -45s24.667 -16 42 -16c18 0 32.167 6 42.5 18s15.5 26.333 15.5 43c0 16 -5.16699 30 -15.5 42s-24.5 18 -42.5 18zM35.999 206.001v106h355v-106h-355z" />
    <glyph glyph-name="guillemotleft" unicode="&#xab;" horiz-adv-x="558" 
d="M29 297l139.001 222h153v1l-139 -223c65.333 -108 111.666 -182.333 138.999 -223h-153zM235.001 297l139 222h154v1l-139 -223l139 -223h-154z" />
    <glyph glyph-name="logicalnot" unicode="&#xac;" horiz-adv-x="557" 
d="M491 394v-259h-154v125h-279v134h433z" />
    <glyph glyph-name="registered" unicode="&#xae;" horiz-adv-x="818" 
d="M583 170l-83 128.999c22.667 6.66699 41 19 55 37s21.333 37.833 22 59.5s-3.33301 42.834 -12 63.501s-24.667 38 -48 52s-51.333 21 -84 21h-166v-362h103v108h42l60 -108h111zM368 442.999l68.998 0.000976562c9.33301 0 17.333 -2.83301 24 -8.5
s10.834 -12.5 12.501 -20.5s1.83398 -15.833 0.500977 -23.5s-5.33301 -14.334 -12 -20.001s-14.667 -8.5 -24 -8.5h-70v81zM412.998 721c114 0 203.333 -34 268 -102s97 -155.667 97 -263c0 -108 -32.333 -195.833 -97 -263.5s-154 -101.5 -268 -101.5
c-113.333 0 -204 34.167 -272 102.5s-102 155.833 -102 262.5c0 104 34.167 190.833 102.5 260.5s158.833 104.5 271.5 104.5zM148.998 356c0 -80 24.1689 -144.666 72.502 -193.999s112.166 -74 191.499 -74c80 0 142.667 24.167 188 72.5s68 113.5 68 195.5
s-22.667 147 -68 195s-108 72 -188 72c-78.667 0 -142.334 -24.833 -191.001 -74.5s-73 -113.834 -73 -192.501z" />
    <glyph glyph-name="macron" unicode="&#xaf;" horiz-adv-x="453" 
d="M45 561v140h350v-140h-350z" />
    <glyph glyph-name="degree" unicode="&#xb0;" horiz-adv-x="389" 
d="M195 708c50 0 89.167 -14.501 117.5 -43.501s42.5 -62.833 42.5 -101.5c0 -39.333 -14.167 -73.166 -42.5 -101.499s-68.166 -42.5 -119.499 -42.5c-50.667 0 -89.834 14 -117.501 42s-41.5 61.667 -41.5 101c0 38.667 14.167 72.667 42.5 102s67.833 44 118.5 44z
M194 606.999c-14.667 0 -26 -4.33301 -34 -13s-12 -19 -12 -31s4.16699 -22.167 12.5 -30.5s19.5 -12.5 33.5 -12.5s25.167 4.16699 33.5 12.5s12.5 18.5 12.5 30.5s-3.83301 22.333 -11.5 31s-19.167 13 -34.5 13z" />
    <glyph glyph-name="plusminus" unicode="&#xb1;" horiz-adv-x="563" 
d="M60 328v156h137v134h170v-134h136v-156h-136v-134h-170v134h-137zM58 -2v147h447v-147h-447z" />
    <glyph glyph-name="twosuperior" unicode="&#xb2;" horiz-adv-x="378" 
d="M142 636l-105 -0.00195312c0.666992 38.667 15.5 69.167 44.5 91.5s64.167 33.5 105.5 33.5c45.333 0 82.833 -11 112.5 -33s44.5 -53 44.5 -93c0 -17.333 -3.33301 -32.666 -10 -45.999s-13.834 -23.833 -21.501 -31.5s-19.334 -14.667 -35.001 -21s-28 -10.5 -37 -12.5
l-39.5 -9c-40 -8.66699 -61 -20.334 -63 -35.001h203v-102h-306v99c0 21.333 3.66699 39.333 11 54s18.833 26.334 34.5 35.001s28.834 14.834 39.501 18.501s26.334 7.83398 47.001 12.501l26.5 7c5 1.33301 11.5 3.66602 19.5 6.99902s13.5 6.83301 16.5 10.5
s4.5 8.16699 4.5 13.5c0 20.667 -15.333 31 -46 31c-26.667 0 -42 -10 -46 -30z" />
    <glyph glyph-name="threesuperior" unicode="&#xb3;" horiz-adv-x="384" 
d="M189 529h-61.999v80h58c33.333 0 50 10.333 50 31c0 18.667 -17 28 -51 28c-32 0 -50 -9.33301 -54 -28h-96c0 39.333 15.5 69.333 46.5 90s66.5 31 106.5 31c41.333 0 77.666 -10.167 108.999 -30.5s47 -50.833 47 -91.5c0 -14 -3.83301 -27.667 -11.5 -41
s-18.167 -23 -31.5 -29c35.333 -14 53 -40.667 53 -80c0 -30 -9.16699 -54.5 -27.5 -73.5s-38.833 -31.333 -61.5 -37s-48 -8.5 -76 -8.5c-44 0 -81.667 10.333 -113 31s-47.333 51.667 -48 93h112c2.66699 -18.667 18.667 -28 48 -28c14 0 26 2.66699 36 8s15 13.333 15 24
c0 20.667 -16.333 31 -49 31z" />
    <glyph glyph-name="acute" unicode="&#xb4;" horiz-adv-x="288" 
d="M276 701v-8l-109 -159h-161v6l77 161h193z" />
    <glyph glyph-name="paragraph" unicode="&#xb6;" horiz-adv-x="891" 
d="M456 532l-0.000976562 -732h-178v392c-85.333 0 -151.666 33 -198.999 99c-40 57.333 -55 122 -45 194c10 76 45.667 133.333 107 172c44.667 28.667 98.667 43 162 43h548v-168h-91v-732h-182v732h-122z" />
    <glyph glyph-name="periodcentered" unicode="&#xb7;" horiz-adv-x="298" 
d="M148 199c-32.667 0 -58.334 9.83301 -77.001 29.5s-28 41.5 -28 65.5s9.33301 45.833 28 65.5s44.334 29.5 77.001 29.5s58.334 -9.83301 77.001 -29.5s28 -41.5 28 -65.5s-9.33301 -45.833 -28 -65.5s-44.334 -29.5 -77.001 -29.5z" />
    <glyph glyph-name="cedilla" unicode="&#xb8;" horiz-adv-x="364" 
d="M42 -199l63 66.002c16 -16 36.167 -25.167 60.5 -27.5s40.166 6.16699 47.499 25.5c4.66699 17.333 -4 30.166 -26 38.499s-41.667 6.5 -59 -5.5l-28 21l42 110h118l-19 -53c42.667 -4.66699 72.834 -20.834 90.501 -48.501s20.834 -59.167 9.50098 -94.5
c-12.667 -38 -38.834 -65 -78.501 -81s-81 -19.167 -124 -9.5s-75.167 29.167 -96.5 58.5z" />
    <glyph glyph-name="onesuperior" unicode="&#xb9;" horiz-adv-x="286" 
d="M33 379v95h61v158c-4.66699 -0.666992 -13.167 -2.5 -25.5 -5.5s-20.833 -4.83301 -25.5 -5.5v93l158 42v-282h63v-95h-231z" />
    <glyph glyph-name="ordmasculine" unicode="&#xba;" horiz-adv-x="425" 
d="M35 181v124h356v-124h-356zM212 344c-58 0 -105 16 -141 48s-54 78 -54 138c0 59.333 17.833 104.5 53.5 135.5s82.834 46.5 141.501 46.5c59.333 0 106.666 -15.5 141.999 -46.5s53 -76.167 53 -135.5c0 -60 -18 -106 -54 -138s-83 -48 -141 -48zM212 469
c17.333 0 31.666 5.33301 42.999 16s17 25.667 17 45c0 18.667 -5.66699 33.5 -17 44.5s-25.666 16.5 -42.999 16.5c-16.667 0 -30.834 -5.5 -42.501 -16.5s-17.5 -25.833 -17.5 -44.5c0 -19.333 5.83301 -34.333 17.5 -45s25.834 -16 42.501 -16z" />
    <glyph glyph-name="guillemotright" unicode="&#xbb;" horiz-adv-x="557" 
d="M390 521l139 -222l-139 -222h-154l139 222l-139 223v-1h154zM185 521l139 -222l-139 -222h-153l139 222l-139 223v-1h153z" />
    <glyph glyph-name="onequarter" unicode="&#xbc;" horiz-adv-x="798" 
d="M584 372h136v-217h44v-95h-44v-60h-104v60h-193l-4 91zM616 155l-0.000976562 104l-39 -50c-17.333 -22.667 -31.666 -40.667 -42.999 -54h82zM254.999 -1h-121l388 705h123zM41.999 323v97h61v156c-30 -6 -47.333 -9.33301 -52 -10v92l160 42v-280h62v-97h-231z" />
    <glyph glyph-name="onehalf" unicode="&#xbd;" horiz-adv-x="812" 
d="M248 -2h-119l388 706h121zM39 322l0.000976562 97h61v156c-6 -1.33301 -15.833 -3.33301 -29.5 -6s-20.834 -4 -21.501 -4v93l159 42v-281h63v-97h-232zM574.001 253l-105 -0.00195312c0.666992 38 15.667 68.167 45 90.5s64.333 33.5 105 33.5
c46.667 0 84.5 -10.667 113.5 -32s43.5 -52.333 43.5 -93c0 -21.333 -4 -39.666 -12 -54.999s-20.167 -27.5 -36.5 -36.5s-30.666 -15.5 -42.999 -19.5s-28.833 -8.33301 -49.5 -13c-39.333 -7.33301 -61 -17 -65 -29h203v-104h-306v99c0 20.667 3.66699 38.334 11 53.001
s18.5 26.334 33.5 35.001s28.167 15 39.5 19s27 8.33301 47 13c16 3.33301 27.667 6.16602 35 8.49902s14.666 6 21.999 11s11 11.167 11 18.5c0 9.33301 -4.33301 16.5 -13 21.5s-19 7.5 -31 7.5c-28 0 -44 -9.33301 -48 -28z" />
    <glyph glyph-name="threequarters" unicode="&#xbe;" horiz-adv-x="842" 
d="M305 -6h-122l391 710h123zM629 372h135v-217h44v-95h-44v-60h-104v60h-193l-4 91zM660 155v104l-81 -104h81zM192 485h-60.002v77h56c32 0 48 10 48 30c0 18 -16.333 27 -49 27c-31.333 0 -48.666 -9 -51.999 -27h-93c0 38 15 67 45 87s64.333 30 103 30
c39.333 0 74.166 -9.83301 104.499 -29.5s45.5 -49.167 45.5 -88.5c0 -31.333 -13.667 -54 -41 -68c34 -13.333 51 -39 51 -77c0 -42 -15.667 -71.667 -47 -89s-68.666 -26 -111.999 -26c-42.667 0 -79.167 10 -109.5 30s-45.833 50 -46.5 90h108
c2.66699 -18 18.334 -27 47.001 -27c32.667 0 49 10.333 49 31c0 20 -15.667 30 -47 30z" />
    <glyph glyph-name="questiondown" unicode="&#xbf;" horiz-adv-x="594" 
d="M410 271h-193.999c-0.666992 -23.333 -7.33398 -44.166 -20.001 -62.499s-28 -33.833 -46 -46.5l-54 -39c-18 -13.333 -33.333 -30.166 -46 -50.499s-19 -43.833 -19 -70.5c0 -37.333 7.33301 -69.833 22 -97.5s35.167 -49.334 61.5 -65.001s55.5 -27.334 87.5 -35.001
s66.667 -11.5 104 -11.5c49.333 0 94 8.5 134 25.5s72 43.667 96 80s33.667 79.166 29 128.499h-176c0 -49.333 -27.667 -74 -83 -74c-24 0 -42.333 5.83301 -55 17.5s-18.667 25.834 -18 42.501c0.666992 19.333 16.667 38.333 48 57c17.333 10 29 17 35 21
s16.333 12.167 31 24.5s25.167 24.333 31.5 36s12.833 28 19.5 49s10.667 44.5 12 70.5zM311.001 506c33.333 0 59.332 -10.167 77.999 -30.5s28 -42.833 28 -67.5s-9.33301 -47.167 -28 -67.5s-44.667 -30.5 -78 -30.5s-59.666 10.167 -78.999 30.5s-29 42.833 -29 67.5
s9.5 47.167 28.5 67.5s45.5 30.5 79.5 30.5z" />
    <glyph glyph-name="Agrave" unicode="&#xc0;" horiz-adv-x="797" 
d="M600 0l-46 115h-313l-46 -115h-210l314 700h200l313 -700h-212zM487 281l-89 223l-90 -223h179zM212 911v8h193l77 -161v-6h-161z" />
    <glyph glyph-name="Aacute" unicode="&#xc1;" horiz-adv-x="797" 
d="M554 115l46 -115h212l-313 700h-200l-314 -700h210l46 115h313zM398 504l89 -223h-179zM591 919v-8l-109 -159h-161v6l77 161h193z" />
    <glyph glyph-name="Acircumflex" unicode="&#xc2;" horiz-adv-x="797" 
d="M554 115l46 -115h212l-313 700h-200l-314 -700h210l46 115h313zM398 504l89 -223h-179zM340 915h114l152 -157v-8h-158l-51 47l-51 -47h-158v8z" />
    <glyph glyph-name="Atilde" unicode="&#xc3;" horiz-adv-x="797" 
d="M600 0l-46 115h-313l-46 -115h-210l314 700h200l313 -700h-212zM487 281l-89 223l-90 -223h179zM391 771c-52.667 28.667 -87.668 24 -105.001 -14l-101 64c16.667 44.667 47 73.834 91 87.501s85.333 9.16699 124 -13.5c48.667 -26.667 84.334 -21 107.001 17l97 -63
c-18 -46 -46 -76.333 -84 -91s-81 -10.334 -129 12.999z" />
    <glyph glyph-name="Adieresis" unicode="&#xc4;" horiz-adv-x="797" 
d="M554 115l46 -115h212l-313 700h-200l-314 -700h210l46 115h313zM398 504l89 -223h-179zM158 830c0 26.667 9.16699 47.667 27.5 63s40.166 23 65.499 23s47.5 -7.66699 66.5 -23s28.5 -36.333 28.5 -63c0 -25.333 -9.5 -45.5 -28.5 -60.5s-41.167 -22.5 -66.5 -22.5
s-47.166 7.5 -65.499 22.5s-27.5 35.167 -27.5 60.5zM448 830c0 26.667 9.33301 47.667 28 63s41 23 67 23c24.667 0 46.5 -7.66699 65.5 -23s28.5 -36.333 28.5 -63c0 -25.333 -9.5 -45.5 -28.5 -60.5s-40.833 -22.5 -65.5 -22.5c-26 0 -48.333 7.5 -67 22.5
s-28 35.167 -28 60.5z" />
    <glyph glyph-name="Aring" unicode="&#xc5;" horiz-adv-x="797" 
d="M399 879c36 0 67 -8.33008 93 -24.9971s43.667 -36.834 53 -60.501s12.333 -48.834 9 -75.501s-14 -50 -32 -70l290 -648h-212l-46 115h-313l-46 -115h-210l292 650c-17.333 20 -27.666 43.333 -30.999 70s-0.333008 51.667 9 75s26.666 43.166 51.999 59.499
s56 24.5 92 24.5zM446 384.003l-48 146l-49 -146l-41 -103h179zM401 779.003c-19.333 0 -33 -7 -41 -21s-8 -28 0 -42s21.667 -21 41 -21c18.667 0 31.834 7 39.501 21s7.66699 28 0 42s-20.834 21 -39.501 21z" />
    <glyph glyph-name="AE" unicode="&#xc6;" horiz-adv-x="925" 
d="M-26 0v11l415 689h480v-158h-243v-110h226v-153h-226v-122h258v-157h-440v105h-208l-63 -105h-199zM335 278h109l3 116l12 124z" />
    <glyph glyph-name="Ccedilla" unicode="&#xc7;" horiz-adv-x="708" 
d="M217 -221l65.0039 63.999c16.667 -15.333 37.5 -24.166 62.5 -26.499s41.167 5.83398 48.5 24.501c4.66699 16.667 -4.16602 29 -26.499 37s-42.5 6.33301 -60.5 -5l-29 21l39 97c-94.667 17.333 -165.167 58.333 -211.5 123s-69.833 141.667 -70.5 231
c0 46 7.83301 90.667 23.5 134s38.5 82.833 68.5 118.5s70.167 64.334 120.5 86.001s107.166 32.5 170.499 32.5c104 0 194.333 -37.333 271 -112l-122 -120c-42.667 40.667 -92.334 61 -149.001 61c-62 0 -108.833 -20.5 -140.5 -61.5s-47.167 -87.5 -46.5 -139.5
c0.666992 -52.667 16.167 -98.167 46.5 -136.5s77.166 -57.5 140.499 -57.5c26 0 54.167 5.83301 84.5 17.5s57.166 29.5 80.499 53.5l116 -130c-69.333 -68.667 -157.333 -105 -264 -109l-12 -33c43.333 -4.66699 74.166 -20.334 92.499 -47.001
s21.833 -57.334 10.5 -92.001c-12.667 -36.667 -39.667 -62.667 -81 -78s-84 -18.333 -128 -9s-77 28 -99 56z" />
    <glyph glyph-name="Egrave" unicode="&#xc8;" horiz-adv-x="672" 
d="M631 167v-167h-560v700h546v-166h-351v-100h331v-161h-331v-106h365zM177 910v8h193l77 -161v-6h-161z" />
    <glyph glyph-name="Eacute" unicode="&#xc9;" horiz-adv-x="672" 
d="M631 0v167h-365v106h331v161h-331v100h351v166h-546v-700h560zM530 918v-8l-109 -159h-161v6l77 161h193z" />
    <glyph glyph-name="Ecircumflex" unicode="&#xca;" horiz-adv-x="672" 
d="M631 0v167h-365v106h331v161h-331v100h351v166h-546v-700h560zM296 912h114l152 -157v-8h-158l-51 47l-51 -47h-158v8z" />
    <glyph glyph-name="Edieresis" unicode="&#xcb;" horiz-adv-x="672" 
d="M631 0v167h-365v106h331v161h-331v100h351v166h-546v-700h560zM112 836c0 26.667 9.16699 47.667 27.5 63s40.166 23 65.499 23s47.5 -7.66699 66.5 -23s28.5 -36.333 28.5 -63c0 -25.333 -9.5 -45.5 -28.5 -60.5s-41.167 -22.5 -66.5 -22.5s-47.166 7.5 -65.499 22.5
s-27.5 35.167 -27.5 60.5zM402 836c0 26.667 9.33301 47.667 28 63s41 23 67 23c24.667 0 46.5 -7.66699 65.5 -23s28.5 -36.333 28.5 -63c0 -25.333 -9.5 -45.5 -28.5 -60.5s-40.833 -22.5 -65.5 -22.5c-26 0 -48.333 7.5 -67 22.5s-28 35.167 -28 60.5z" />
    <glyph glyph-name="Igrave" unicode="&#xcc;" horiz-adv-x="339" 
d="M268 0h-197v700h197v-700zM-9 910v8h193l77 -161v-6h-161z" />
    <glyph glyph-name="Iacute" unicode="&#xcd;" horiz-adv-x="339" 
d="M71 0h197v700h-197v-700zM350 916v-8l-109 -159h-161v6l77 161h193z" />
    <glyph glyph-name="Icircumflex" unicode="&#xce;" horiz-adv-x="339" 
d="M71 0h197v700h-197v-700zM115 915h114l152 -157v-8h-158l-51 47l-51 -47h-158v8z" />
    <glyph glyph-name="Idieresis" unicode="&#xcf;" horiz-adv-x="339" 
d="M-50 847c0 26.667 9.16699 47.667 27.5 63s40.166 23 65.499 23s47.5 -7.66699 66.5 -23s28.5 -36.333 28.5 -63c0 -25.333 -9.5 -45.5 -28.5 -60.5s-41.167 -22.5 -66.5 -22.5s-47.166 7.5 -65.499 22.5s-27.5 35.167 -27.5 60.5zM213 847
c0 26.667 9.33301 47.667 28 63s41 23 67 23c24.667 0 46.5 -7.66699 65.5 -23s28.5 -36.333 28.5 -63c0 -25.333 -9.5 -45.5 -28.5 -60.5s-40.833 -22.5 -65.5 -22.5c-26 0 -48.333 7.5 -67 22.5s-28 35.167 -28 60.5zM71 0h197v700h-197v-700z" />
    <glyph glyph-name="Eth" unicode="&#xd0;" horiz-adv-x="773" 
d="M7 281l0.000976562 142.001h78v277h279c117.333 0 209.166 -31.833 275.499 -95.5s99.5 -144.834 99.5 -243.501c0 -104.667 -32 -191 -96 -259s-157 -102 -279 -102h-279v281h-78zM276.001 281.001v-119h88c59.333 0 103.833 17.333 133.5 52s44.834 83.667 45.501 147
c0.666992 60 -14.333 105.167 -45 135.5s-75.334 45.5 -134.001 45.5h-88v-119h121v-142h-121z" />
    <glyph glyph-name="Ntilde" unicode="&#xd1;" horiz-adv-x="799" 
d="M239 700l296 -383.001c-1.33301 20.667 -3.33301 68.334 -6 143.001v240h199v-700h-168l-292 377l3 -153v-224h-200v700h168zM387 784.999c-55.333 31.333 -92.335 26.332 -111.002 -15.001l-107 68c17.333 47.333 49.5 78.166 96.5 92.499s90.833 9.83301 131.5 -13.5
c51.333 -28.667 89.333 -22.667 114 18l103 -67c-19.333 -49.333 -49.166 -81.666 -89.499 -96.999s-86.166 -10.666 -137.499 14.001z" />
    <glyph glyph-name="Ograve" unicode="&#xd2;" horiz-adv-x="842" 
d="M810 350c0 -114.667 -35.5 -204.5 -106.5 -269.5s-165.167 -97.5 -282.5 -97.5c-116.667 0 -210.667 32.5 -282 97.5s-107 154.833 -107 269.5c0 113.333 35.833 202.833 107.5 268.5s165.5 98.5 281.5 98.5c117.333 0 211.5 -32.5 282.5 -97.5
s106.5 -154.833 106.5 -269.5zM612 350c0 60 -17.333 108 -52 144s-81 54 -139 54c-56.667 0 -102.667 -18.5 -138 -55.5s-53 -84.5 -53 -142.5c0 -58.667 17.833 -106.334 53.5 -143.001s81.5 -55 137.5 -55c57.333 0 103.5 18.333 138.5 55s52.5 84.334 52.5 143.001z
M247 928v8h193l77 -161v-6h-161z" />
    <glyph glyph-name="Oacute" unicode="&#xd3;" horiz-adv-x="842" 
d="M810 350c0 114.667 -35.5 204.5 -106.5 269.5s-165.167 97.5 -282.5 97.5c-116 0 -209.833 -32.833 -281.5 -98.5s-107.5 -155.167 -107.5 -268.5c0 -114.667 35.667 -204.5 107 -269.5s165.333 -97.5 282 -97.5c117.333 0 211.5 32.5 282.5 97.5
s106.5 154.833 106.5 269.5zM612 350c0 -58.667 -17.5 -106.334 -52.5 -143.001s-81.167 -55 -138.5 -55c-56 0 -101.833 18.333 -137.5 55s-53.5 84.334 -53.5 143.001c0 58 17.667 105.5 53 142.5s81.333 55.5 138 55.5c58 0 104.333 -18 139 -54s52 -84 52 -144zM602 936
v-8l-109 -159h-161v6l77 161h193z" />
    <glyph glyph-name="Ocircumflex" unicode="&#xd4;" horiz-adv-x="842" 
d="M810 350c0 114.667 -35.5 204.5 -106.5 269.5s-165.167 97.5 -282.5 97.5c-116 0 -209.833 -32.833 -281.5 -98.5s-107.5 -155.167 -107.5 -268.5c0 -114.667 35.667 -204.5 107 -269.5s165.333 -97.5 282 -97.5c117.333 0 211.5 32.5 282.5 97.5
s106.5 154.833 106.5 269.5zM612 350c0 -58.667 -17.5 -106.334 -52.5 -143.001s-81.167 -55 -138.5 -55c-56 0 -101.833 18.333 -137.5 55s-53.5 84.334 -53.5 143.001c0 58 17.667 105.5 53 142.5s81.333 55.5 138 55.5c58 0 104.333 -18 139 -54s52 -84 52 -144zM367 928
h114l152 -157v-8h-158l-51 47l-51 -47h-158v8z" />
    <glyph glyph-name="Otilde" unicode="&#xd5;" horiz-adv-x="842" 
d="M810 350c0 -114.667 -35.5 -204.5 -106.5 -269.5s-165.167 -97.5 -282.5 -97.5c-116.667 0 -210.667 32.5 -282 97.5s-107 154.833 -107 269.5c0 113.333 35.833 202.833 107.5 268.5s165.5 98.5 281.5 98.5c117.333 0 211.5 -32.5 282.5 -97.5
s106.5 -154.833 106.5 -269.5zM612 350c0 60 -17.333 108 -52 144s-81 54 -139 54c-56.667 0 -102.667 -18.5 -138 -55.5s-53 -84.5 -53 -142.5c0 -58.667 17.833 -106.334 53.5 -143.001s81.5 -55 137.5 -55c57.333 0 103.5 18.333 138.5 55s52.5 84.334 52.5 143.001z
M419 788c-54.667 30.667 -91.332 26 -109.999 -14l-106 67c17.333 46.667 49.166 77 95.499 91s89.833 9.33301 130.5 -14c22 -14 42.667 -20 62 -18s36 14 50 36l101 -66c-18 -48 -47 -79.667 -87 -95s-85.333 -11 -136 13z" />
    <glyph glyph-name="Odieresis" unicode="&#xd6;" horiz-adv-x="842" 
d="M810 350c0 114.667 -35.5 204.5 -106.5 269.5s-165.167 97.5 -282.5 97.5c-116 0 -209.833 -32.833 -281.5 -98.5s-107.5 -155.167 -107.5 -268.5c0 -114.667 35.667 -204.5 107 -269.5s165.333 -97.5 282 -97.5c117.333 0 211.5 32.5 282.5 97.5
s106.5 154.833 106.5 269.5zM612 350c0 -58.667 -17.5 -106.334 -52.5 -143.001s-81.167 -55 -138.5 -55c-56 0 -101.833 18.333 -137.5 55s-53.5 84.334 -53.5 143.001c0 58 17.667 105.5 53 142.5s81.333 55.5 138 55.5c58 0 104.333 -18 139 -54s52 -84 52 -144zM184 843
c0 26.667 9.16699 47.667 27.5 63s40.166 23 65.499 23s47.5 -7.66699 66.5 -23s28.5 -36.333 28.5 -63c0 -25.333 -9.5 -45.5 -28.5 -60.5s-41.167 -22.5 -66.5 -22.5s-47.166 7.5 -65.499 22.5s-27.5 35.167 -27.5 60.5zM474 843c0 26.667 9.33301 47.667 28 63
s41 23 67 23c24.667 0 46.5 -7.66699 65.5 -23s28.5 -36.333 28.5 -63c0 -25.333 -9.5 -45.5 -28.5 -60.5s-40.833 -22.5 -65.5 -22.5c-26 0 -48.333 7.5 -67 22.5s-28 35.167 -28 60.5z" />
    <glyph glyph-name="multiply" unicode="&#xd7;" horiz-adv-x="476" 
d="M161 508l79 -84.001l83 85l111 -111l-87 -89l87 -87l-113 -106l-83 84c-42 -43.333 -69 -71.666 -81 -84.999l-116 114l84 83l-81 83z" />
    <glyph glyph-name="Oslash" unicode="&#xd8;" horiz-adv-x="842" 
d="M610 769h172.999l-91 -140c78.667 -66 118 -159 118 -279c0 -114.667 -35.5 -204.5 -106.5 -269.5s-165.167 -97.5 -282.5 -97.5c-47.333 0 -92.666 5.66699 -135.999 17l-48 -74h-171l90 139c-82.667 66.667 -124 161.667 -124 285
c0 113.333 35.833 202.833 107.5 268.5s165.5 98.5 281.5 98.5c50.667 0 98 -6.66699 142 -20zM420.999 548c-56.667 0 -102.666 -18.501 -137.999 -55.501s-53 -84.5 -53 -142.5c0 -45.333 11 -84.666 33 -117.999l202 312c-18.667 2.66699 -33.334 4 -44.001 4z
M612 349.999c0 42.667 -9.33301 79.999 -28 111.999l-199 -307c12 -2 24 -3 36 -3c57.333 0 103.5 18.333 138.5 55s52.5 84.334 52.5 143.001z" />
    <glyph glyph-name="Ugrave" unicode="&#xd9;" horiz-adv-x="780" 
d="M523 699l197 -0.000976562v-391c0.666992 -102.667 -28.333 -182.167 -87 -238.5s-139.667 -84.5 -243 -84.5c-104 0 -185 27.833 -243 83.5s-87 136.167 -87 241.5v389h197v-389c0 -53.333 11.667 -92.666 35 -117.999s56 -38 98 -38c41.333 0 73.833 12.833 97.5 38.5
s35.5 64.167 35.5 115.5v391zM216 916.999v8h193l77 -161v-6h-161z" />
    <glyph glyph-name="Uacute" unicode="&#xda;" horiz-adv-x="780" 
d="M720 699l-197 0.000976562v-391c0 -51.333 -11.833 -89.833 -35.5 -115.5s-56.167 -38.5 -97.5 -38.5c-42 0 -74.667 12.667 -98 38s-35 64.666 -35 117.999v389h-197v-389c0 -105.333 29 -185.833 87 -241.5s139 -83.5 243 -83.5c103.333 0 184.333 28.167 243 84.5
s87.667 135.833 87 238.5v391zM567 924.001v-8l-109 -159h-161v6l77 161h193z" />
    <glyph glyph-name="Ucircumflex" unicode="&#xdb;" horiz-adv-x="780" 
d="M720 699l-197 0.000976562v-391c0 -51.333 -11.833 -89.833 -35.5 -115.5s-56.167 -38.5 -97.5 -38.5c-42 0 -74.667 12.667 -98 38s-35 64.666 -35 117.999v389h-197v-389c0 -105.333 29 -185.833 87 -241.5s139 -83.5 243 -83.5c103.333 0 184.333 28.167 243 84.5
s87.667 135.833 87 238.5v391zM336 929.001h114l152 -157v-8h-158l-51 47l-51 -47h-158v8z" />
    <glyph glyph-name="Udieresis" unicode="&#xdc;" horiz-adv-x="780" 
d="M720 699l-197 0.000976562v-391c0 -51.333 -11.833 -89.833 -35.5 -115.5s-56.167 -38.5 -97.5 -38.5c-42 0 -74.667 12.667 -98 38s-35 64.666 -35 117.999v389h-197v-389c0 -105.333 29 -185.833 87 -241.5s139 -83.5 243 -83.5c103.333 0 184.333 28.167 243 84.5
s87.667 135.833 87 238.5v391zM148 848.001c0 26.667 9.16699 47.667 27.5 63s40.166 23 65.499 23s47.5 -7.66699 66.5 -23s28.5 -36.333 28.5 -63c0 -25.333 -9.5 -45.5 -28.5 -60.5s-41.167 -22.5 -66.5 -22.5s-47.166 7.5 -65.499 22.5s-27.5 35.167 -27.5 60.5z
M438 848.001c0 26.667 9.33301 47.667 28 63s41 23 67 23c24.667 0 46.5 -7.66699 65.5 -23s28.5 -36.333 28.5 -63c0 -25.333 -9.5 -45.5 -28.5 -60.5s-40.833 -22.5 -65.5 -22.5c-26 0 -48.333 7.5 -67 22.5s-28 35.167 -28 60.5z" />
    <glyph glyph-name="Yacute" unicode="&#xdd;" horiz-adv-x="722" 
d="M362 460l-145 240h-223v-8l266 -413v-279h198v279l278 412v9h-223zM545 924v-8l-109 -159h-161v6l77 161h193z" />
    <glyph glyph-name="Thorn" unicode="&#xde;" horiz-adv-x="696" 
d="M70 0l1 700h196v-108h134c88.667 0 157.5 -23.833 206.5 -71.5s73.5 -104.167 73.5 -169.5s-24.5 -121.833 -73.5 -169.5s-117.833 -71.5 -206.5 -71.5h-134v-110h-197zM267 427v-155.001h134c26.667 0 47.334 7.66699 62.001 23s22 33.333 22 54
s-7.33301 38.834 -22 54.501s-35.334 23.5 -62.001 23.5h-134z" />
    <glyph glyph-name="germandbls" unicode="&#xdf;" horiz-adv-x="634" 
d="M290 -5l0.00195312 146c18.667 -4 32.667 -6 42 -6c56.667 0 85 29.667 85 89c0 29.333 -9.16699 49.166 -27.5 59.499s-42.833 15.5 -73.5 15.5h-26v161h16c20.667 0 36.667 4.33301 48 13s17 20.667 17 36s-5.83301 27.333 -17.5 36s-25.167 13 -40.5 13
c-20 0 -35.833 -4.83301 -47.5 -14.5s-17.834 -22.834 -18.501 -39.501v-504h-193v507c0 62.667 26 112.334 78 149.001s112.667 55 182 55c68.667 0 127.167 -16.167 175.5 -48.5s72.5 -81.5 72.5 -147.5c0 -57.333 -29.333 -99.666 -88 -126.999
c89.333 -32.667 134 -91.667 134 -177c0 -71.333 -23 -126 -69 -164s-105.333 -57 -178 -57c-26.667 0 -50.334 1.66699 -71.001 5z" />
    <glyph glyph-name="agrave" unicode="&#xe0;" horiz-adv-x="648" 
d="M412 441l9.00098 53.001h173v-494h-170l-8 53c-20 -22.667 -44.667 -39 -74 -49s-59 -14.333 -89 -13c-71.333 4.66699 -126.833 30.167 -166.5 76.5s-59.5 106.166 -59.5 179.499c0 74 22.167 135.5 66.5 184.5s102.166 73.5 173.499 73.5c68.667 0 117 -21.333 145 -64
zM309.001 356.001c-28.667 0 -52.334 -9.83398 -71.001 -29.501s-28 -46.167 -28 -79.5s9.33301 -59.666 28 -78.999s42.334 -29 71.001 -29c30 0 54.5 10.5 73.5 31.5s28.5 46.5 28.5 76.5c0 33.333 -9 59.833 -27 79.5s-43 29.5 -75 29.5zM165.001 708v7h189l76 -158v-6
h-158z" />
    <glyph glyph-name="aacute" unicode="&#xe1;" horiz-adv-x="648" 
d="M421 494l-9.00098 -53.001c-28 42.667 -76.333 64 -145 64c-71.333 0 -129.166 -24.5 -173.499 -73.5s-66.5 -110.5 -66.5 -184.5c0 -73.333 19.833 -133.166 59.5 -179.499s95.167 -71.833 166.5 -76.5c30 -1.33301 59.667 3 89 13s54 26.333 74 49l8 -53h170v494h-173z
M308.999 355.999c32 0 57 -9.83203 75 -29.499s27 -46.167 27 -79.5c0 -30 -9.5 -55.5 -28.5 -76.5s-43.5 -31.5 -73.5 -31.5c-28.667 0 -52.334 9.66699 -71.001 29s-28 45.666 -28 78.999s9.33301 59.833 28 79.5s42.334 29.5 71.001 29.5zM497.999 714v-8l-107 -155h-157
v6l75 157h189z" />
    <glyph glyph-name="acircumflex" unicode="&#xe2;" horiz-adv-x="648" 
d="M421 494l-9.00098 -53.001c-28 42.667 -76.333 64 -145 64c-71.333 0 -129.166 -24.5 -173.499 -73.5s-66.5 -110.5 -66.5 -184.5c0 -73.333 19.833 -133.166 59.5 -179.499s95.167 -71.833 166.5 -76.5c30 -1.33301 59.667 3 89 13s54 26.333 74 49l8 -53h170v494h-173z
M308.999 355.999c32 0 57 -9.83203 75 -29.499s27 -46.167 27 -79.5c0 -30 -9.5 -55.5 -28.5 -76.5s-43.5 -31.5 -73.5 -31.5c-28.667 0 -52.334 9.66699 -71.001 29s-28 45.666 -28 78.999s9.33301 59.833 28 79.5s42.334 29.5 71.001 29.5zM273.999 715h114l152 -157v-8
h-158l-51 47l-51 -47h-158v8z" />
    <glyph glyph-name="atilde" unicode="&#xe3;" horiz-adv-x="648" 
d="M412 441l9.00098 53.001h173v-494h-170l-8 53c-20 -22.667 -44.667 -39 -74 -49s-59 -14.333 -89 -13c-71.333 4.66699 -126.833 30.167 -166.5 76.5s-59.5 106.166 -59.5 179.499c0 74 22.167 135.5 66.5 184.5s102.166 73.5 173.499 73.5c68.667 0 117 -21.333 145 -64
zM309.001 356.001c-28.667 0 -52.334 -9.83398 -71.001 -29.501s-28 -46.167 -28 -79.5s9.33301 -59.666 28 -78.999s42.334 -29 71.001 -29c30 0 54.5 10.5 73.5 31.5s28.5 46.5 28.5 76.5c0 33.333 -9 59.833 -27 79.5s-43 29.5 -75 29.5zM323.001 573
c-50.667 30 -84.3359 25.332 -101.003 -14.001l-97 66c10.667 30 27.834 53.5 51.501 70.5s48.834 25.333 75.501 25s53.334 -7.16602 80.001 -20.499c46.667 -26.667 81 -20.667 103 18l93 -65c-17.333 -47.333 -44.333 -78.5 -81 -93.5s-78 -10.5 -124 13.5z" />
    <glyph glyph-name="adieresis" unicode="&#xe4;" horiz-adv-x="648" 
d="M122 635c0 26.667 9.16699 47.667 27.5 63s40.166 23 65.499 23s47.5 -7.66699 66.5 -23s28.5 -36.333 28.5 -63c0 -25.333 -9.5 -45.5 -28.5 -60.5s-41.167 -22.5 -66.5 -22.5s-47.166 7.5 -65.499 22.5s-27.5 35.167 -27.5 60.5zM378 635
c0 26.667 9.33301 47.667 28 63s41 23 67 23c24.667 0 46.5 -7.66699 65.5 -23s28.5 -36.333 28.5 -63c0 -25.333 -9.5 -45.5 -28.5 -60.5s-40.833 -22.5 -65.5 -22.5c-26 0 -48.333 7.5 -67 22.5s-28 35.167 -28 60.5zM421 494l-9.00098 -53.001
c-28 42.667 -76.333 64 -145 64c-71.333 0 -129.166 -24.5 -173.499 -73.5s-66.5 -110.5 -66.5 -184.5c0 -73.333 19.833 -133.166 59.5 -179.499s95.167 -71.833 166.5 -76.5c30 -1.33301 59.667 3 89 13s54 26.333 74 49l8 -53h170v494h-173zM308.999 355.999
c32 0 57 -9.83203 75 -29.499s27 -46.167 27 -79.5c0 -30 -9.5 -55.5 -28.5 -76.5s-43.5 -31.5 -73.5 -31.5c-28.667 0 -52.334 9.66699 -71.001 29s-28 45.666 -28 78.999s9.33301 59.833 28 79.5s42.334 29.5 71.001 29.5z" />
    <glyph glyph-name="aring" unicode="&#xe5;" horiz-adv-x="648" 
d="M412 441l9.00098 53.001h173v-494h-170l-8 53c-20 -22.667 -44.667 -39 -74 -49s-59 -14.333 -89 -13c-71.333 4.66699 -126.833 30.167 -166.5 76.5s-59.5 106.166 -59.5 179.499c0 74 22.167 135.5 66.5 184.5s102.166 73.5 173.499 73.5c68.667 0 117 -21.333 145 -64
zM309.001 356.001c-28.667 0 -52.334 -9.83398 -71.001 -29.501s-28 -46.167 -28 -79.5s9.33301 -59.666 28 -78.999s42.334 -29 71.001 -29c30 0 54.5 10.5 73.5 31.5s28.5 46.5 28.5 76.5c0 33.333 -9 59.833 -27 79.5s-43 29.5 -75 29.5zM322.001 788
c32 0 59.6689 -6 83.002 -18s40.333 -27.167 51 -45.5s16 -38 16 -59s-5.16699 -40.667 -15.5 -59s-27.333 -33.5 -51 -45.5s-51.5 -18 -83.5 -18c-31.333 0 -58.5 6 -81.5 18s-39.833 27.167 -50.5 45.5s-16 38 -16 59s5.16699 40.667 15.5 59s27.166 33.5 50.499 45.5
s50.666 18 81.999 18zM323.003 700c-17.333 0 -29.5 -5.66699 -36.5 -17s-7 -22.666 0 -33.999s19.167 -17 36.5 -17s29.5 5.66699 36.5 17s7 22.666 0 33.999s-19.167 17 -36.5 17z" />
    <glyph glyph-name="ae" unicode="&#xe6;" horiz-adv-x="946" 
d="M315 356c-28.667 0 -52.334 -9.83398 -71.001 -29.501s-28 -46.167 -28 -79.5s9.33301 -59.666 28 -78.999s42.334 -29 71.001 -29c30.667 0 55.667 9.5 75 28.5s29 43.833 29 74.5c0 36 -9.16699 64 -27.5 84s-43.833 30 -76.5 30zM573 312.999h182
c-1.33301 24.667 -16.333 42.167 -45 52.5s-57.667 10.5 -87 0.5s-46 -27.667 -50 -53zM910 194.999l-337.997 0.000976562c6 -20 20.5 -35.5 43.5 -46.5s46.167 -16.5 69.5 -16.5c49.333 0 91.666 13.333 126.999 40l90 -101c-58.667 -54.667 -133.667 -82 -225 -82
c-62.667 0 -108.334 18.667 -137.001 56l-3 -45h-113l-8 53c-20 -22.667 -44.667 -39 -74 -49s-59 -14.333 -89 -13c-71.333 4.66699 -126.833 30.167 -166.5 76.5s-59.5 106.166 -59.5 179.499c0 74 22.167 135.5 66.5 184.5s102.166 73.5 173.499 73.5
c68.667 0 117 -21.333 145 -64l9 53h116l3 -41c42 34.667 91.333 51.334 148 50.001c77.333 -0.666992 138.833 -28.834 184.5 -84.501s58.167 -130.167 37.5 -223.5z" />
    <glyph glyph-name="ccedilla" unicode="&#xe7;" horiz-adv-x="520" 
d="M406 184l105 -110.001c-56 -49.333 -116 -77 -180 -83l-16 -42c43.333 -4.66699 74 -19.5 92 -44.5s21.667 -53.5 11 -85.5c-12.667 -36 -39.167 -62 -79.5 -78s-82.333 -19.5 -126 -10.5s-76.5 27.833 -98.5 56.5l64 61c16 -14.667 36.333 -23.167 61 -25.5
s40.667 5.5 48 23.5c2.66699 10.667 -0.833008 19.834 -10.5 27.501s-21.334 11.834 -35.001 12.501s-27.167 -2.33301 -40.5 -9l-28 19l43 104c-57.333 14 -103.166 41.333 -137.499 82s-51.5 95.334 -51.5 164.001c0 43.333 7.83301 82 23.5 116s36.667 61.167 63 81.5
s55.666 35.666 87.999 45.999s66.5 15.5 102.5 15.5c78 0 142.667 -25.667 194 -77l-98 -106c-23.333 24 -51.666 36 -84.999 36c-34 0 -60.5 -10.667 -79.5 -32s-28.5 -48.333 -28.5 -81c0 -28.667 9.5 -52.834 28.5 -72.501s45.167 -29.5 78.5 -29.5
c36 0 66.667 13.667 92 41z" />
    <glyph glyph-name="egrave" unicode="&#xe8;" horiz-adv-x="590" 
d="M214 313h179c-1.33301 24.667 -16 42.167 -44 52.5s-56.5 10.5 -85.5 0.5s-45.5 -27.667 -49.5 -53zM302 506c90.667 0 161.169 -28.167 211.502 -84.5s65.166 -131.833 44.499 -226.5h-345c6 -20 20 -35.5 42 -46.5s44.667 -16.5 68 -16.5
c49.333 0 91.666 13.333 126.999 40l90 -101c-58.667 -54.667 -133.667 -82 -225 -82c-84 0 -153 21.5 -207 64.5s-81 107.167 -81 192.5c0 84 27.333 148.333 82 193s119 67 193 67zM143.002 707v8h187l75 -156v-6h-156z" />
    <glyph glyph-name="eacute" unicode="&#xe9;" horiz-adv-x="590" 
d="M214 313h179c-1.33301 24.667 -16 42.167 -44 52.5s-56.5 10.5 -85.5 0.5s-45.5 -27.667 -49.5 -53zM302 506c90.667 0 161.169 -28.167 211.502 -84.5s65.166 -131.833 44.499 -226.5h-345c6 -20 20 -35.5 42 -46.5s44.667 -16.5 68 -16.5
c49.333 0 91.666 13.333 126.999 40l90 -101c-58.667 -54.667 -133.667 -82 -225 -82c-84 0 -153 21.5 -207 64.5s-81 107.167 -81 192.5c0 84 27.333 148.333 82 193s119 67 193 67zM481.002 714v-8l-106 -154h-156v6l75 156h187z" />
    <glyph glyph-name="ecircumflex" unicode="&#xea;" horiz-adv-x="590" 
d="M214 313h179c-1.33301 24.667 -16 42.167 -44 52.5s-56.5 10.5 -85.5 0.5s-45.5 -27.667 -49.5 -53zM302 506c90.667 0 161.169 -28.167 211.502 -84.5s65.166 -131.833 44.499 -226.5h-345c6 -20 20 -35.5 42 -46.5s44.667 -16.5 68 -16.5
c49.333 0 91.666 13.333 126.999 40l90 -101c-58.667 -54.667 -133.667 -82 -225 -82c-84 0 -153 21.5 -207 64.5s-81 107.167 -81 192.5c0 84 27.333 148.333 82 193s119 67 193 67zM247.002 711h114l152 -157v-8h-158l-51 47l-51 -47h-158v8z" />
    <glyph glyph-name="edieresis" unicode="&#xeb;" horiz-adv-x="590" 
d="M106 635c0 25.333 8.83301 45.333 26.5 60s38.167 22 61.5 22c24 0 45 -7.33301 63 -22s27 -34.667 27 -60c0 -24 -9 -43.167 -27 -57.5s-39 -21.5 -63 -21.5c-23.333 0 -43.833 7.16699 -61.5 21.5s-26.5 33.5 -26.5 57.5zM350 635c0 25.333 8.83301 45.333 26.5 60
s38.834 22 63.501 22c23.333 0 44 -7.33301 62 -22s27 -34.667 27 -60c0 -24 -9 -43.167 -27 -57.5s-38.667 -21.5 -62 -21.5c-24.667 0 -45.834 7.16699 -63.501 21.5s-26.5 33.5 -26.5 57.5zM214 313h179c-1.33301 24.667 -16 42.167 -44 52.5s-56.5 10.5 -85.5 0.5
s-45.5 -27.667 -49.5 -53zM302 506c90.667 0 161.169 -28.167 211.502 -84.5s65.166 -131.833 44.499 -226.5h-345c6 -20 20 -35.5 42 -46.5s44.667 -16.5 68 -16.5c49.333 0 91.666 13.333 126.999 40l90 -101c-58.667 -54.667 -133.667 -82 -225 -82
c-84 0 -153 21.5 -207 64.5s-81 107.167 -81 192.5c0 84 27.333 148.333 82 193s119 67 193 67z" />
    <glyph glyph-name="igrave" unicode="&#xec;" horiz-adv-x="292" 
d="M0 698v8h171l52 -157v-6h-149zM238 0h-184v494h184v-494z" />
    <glyph glyph-name="iacute" unicode="&#xed;" horiz-adv-x="292" 
d="M283 706v-8l-74 -155h-154v6l57 157h171zM54 0h184v494h-184v-494z" />
    <glyph glyph-name="icircumflex" unicode="&#xee;" horiz-adv-x="292" 
d="M91 709h101l134 -159v-8h-142l-43 45l-45 -45h-140v8zM54 0h184v494h-184v-494z" />
    <glyph glyph-name="idieresis" unicode="&#xef;" horiz-adv-x="292" 
d="M-55 619c0 27.333 8.66699 49 26 65s38 24 62 24s45 -8 63 -24s27 -37.667 27 -65c0 -26 -9 -46.667 -27 -62s-39 -23 -63 -23s-44.667 7.66699 -62 23s-26 36 -26 62zM165 619c0 27.333 9 49 27 65s39 24 63 24s44.833 -8 62.5 -24s26.5 -37.667 26.5 -65
c0 -26 -8.83301 -46.667 -26.5 -62s-38.5 -23 -62.5 -23s-45 7.66699 -63 23s-27 36 -27 62zM54 0h184v494h-184v-494z" />
    <glyph glyph-name="eth" unicode="&#xf0;" horiz-adv-x="585" 
d="M294 656l53 63l103 -79l-43 -50c54 -42 92.667 -93.167 116 -153.5s34 -122.5 32 -186.5c-4.66699 -79.333 -28.667 -142.166 -72 -188.499s-107.333 -69.5 -192 -69.5c-83.333 0 -148.166 24.167 -194.499 72.5s-69.5 106.166 -69.5 173.499
c0 71.333 23 129.833 69 175.5s105.667 68.5 179 68.5c14 0 24.667 -0.333008 32 -1c-50.667 44 -116.334 71 -197.001 81l28 131c64 -8 116 -20.333 156 -37zM291 141c27.333 0 48.834 10.167 64.501 30.5s23.667 42.666 24 66.999s-7.33398 46.666 -23.001 66.999
s-37.5 30.5 -65.5 30.5c-26.667 0 -47.667 -10.167 -63 -30.5s-23 -42.666 -23 -66.999s7.5 -46.666 22.5 -66.999s36.167 -30.5 63.5 -30.5z" />
    <glyph glyph-name="ntilde" unicode="&#xf1;" 
d="M574 0h-184.001v273c0 28 -6.66699 48.667 -20 62s-29.666 20 -48.999 20c-24 0 -44.167 -8.16699 -60.5 -24.5s-24.5 -39.833 -24.5 -70.5v-260h-182v494h163l8 -54c38.667 45.333 90.667 67.333 156 66c58 -0.666992 104.667 -19 140 -55s53 -95 53 -177v-274z
M314.999 585c-46.667 30 -77.999 25.3359 -93.999 -13.9971l-91 65c15.333 45.333 42.666 74.666 81.999 87.999s76.333 8.66602 111 -14.001c19.333 -13.333 37.333 -19.166 54 -17.499s31 13.5 43 35.5l87 -64c-16 -46.667 -41 -77.334 -75 -92.001
s-73 -10.334 -117 12.999z" />
    <glyph glyph-name="ograve" unicode="&#xf2;" horiz-adv-x="618" 
d="M309 505c79.333 0 146.168 -22 200.501 -66s81.5 -108.333 81.5 -193c0 -84 -27.833 -148 -83.5 -192s-121.834 -66 -198.501 -66c-36.667 0 -71.5 5.16699 -104.5 15.5s-62.833 25.5 -89.5 45.5s-48 47 -64 81s-24 72.667 -24 116c0 58 13.833 107.167 41.5 147.5
s62.167 69 103.5 86s87 25.5 137 25.5zM309.002 139c30.667 0 55.332 10.167 73.999 30.5s28 45.833 28 76.5c0 30 -9.16699 55.5 -27.5 76.5s-43.166 31.5 -74.499 31.5s-56.166 -10.5 -74.499 -31.5s-27.5 -46.5 -27.5 -76.5s9.16699 -55.333 27.5 -76
s43.166 -31 74.499 -31zM138 709v7h194l77 -153v-6h-162z" />
    <glyph glyph-name="oacute" unicode="&#xf3;" horiz-adv-x="618" 
d="M309 505c-50 0 -95.6689 -8.5 -137.002 -25.5s-75.833 -45.667 -103.5 -86s-41.5 -89.5 -41.5 -147.5c0 -43.333 8 -82 24 -116s37.333 -61 64 -81s56.5 -35.167 89.5 -45.5s67.833 -15.5 104.5 -15.5c76.667 0 142.834 22 198.501 66s83.5 108 83.5 192
c0 84.667 -27.167 149 -81.5 193s-121.166 66 -200.499 66zM308.998 139c-31.333 0 -56.1641 10.333 -74.4971 31s-27.5 46 -27.5 76s9.16699 55.5 27.5 76.5s43.166 31.5 74.499 31.5s56.166 -10.5 74.499 -31.5s27.5 -46.5 27.5 -76.5
c0 -30.667 -9.33301 -56.167 -28 -76.5s-43.334 -30.5 -74.001 -30.5zM477 713v-8l-107 -153h-157v6l75 155h189z" />
    <glyph glyph-name="ocircumflex" unicode="&#xf4;" horiz-adv-x="618" 
d="M309 505c-50 0 -95.6689 -8.5 -137.002 -25.5s-75.833 -45.667 -103.5 -86s-41.5 -89.5 -41.5 -147.5c0 -43.333 8 -82 24 -116s37.333 -61 64 -81s56.5 -35.167 89.5 -45.5s67.833 -15.5 104.5 -15.5c76.667 0 142.834 22 198.501 66s83.5 108 83.5 192
c0 84.667 -27.167 149 -81.5 193s-121.166 66 -200.499 66zM308.998 139c-31.333 0 -56.1641 10.333 -74.4971 31s-27.5 46 -27.5 76s9.16699 55.5 27.5 76.5s43.166 31.5 74.499 31.5s56.166 -10.5 74.499 -31.5s27.5 -46.5 27.5 -76.5
c0 -30.667 -9.33301 -56.167 -28 -76.5s-43.334 -30.5 -74.001 -30.5zM252 710h114l152 -157v-8h-158l-51 47l-51 -47h-158v8z" />
    <glyph glyph-name="otilde" unicode="&#xf5;" horiz-adv-x="618" 
d="M309 505c79.333 0 146.168 -22 200.501 -66s81.5 -108.333 81.5 -193c0 -84 -27.833 -148 -83.5 -192s-121.834 -66 -198.501 -66c-36.667 0 -71.5 5.16699 -104.5 15.5s-62.833 25.5 -89.5 45.5s-48 47 -64 81s-24 72.667 -24 116c0 58 13.833 107.167 41.5 147.5
s62.167 69 103.5 86s87 25.5 137 25.5zM309.002 139c30.667 0 55.332 10.167 73.999 30.5s28 45.833 28 76.5c0 30 -9.16699 55.5 -27.5 76.5s-43.166 31.5 -74.499 31.5s-56.166 -10.5 -74.499 -31.5s-27.5 -46.5 -27.5 -76.5s9.16699 -55.333 27.5 -76
s43.166 -31 74.499 -31zM315 569c-49.333 29.333 -82.332 24.667 -98.999 -14l-96 65c15.333 46 44 76 86 90s81.333 9.33301 118 -14c45.333 -26.667 79 -20.667 101 18l91 -65c-16.667 -47.333 -42.834 -78.5 -78.501 -93.5s-76.5 -10.5 -122.5 13.5z" />
    <glyph glyph-name="odieresis" unicode="&#xf6;" horiz-adv-x="618" 
d="M96 638c0 26.667 9.16699 47.667 27.5 63s40.166 23 65.499 23s47.5 -7.66699 66.5 -23s28.5 -36.333 28.5 -63c0 -25.333 -9.5 -45.5 -28.5 -60.5s-41.167 -22.5 -66.5 -22.5s-47.166 7.5 -65.499 22.5s-27.5 35.167 -27.5 60.5zM336 638c0 26.667 9.33301 47.667 28 63
s41 23 67 23c24.667 0 46.5 -7.66699 65.5 -23s28.5 -36.333 28.5 -63c0 -25.333 -9.5 -45.5 -28.5 -60.5s-40.833 -22.5 -65.5 -22.5c-26 0 -48.333 7.5 -67 22.5s-28 35.167 -28 60.5zM309 508c-50 0 -95.6689 -8.5 -137.002 -25.5s-75.833 -45.667 -103.5 -86
s-41.5 -89.5 -41.5 -147.5c0 -43.333 8 -82 24 -116s37.333 -61 64 -81s56.5 -35.167 89.5 -45.5s67.833 -15.5 104.5 -15.5c76.667 0 142.834 22 198.501 66s83.5 108 83.5 192c0 84.667 -27.167 149 -81.5 193s-121.166 66 -200.499 66zM308.998 142
c-31.333 0 -56.1641 10.333 -74.4971 31s-27.5 46 -27.5 76s9.16699 55.5 27.5 76.5s43.166 31.5 74.499 31.5s56.166 -10.5 74.499 -31.5s27.5 -46.5 27.5 -76.5c0 -30.667 -9.33301 -56.167 -28 -76.5s-43.334 -30.5 -74.001 -30.5z" />
    <glyph glyph-name="divide" unicode="&#xf7;" horiz-adv-x="541" 
d="M38 399v-145h465v145h-465zM177 133c0 28.667 9.5 50.667 28.5 66s42.167 23 69.5 23c26.667 0 49.667 -7.83301 69 -23.5s29 -37.5 29 -65.5c0 -27.333 -9.66699 -48.666 -29 -63.999s-42.333 -23 -69 -23s-49.667 7.66699 -69 23s-29 36.666 -29 63.999zM177 521
c0 28 9.5 49.667 28.5 65s42.167 23 69.5 23c26.667 0 49.667 -7.66699 69 -23s29 -37 29 -65s-9.66699 -49.667 -29 -65s-42.333 -23 -69 -23s-49.667 7.66699 -69 23s-29 37 -29 65z" />
    <glyph glyph-name="oslash" unicode="&#xf8;" horiz-adv-x="619" 
d="M310 139c31.333 0 55.5 10 72.5 30s25.5 45.667 25.5 77s-8.5 57.166 -25.5 77.499s-41.167 30.5 -72.5 30.5s-55.5 -10.167 -72.5 -30.5s-25.5 -46.166 -25.5 -77.499s8.5 -57 25.5 -77s41.167 -30 72.5 -30zM310 505c18.667 0 39.001 -1.66504 61.001 -4.99805l33 55
h170l-67 -110c56.667 -46 85 -112.333 85 -199c0 -44.667 -8 -84.167 -24 -118.5s-37.667 -61.333 -65 -81s-57.333 -34.334 -90 -44.001s-67 -14.5 -103 -14.5c-12.667 0 -31.667 1.33301 -57 4l-31 -52h-171l65 107c-58.667 45.333 -88 111.666 -88 198.999
c0 86.667 27.167 151.5 81.5 194.5s121.166 64.5 200.499 64.5z" />
    <glyph glyph-name="ugrave" unicode="&#xf9;" 
d="M48 494h184.001v-273c0 -28 6.66699 -48.667 20 -62s29.666 -20 48.999 -20c24 0 44.167 7.66699 60.5 23s24.5 38.333 24.5 69v263h182v-494h-163l-8 54c-38.667 -45.333 -90.667 -67.333 -156 -66c-58 0.666992 -104.667 19 -140 55s-53 95 -53 177v274zM130.001 701v8
h193l77 -155v-5h-161z" />
    <glyph glyph-name="uacute" unicode="&#xfa;" 
d="M232 494h-184.001v-274c0 -82 17.667 -141 53 -177s82 -54.333 140 -55c65.333 -1.33301 117.333 20.667 156 66l8 -54h163v494h-182v-263c0 -30.667 -8.16699 -53.667 -24.5 -69s-36.5 -23 -60.5 -23c-19.333 0 -35.666 6.66699 -48.999 20s-20 34 -20 62v273z
M493.999 713v-8l-110 -155h-162v6l78 157h194z" />
    <glyph glyph-name="ucircumflex" unicode="&#xfb;" 
d="M232 494h-184.001v-274c0 -82 17.667 -141 53 -177s82 -54.333 140 -55c65.333 -1.33301 117.333 20.667 156 66l8 -54h163v494h-182v-263c0 -30.667 -8.16699 -53.667 -24.5 -69s-36.5 -23 -60.5 -23c-19.333 0 -35.666 6.66699 -48.999 20s-20 34 -20 62v273z
M247.999 713h117l155 -150v-8h-161l-52 45l-52 -45h-162v8z" />
    <glyph glyph-name="udieresis" unicode="&#xfc;" 
d="M232 494h-184.001v-274c0 -82 17.667 -141 53 -177s82 -54.333 140 -55c65.333 -1.33301 117.333 20.667 156 66l8 -54h163v494h-182v-263c0 -30.667 -8.16699 -53.667 -24.5 -69s-36.5 -23 -60.5 -23c-19.333 0 -35.666 6.66699 -48.999 20s-20 34 -20 62v273z
M73.999 629c0 25.333 9.16699 45.5 27.5 60.5s39.833 22.5 64.5 22.5s46.334 -7.5 65.001 -22.5s28 -35.167 28 -60.5c0 -24.667 -9.33301 -44.167 -28 -58.5s-40.334 -21.5 -65.001 -21.5s-46.167 7.16699 -64.5 21.5s-27.5 33.833 -27.5 58.5zM359.999 629
c0 25.333 9.16699 45.5 27.5 60.5s40.166 22.5 65.499 22.5c24.667 0 46.167 -7.5 64.5 -22.5s27.5 -35.167 27.5 -60.5c0 -24.667 -9.33301 -44.167 -28 -58.5s-40 -21.5 -64 -21.5c-25.333 0 -47.166 7.16699 -65.499 21.5s-27.5 33.833 -27.5 58.5z" />
    <glyph glyph-name="yacute" unicode="&#xfd;" horiz-adv-x="582" 
d="M591 494h-197l-46 -117l-60 -172l-54 171l-42 118h-195l196 -472l-100 -231h192zM477 711v-8l-109 -159h-161v6l77 161h193z" />
    <glyph glyph-name="thorn" unicode="&#xfe;" horiz-adv-x="640" 
d="M340 147c26 0 47.666 9.00195 64.999 27.002s26 42 26 72s-8.66699 54 -26 72s-39 27 -65 27c-24 0 -45 -9.83301 -63 -29.5s-27 -42.834 -27 -69.501s8.83301 -49.834 26.5 -69.501s38.834 -29.5 63.501 -29.5zM236.999 -193.998h-183v882h183v-237
c38 35.333 88.667 53 152 53c69.333 0 124 -24.833 164 -74.5s60 -109.5 60 -179.5c0 -72 -20 -133.167 -60 -183.5s-98 -75.5 -174 -75.5c-56.667 0 -104 17 -142 51v-236z" />
    <glyph glyph-name="ydieresis" unicode="&#xff;" horiz-adv-x="582" 
d="M591 494h-197l-46 -117l-60 -172l-54 171l-42 118h-195l196 -472l-100 -231h192zM61 627c0 26.667 9.16699 47.667 27.5 63s40.166 23 65.499 23s47.5 -7.66699 66.5 -23s28.5 -36.333 28.5 -63c0 -25.333 -9.5 -45.5 -28.5 -60.5s-41.167 -22.5 -66.5 -22.5
s-47.166 7.5 -65.499 22.5s-27.5 35.167 -27.5 60.5zM351 627c0 26.667 9.33301 47.667 28 63s41 23 67 23c24.667 0 46.5 -7.66699 65.5 -23s28.5 -36.333 28.5 -63c0 -25.333 -9.5 -45.5 -28.5 -60.5s-40.833 -22.5 -65.5 -22.5c-26 0 -48.333 7.5 -67 22.5
s-28 35.167 -28 60.5z" />
    <glyph glyph-name="Amacron" unicode="&#x100;" horiz-adv-x="797" 
d="M600 0l-46 115h-313l-46 -115h-210l314 700h200l313 -700h-212zM487 281l-89 223l-90 -223h179zM223 744v140h350v-140h-350z" />
    <glyph glyph-name="amacron" unicode="&#x101;" horiz-adv-x="648" 
d="M412 441l9.00098 53.001h173v-494h-170l-8 53c-20 -22.667 -44.667 -39 -74 -49s-59 -14.333 -89 -13c-71.333 4.66699 -126.833 30.167 -166.5 76.5s-59.5 106.166 -59.5 179.499c0 74 22.167 135.5 66.5 184.5s102.166 73.5 173.499 73.5c68.667 0 117 -21.333 145 -64
zM309.001 356.001c-28.667 0 -52.334 -9.83398 -71.001 -29.501s-28 -46.167 -28 -79.5s9.33301 -59.666 28 -78.999s42.334 -29 71.001 -29c30 0 54.5 10.5 73.5 31.5s28.5 46.5 28.5 76.5c0 33.333 -9 59.833 -27 79.5s-43 29.5 -75 29.5zM169.001 568v139h335v-139h-335z
" />
    <glyph glyph-name="Abreve" unicode="&#x102;" horiz-adv-x="797" 
d="M600 0l-46 115h-313l-46 -115h-210l314 700h200l313 -700h-212zM487 281l-89 223l-90 -223h179zM215 904l140.003 -0.000976562c0 -16 4.83301 -27 14.5 -33s19.167 -9 28.5 -9c6 0 11.833 0.833008 17.5 2.5s11.5 5.83398 17.5 12.501s9 15.667 9 27h140
c1.33301 -50 -14.834 -89.333 -48.501 -118s-78.834 -43 -135.501 -43c-56 0 -100.833 14.333 -134.5 43s-49.834 68 -48.501 118z" />
    <glyph glyph-name="abreve" unicode="&#x103;" horiz-adv-x="648" 
d="M412 441l9.00098 53.001h173v-494h-170l-8 53c-20 -22.667 -44.667 -39 -74 -49s-59 -14.333 -89 -13c-71.333 4.66699 -126.833 30.167 -166.5 76.5s-59.5 106.166 -59.5 179.499c0 74 22.167 135.5 66.5 184.5s102.166 73.5 173.499 73.5c68.667 0 117 -21.333 145 -64
zM309.001 356.001c-28.667 0 -52.334 -9.83398 -71.001 -29.501s-28 -46.167 -28 -79.5s9.33301 -59.666 28 -78.999s42.334 -29 71.001 -29c30 0 54.5 10.5 73.5 31.5s28.5 46.5 28.5 76.5c0 33.333 -9 59.833 -27 79.5s-43 29.5 -75 29.5zM153.001 714h137.998
c0 -10.667 3 -19.334 9 -26.001s11.833 -10.667 17.5 -12s11.167 -2 16.5 -2s10.833 0.666992 16.5 2s11.5 5.33301 17.5 12s9 15.334 9 26.001h138c1.33301 -48 -14.667 -86 -48 -114s-77.666 -42 -132.999 -42s-99.666 14 -132.999 42s-49.333 66 -48 114z" />
    <glyph glyph-name="Aogonek" unicode="&#x104;" horiz-adv-x="797" 
d="M581 49l-26.999 66h-313l-46 -115h-210l314 700h200l313 -700c-27.333 2.66699 -51.333 3.5 -72 2.5s-36.5 -3.33301 -47.5 -7s-20 -8.16699 -27 -13.5s-10.5 -11 -10.5 -17s0.666992 -12 2 -18c4.66699 -13.333 18.5 -20.166 41.5 -20.499s39.5 2.83398 49.5 9.50098
l70 -89c-27.333 -24 -63.833 -38.833 -109.5 -44.5s-88.5 0.833008 -128.5 19.5s-64 47.667 -72 87c-6.66699 31.333 -3.33398 59.666 9.99902 84.999s34.333 43.666 63 54.999zM487.001 281l-89 223l-90 -223h179z" />
    <glyph glyph-name="aogonek" unicode="&#x105;" horiz-adv-x="648" 
d="M412 441l9.00098 53.002h173v-533c-16 6.66699 -36.5 6.83398 -61.5 0.500977s-35.167 -19.5 -30.5 -39.5c2 -8 8.66699 -13.167 20 -15.5s22.833 -2.5 34.5 -0.5s20.834 4.66699 27.501 8l56 -77c-25.333 -20 -57.333 -32.167 -96 -36.5s-74.5 1.16699 -107.5 16.5
s-52.833 39.666 -59.5 72.999c-5.33301 26 -2.83301 49.167 7.5 69.5s26.833 35.5 49.5 45.5l-14 52c-18.667 -24.667 -43.334 -42.334 -74.001 -53.001s-61.667 -15 -93 -13c-71.333 4.66699 -126.833 30.167 -166.5 76.5s-59.5 106.166 -59.5 179.499
c0 74 22.167 135.5 66.5 184.5s102.166 73.5 173.499 73.5c68.667 0 117 -21.333 145 -64zM309.001 356.002c-28.667 0 -52.334 -9.83398 -71.001 -29.501s-28 -46.167 -28 -79.5s9.33301 -59.666 28 -78.999s42.334 -29 71.001 -29c30 0 54.5 10.5 73.5 31.5
s28.5 46.5 28.5 76.5c0 33.333 -9 59.833 -27 79.5s-43 29.5 -75 29.5z" />
    <glyph glyph-name="Cacute" unicode="&#x106;" horiz-adv-x="707" 
d="M697 91l-116.003 129.999c-23.333 -24 -50.166 -41.833 -80.499 -53.5s-58.5 -17.5 -84.5 -17.5c-63.333 0 -110.166 19.167 -140.499 57.5s-45.833 83.833 -46.5 136.5c-0.666992 52 14.833 98.5 46.5 139.5s78.5 61.5 140.5 61.5c56.667 0 106.334 -20.333 149.001 -61
l122 120c-76.667 74.667 -167 112 -271 112c-63.333 0 -120.166 -10.833 -170.499 -32.5s-90.5 -50.334 -120.5 -86.001s-52.833 -75.167 -68.5 -118.5s-23.5 -88 -23.5 -134c0 -49.333 7.33301 -95.166 22 -137.499s36.667 -80.666 66 -114.999s69.166 -61.333 119.499 -81
s108.833 -29.5 175.5 -29.5c114 0 207.667 36.333 281 109zM565.997 918.999v-8l-103 -151h-153v6l73 153h183z" />
    <glyph glyph-name="cacute" unicode="&#x107;" horiz-adv-x="519" 
d="M511 74l-105.001 110.001c-25.333 -27.333 -56 -41 -92 -41c-33.333 0 -59.5 9.83301 -78.5 29.5s-28.5 43.834 -28.5 72.501c0 32.667 9.5 59.667 28.5 81s45.5 32 79.5 32c33.333 0 61.666 -12 84.999 -36l98 106c-51.333 51.333 -116 77 -194 77
c-36 0 -70.167 -5.16699 -102.5 -15.5s-61.666 -25.666 -87.999 -45.999s-47.333 -47.5 -63 -81.5s-23.5 -72.667 -23.5 -116c0 -44.667 7.66699 -83.834 23 -117.501s36.333 -60.334 63 -80.001s56.334 -34.334 89.001 -44.001s67.667 -14.5 105 -14.5
c73.333 0 141.333 28 204 84zM444.999 700.001v-7l-98 -144h-147v5l70 146h175z" />
    <glyph glyph-name="Ccircumflex" unicode="&#x108;" horiz-adv-x="707" 
d="M697 91l-116.003 129.999c-23.333 -24 -50.166 -41.833 -80.499 -53.5s-58.5 -17.5 -84.5 -17.5c-63.333 0 -110.166 19.167 -140.499 57.5s-45.833 83.833 -46.5 136.5c-0.666992 52 14.833 98.5 46.5 139.5s78.5 61.5 140.5 61.5c56.667 0 106.334 -20.333 149.001 -61
l122 120c-76.667 74.667 -167 112 -271 112c-63.333 0 -120.166 -10.833 -170.499 -32.5s-90.5 -50.334 -120.5 -86.001s-52.833 -75.167 -68.5 -118.5s-23.5 -88 -23.5 -134c0 -49.333 7.33301 -95.166 22 -137.499s36.667 -80.666 66 -114.999s69.166 -61.333 119.499 -81
s108.833 -29.5 175.5 -29.5c114 0 207.667 36.333 281 109zM349.997 939.999h114l152 -157v-8h-158l-51 47l-51 -47h-158v8z" />
    <glyph glyph-name="ccircumflex" unicode="&#x109;" horiz-adv-x="519" 
d="M511 74l-105.001 110.001c-25.333 -27.333 -56 -41 -92 -41c-33.333 0 -59.5 9.83301 -78.5 29.5s-28.5 43.834 -28.5 72.501c0 32.667 9.5 59.667 28.5 81s45.5 32 79.5 32c33.333 0 61.666 -12 84.999 -36l98 106c-51.333 51.333 -116 77 -194 77
c-36 0 -70.167 -5.16699 -102.5 -15.5s-61.666 -25.666 -87.999 -45.999s-47.333 -47.5 -63 -81.5s-23.5 -72.667 -23.5 -116c0 -44.667 7.66699 -83.834 23 -117.501s36.333 -60.334 63 -80.001s56.334 -34.334 89.001 -44.001s67.667 -14.5 105 -14.5
c73.333 0 141.333 28 204 84zM245.999 703.001h106l141 -146v-7h-147l-47 43l-47 -43h-146v7z" />
    <glyph glyph-name="Cdotaccent" unicode="&#x10a;" horiz-adv-x="707" 
d="M697 91l-116.003 129.999c-23.333 -24 -50.166 -41.833 -80.499 -53.5s-58.5 -17.5 -84.5 -17.5c-63.333 0 -110.166 19.167 -140.499 57.5s-45.833 83.833 -46.5 136.5c-0.666992 52 14.833 98.5 46.5 139.5s78.5 61.5 140.5 61.5c56.667 0 106.334 -20.333 149.001 -61
l122 120c-76.667 74.667 -167 112 -271 112c-63.333 0 -120.166 -10.833 -170.499 -32.5s-90.5 -50.334 -120.5 -86.001s-52.833 -75.167 -68.5 -118.5s-23.5 -88 -23.5 -134c0 -49.333 7.33301 -95.166 22 -137.499s36.667 -80.666 66 -114.999s69.166 -61.333 119.499 -81
s108.833 -29.5 175.5 -29.5c114 0 207.667 36.333 281 109zM310.997 857.999c0 26 9.83301 46.333 29.5 61s42.834 22 69.501 22s49.834 -7.33301 69.501 -22s29.5 -35 29.5 -61s-9.83301 -46.333 -29.5 -61s-42.834 -22 -69.501 -22s-49.834 7.33301 -69.501 22
s-29.5 35 -29.5 61z" />
    <glyph glyph-name="cdotaccent" unicode="&#x10b;" horiz-adv-x="519" 
d="M511 74l-105.001 110.001c-25.333 -27.333 -56 -41 -92 -41c-33.333 0 -59.5 9.83301 -78.5 29.5s-28.5 43.834 -28.5 72.501c0 32.667 9.5 59.667 28.5 81s45.5 32 79.5 32c33.333 0 61.666 -12 84.999 -36l98 106c-51.333 51.333 -116 77 -194 77
c-36 0 -70.167 -5.16699 -102.5 -15.5s-61.666 -25.666 -87.999 -45.999s-47.333 -47.5 -63 -81.5s-23.5 -72.667 -23.5 -116c0 -44.667 7.66699 -83.834 23 -117.501s36.333 -60.334 63 -80.001s56.334 -34.334 89.001 -44.001s67.667 -14.5 105 -14.5
c73.333 0 141.333 28 204 84zM209.999 638.001c0 25.333 8.83105 44.833 26.498 58.5s38.834 20.5 63.501 20.5s45.834 -6.83301 63.501 -20.5s26.5 -33.167 26.5 -58.5c0 -24.667 -9 -44 -27 -58s-39 -21 -63 -21s-45 7 -63 21s-27 33.333 -27 58z" />
    <glyph glyph-name="Ccaron" unicode="&#x10c;" horiz-adv-x="707" 
d="M697 91l-116.003 129.999c-23.333 -24 -50.166 -41.833 -80.499 -53.5s-58.5 -17.5 -84.5 -17.5c-63.333 0 -110.166 19.167 -140.499 57.5s-45.833 83.833 -46.5 136.5c-0.666992 52 14.833 98.5 46.5 139.5s78.5 61.5 140.5 61.5c56.667 0 106.334 -20.333 149.001 -61
l122 120c-76.667 74.667 -167 112 -271 112c-63.333 0 -120.166 -10.833 -170.499 -32.5s-90.5 -50.334 -120.5 -86.001s-52.833 -75.167 -68.5 -118.5s-23.5 -88 -23.5 -134c0 -49.333 7.33301 -95.166 22 -137.499s36.667 -80.666 66 -114.999s69.166 -61.333 119.499 -81
s108.833 -29.5 175.5 -29.5c114 0 207.667 36.333 281 109zM468.997 760.999h-115l-152 146v7h158l52 -43l51 43h158v-7z" />
    <glyph glyph-name="ccaron" unicode="&#x10d;" horiz-adv-x="519" 
d="M511 74l-105.001 110.001c-25.333 -27.333 -56 -41 -92 -41c-33.333 0 -59.5 9.83301 -78.5 29.5s-28.5 43.834 -28.5 72.501c0 32.667 9.5 59.667 28.5 81s45.5 32 79.5 32c33.333 0 61.666 -12 84.999 -36l98 106c-51.333 51.333 -116 77 -194 77
c-36 0 -70.167 -5.16699 -102.5 -15.5s-61.666 -25.666 -87.999 -45.999s-47.333 -47.5 -63 -81.5s-23.5 -72.667 -23.5 -116c0 -44.667 7.66699 -83.834 23 -117.501s36.333 -60.334 63 -80.001s56.334 -34.334 89.001 -44.001s67.667 -14.5 105 -14.5
c73.333 0 141.333 28 204 84zM347.999 552.001h-106l-142 140v7h147l48 -42l47 42h148v-7z" />
    <glyph glyph-name="Dcaron" unicode="&#x10e;" horiz-adv-x="771" 
d="M371 700l-299.998 0.000976562v-700h300c119.333 0 210.166 33.5 272.499 100.5s93.5 151.833 93.5 254.5c0 101.333 -31.333 184.166 -94 248.499s-153.334 96.5 -272.001 96.5zM267.002 167.001v368h104c57.333 0 100 -16.667 128 -50s42 -76 42 -128
c0 -54 -13.667 -99.167 -41 -135.5s-70.333 -54.5 -129 -54.5h-104zM398.002 764.001h-124l-165 145v7h172l55 -43l55 43h171v-7z" />
    <glyph glyph-name="dcaron" unicode="&#x10f;" horiz-adv-x="722" 
d="M405 452v248h184v-700h-164l-8 53c-20 -22.667 -44.667 -39 -74 -49s-59 -14.333 -89 -13c-72.667 4.66699 -128.5 29 -167.5 73s-58.5 105 -58.5 183c0 76 22.167 138 66.5 186s102.166 72 173.499 72c62.667 0 108.334 -17.667 137.001 -53zM310 356
c-28.667 0 -52.334 -9.83398 -71.001 -29.501s-28 -46.167 -28 -79.5s9.33301 -59.666 28 -78.999s42.334 -29 71.001 -29c29.333 0 53.166 10.333 71.499 31s27.5 44.667 27.5 72c0 32 -8.66699 59 -26 81s-41.666 33 -72.999 33zM614 479.999l44 221h151l-77 -221h-118z
" />
    <glyph glyph-name="Dcroat" unicode="&#x110;" horiz-adv-x="767" 
d="M17 285v137.999h59v277h300c59.333 0 112.333 -9.83301 159 -29.5s84 -46.334 112 -80.001s49.167 -70.667 63.5 -111s21.833 -82.833 22.5 -127.5c0.666992 -45.333 -6 -88.666 -20 -129.999s-35 -78.666 -63 -111.999s-65.5 -60 -112.5 -80s-100.833 -30 -161.5 -30
h-300v285h-59zM269 284.999v-118h107c56 0 97.333 18.333 124 55s39 80.667 37 132c-2 49.333 -16.167 91.5 -42.5 126.5s-65.833 52.5 -118.5 52.5h-107v-110h97v-138h-97z" />
    <glyph glyph-name="dcroat" unicode="&#x111;" horiz-adv-x="643" 
d="M321 543v110h84v47h184v-47h62v-110h-62v-543h-164l-8 53c-20 -22.667 -44.667 -39 -74 -49s-59 -14.333 -89 -13c-72.667 4.66699 -128.5 29 -167.5 73s-58.5 105 -58.5 183c0 76 22.167 138 66.5 186s102.166 72 173.499 72c62.667 0 108.334 -17.667 137.001 -53v91
h-84zM310 356c-28.667 0 -52.334 -9.83398 -71.001 -29.501s-28 -46.167 -28 -79.5s9.33301 -59.666 28 -78.999s42.334 -29 71.001 -29c29.333 0 53.166 10.333 71.499 31s27.5 44.667 27.5 72c0 32 -8.66699 59 -26 81s-41.666 33 -72.999 33z" />
    <glyph glyph-name="Emacron" unicode="&#x112;" horiz-adv-x="672" 
d="M631 167v-167h-560v700h546v-166h-351v-100h331v-161h-331v-106h365zM191 757v134h335v-134h-335z" />
    <glyph glyph-name="emacron" unicode="&#x113;" horiz-adv-x="590" 
d="M214 313h179c-1.33301 24.667 -16 42.167 -44 52.5s-56.5 10.5 -85.5 0.5s-45.5 -27.667 -49.5 -53zM302 506c90.667 0 161.169 -28.167 211.502 -84.5s65.166 -131.833 44.499 -226.5h-345c6 -20 20 -35.5 42 -46.5s44.667 -16.5 68 -16.5
c49.333 0 91.666 13.333 126.999 40l90 -101c-58.667 -54.667 -133.667 -82 -225 -82c-84 0 -153 21.5 -207 64.5s-81 107.167 -81 192.5c0 84 27.333 148.333 82 193s119 67 193 67zM154.002 564v129h312v-129h-312z" />
    <glyph glyph-name="Ebreve" unicode="&#x114;" horiz-adv-x="672" 
d="M631 167v-167h-560v700h546v-166h-351v-100h331v-161h-331v-106h365zM174 901h135.003c0 -10 3 -18.167 9 -24.5s11.667 -10.333 17 -12s10.666 -2.5 15.999 -2.5s10.666 0.833008 15.999 2.5s11 5.66699 17 12s9 14.5 9 24.5h135
c1.33301 -46.667 -14.167 -83.5 -46.5 -110.5s-75.833 -40.5 -130.5 -40.5c-54 0 -97.333 13.5 -130 40.5s-48.334 63.833 -47.001 110.5z" />
    <glyph glyph-name="ebreve" unicode="&#x115;" horiz-adv-x="590" 
d="M214 313h179c-1.33301 24.667 -16 42.167 -44 52.5s-56.5 10.5 -85.5 0.5s-45.5 -27.667 -49.5 -53zM302 506c90.667 0 161.169 -28.167 211.502 -84.5s65.166 -131.833 44.499 -226.5h-345c6 -20 20 -35.5 42 -46.5s44.667 -16.5 68 -16.5
c49.333 0 91.666 13.333 126.999 40l90 -101c-58.667 -54.667 -133.667 -82 -225 -82c-84 0 -153 21.5 -207 64.5s-81 107.167 -81 192.5c0 84 27.333 148.333 82 193s119 67 193 67zM138.002 710h136c0 -26.667 14.333 -40 43 -40c28 0 42 13.333 42 40h137
c1.33301 -48.667 -14.5 -87 -47.5 -115s-76.833 -42 -131.5 -42c-55.333 0 -99.5 14 -132.5 42s-48.5 66.333 -46.5 115z" />
    <glyph glyph-name="Edotaccent" unicode="&#x116;" horiz-adv-x="672" 
d="M631 0v167h-365v106h331v161h-331v100h351v166h-546v-700h560zM257 845c0 26.667 10.333 47.5 31 62.5s45.334 22.5 74.001 22.5c28 0 52.5 -7.5 73.5 -22.5s31.5 -35.833 31.5 -62.5s-10.5 -47.5 -31.5 -62.5s-45.5 -22.5 -73.5 -22.5
c-28.667 0 -53.334 7.5 -74.001 22.5s-31 35.833 -31 62.5z" />
    <glyph glyph-name="edotaccent" unicode="&#x117;" horiz-adv-x="590" 
d="M214 313h179c-1.33301 24.667 -16 42.167 -44 52.5s-56.5 10.5 -85.5 0.5s-45.5 -27.667 -49.5 -53zM302 506c90.667 0 161.169 -28.167 211.502 -84.5s65.166 -131.833 44.499 -226.5h-345c6 -20 20 -35.5 42 -46.5s44.667 -16.5 68 -16.5
c49.333 0 91.666 13.333 126.999 40l90 -101c-58.667 -54.667 -133.667 -82 -225 -82c-84 0 -153 21.5 -207 64.5s-81 107.167 -81 192.5c0 84 27.333 148.333 82 193s119 67 193 67zM208.002 631c0 26.667 10 47.667 30 63s43.667 23 71 23s51 -7.66699 71 -23
s30 -36.333 30 -63s-10 -47.5 -30 -62.5s-43.667 -22.5 -71 -22.5s-51 7.5 -71 22.5s-30 35.833 -30 62.5z" />
    <glyph glyph-name="Eogonek" unicode="&#x118;" horiz-adv-x="672" 
d="M631 167l-0.000976562 -167c-18 2 -34.167 2.33301 -48.5 1s-25.5 -3.83301 -33.5 -7.5s-14.5 -8 -19.5 -13s-7.33301 -10.167 -7 -15.5s1.5 -10.666 3.5 -15.999c4 -7.33301 12 -11.833 24 -13.5s23.5 -1.33398 34.5 0.999023s20.167 5.5 27.5 9.5l68 -84
c-23.333 -20 -53.333 -35 -90 -45s-73.667 -11.833 -111 -5.5s-65.666 21.833 -84.999 46.5c-16.667 22 -22 47.333 -16 76s21.667 50.667 47 66h-354v700h546v-166h-351v-100h331v-161h-331v-106h365z" />
    <glyph glyph-name="eogonek" unicode="&#x119;" horiz-adv-x="591" 
d="M302 506c90.667 0 161.168 -28.167 211.501 -84.5s65.166 -131.833 44.499 -226.5h-345c6 -20 20 -35.5 42 -46.5s44.667 -16.5 68 -16.5c49.333 0 91.666 13.333 126.999 40l90 -101c-38 -35.333 -82.667 -59 -134 -71c-22.667 -8 -32 -21 -28 -39
c4 -14 17.5 -21.333 40.5 -22s41.5 5 55.5 17l63 -80c-19.333 -24 -48.166 -40.333 -86.499 -49s-76 -7.5 -113 3.5s-63.167 30.167 -78.5 57.5c-9.33301 18.667 -11.666 37.5 -6.99902 56.5s15.667 34.167 33 45.5c-76.667 5.33301 -138.834 29.333 -186.501 72
s-71.5 104 -71.5 184c0 84 27.333 148.333 82 193s119 67 193 67zM214.001 313h179c-1.33301 24.667 -16 42.167 -44 52.5s-56.5 10.5 -85.5 0.5s-45.5 -27.667 -49.5 -53z" />
    <glyph glyph-name="Ecaron" unicode="&#x11a;" horiz-adv-x="672" 
d="M631 0v167h-365v106h331v161h-331v100h351v166h-546v-700h560zM413 750h-115l-153 143v8h159l52 -43l51 43h159v-8z" />
    <glyph glyph-name="ecaron" unicode="&#x11b;" horiz-adv-x="590" 
d="M214 313h179c-1.33301 24.667 -16 42.167 -44 52.5s-56.5 10.5 -85.5 0.5s-45.5 -27.667 -49.5 -53zM302 506c90.667 0 161.169 -28.167 211.502 -84.5s65.166 -131.833 44.499 -226.5h-345c6 -20 20 -35.5 42 -46.5s44.667 -16.5 68 -16.5
c49.333 0 91.666 13.333 126.999 40l90 -101c-58.667 -54.667 -133.667 -82 -225 -82c-84 0 -153 21.5 -207 64.5s-81 107.167 -81 192.5c0 84 27.333 148.333 82 193s119 67 193 67zM365.002 550h-113l-152 142v7h158l50 -43l51 43h158v-7z" />
    <glyph glyph-name="Gcircumflex" unicode="&#x11c;" horiz-adv-x="756" 
d="M575 493l115 113.998c-42.667 43.333 -85.667 73 -129 89s-92 24 -146 24c-63.333 0 -120 -10.667 -170 -32s-90.167 -49.833 -120.5 -85.5s-53.333 -75 -69 -118s-23.5 -88.167 -23.5 -135.5c0 -48 7.16699 -93.167 21.5 -135.5s36 -81.166 65 -116.499
s68.833 -63.5 119.5 -84.5s109.334 -31.5 176.001 -31.5c69.333 0 131.5 12 186.5 36s93.167 57.667 114.5 101v311h-342v-155h177v-90c-33.333 -24 -78.333 -36 -135 -36c-44 0 -80.833 10.833 -110.5 32.5s-50 46.834 -61 75.501s-16.5 59.667 -16.5 93
c0 66.667 16.667 117.5 50 152.5s79.333 52.5 138 52.5c63.333 0 116.666 -20.333 159.999 -61zM347 923.998h118l158 -150v-7h-164l-53 45l-53 -45h-164v7z" />
    <glyph glyph-name="gcircumflex" unicode="&#x11d;" horiz-adv-x="610" 
d="M34 -35l173 0.000976562c-1.33301 -62.667 29.667 -94 93 -94c26 0 47.667 6.16699 65 18.5s26 29.833 26 52.5c0 44 -29.667 66 -89 66c-83.333 0 -150 22.5 -200 67.5s-75 105.5 -75 181.5s26.167 137.167 78.5 183.5s117.833 69.5 196.5 69.5
c33.333 0 67.333 -6.33301 102 -19l43 58l132 -97l-53 -64c33.333 -37.333 49 -81.666 47 -132.999c-1.33301 -66.667 -31.333 -121.334 -90 -164.001c64.667 -36.667 97 -86.334 97 -149.001c0 -38.667 -7.83301 -72.5 -23.5 -101.5s-37 -51.833 -64 -68.5
s-56.667 -29.167 -89 -37.5s-66.833 -12.5 -103.5 -12.5c-88 0 -155.667 21.5 -203 64.5s-68.333 102.5 -63 178.5zM302 359.001c-28 0 -50.998 -9.00098 -68.998 -27.001s-27 -43 -27 -75c0 -28.667 9.16699 -52 27.5 -70s41.166 -27 68.499 -27c26 0 48 8.33301 66 25
s27 40.667 27 72c0 28.667 -8.83301 52.834 -26.5 72.501s-39.834 29.5 -66.501 29.5zM253.002 731h123l164 -153v-7h-170l-56 45l-55 -45h-171v7z" />
    <glyph glyph-name="Gbreve" unicode="&#x11e;" horiz-adv-x="756" 
d="M690 607l-115 -113.998c-43.333 40.667 -96.666 61 -159.999 61c-58.667 0 -104.667 -17.5 -138 -52.5s-50 -85.833 -50 -152.5c0 -33.333 5.5 -64.333 16.5 -93s31.333 -53.834 61 -75.501s66.5 -32.5 110.5 -32.5c56.667 0 101.667 12 135 36v90h-177v155h342v-311
c-21.333 -43.333 -59.5 -77 -114.5 -101s-117.167 -36 -186.5 -36c-66.667 0 -125.334 10.5 -176.001 31.5s-90.5 49.167 -119.5 84.5s-50.667 74.166 -65 116.499s-21.5 87.5 -21.5 135.5c0 47.333 7.83301 92.5 23.5 135.5s38.667 82.333 69 118s70.5 64.167 120.5 85.5
s106.667 32 170 32c54 0 102.667 -8 146 -24s86.333 -45.667 129 -89zM221 927.002l141 -0.000976562c0 -16 4.83301 -27 14.5 -33s19.5 -9 29.5 -9c5.33301 0 10.833 0.833008 16.5 2.5s11.667 5.83398 18 12.501s9.5 15.667 9.5 27h141
c1.33301 -50 -15 -89.167 -49 -117.5s-79.333 -42.5 -136 -42.5c-57.333 0 -103 14.333 -137 43s-50 67.667 -48 117z" />
    <glyph glyph-name="gbreve" unicode="&#x11f;" horiz-adv-x="615" 
d="M34 -35l173 0.000976562c-1.33301 -62.667 29.667 -94 93 -94c26 0 47.667 6.16699 65 18.5s26 29.833 26 52.5c0 44 -29.667 66 -89 66c-83.333 0 -150 22.5 -200 67.5s-75 105.5 -75 181.5s26.167 137.167 78.5 183.5s117.833 69.5 196.5 69.5
c33.333 0 67.333 -6.33301 102 -19l25.5 32.5l27.5 35.5l133 -95l-64 -76c33.333 -37.333 49 -81.666 47 -132.999c-1.33301 -66.667 -31.333 -121.334 -90 -164.001c64.667 -36.667 97 -86.334 97 -149.001c0 -38.667 -7.83301 -72.5 -23.5 -101.5s-37 -51.833 -64 -68.5
s-56.667 -29.167 -89 -37.5s-66.833 -12.5 -103.5 -12.5c-88 0 -155.667 21.5 -203 64.5s-68.333 102.5 -63 178.5zM302 359.001c-28 0 -50.998 -9.00098 -68.998 -27.001s-27 -43 -27 -75c0 -28.667 9.16699 -52 27.5 -70s41.166 -27 68.499 -27c26 0 48 8.33301 66 25
s27 40.667 27 72c0 28.667 -8.83301 52.834 -26.5 72.501s-39.834 29.5 -66.501 29.5zM115.002 720h141c0 -10.667 3 -19.334 9 -26.001s12 -10.834 18 -12.501s11.667 -2.5 17 -2.5s10.833 0.833008 16.5 2.5s11.667 5.83398 18 12.501s9.5 15.334 9.5 26.001h141
c1.33301 -49.333 -15 -88 -49 -116s-79.333 -42 -136 -42c-57.333 0 -103 14 -137 42s-50 66.667 -48 116z" />
    <glyph glyph-name="Gdotaccent" unicode="&#x120;" horiz-adv-x="756" 
d="M575 493l115 113.998c-42.667 43.333 -85.667 73 -129 89s-92 24 -146 24c-63.333 0 -120 -10.667 -170 -32s-90.167 -49.833 -120.5 -85.5s-53.333 -75 -69 -118s-23.5 -88.167 -23.5 -135.5c0 -48 7.16699 -93.167 21.5 -135.5s36 -81.166 65 -116.499
s68.833 -63.5 119.5 -84.5s109.334 -31.5 176.001 -31.5c69.333 0 131.5 12 186.5 36s93.167 57.667 114.5 101v311h-342v-155h177v-90c-33.333 -24 -78.333 -36 -135 -36c-44 0 -80.833 10.833 -110.5 32.5s-50 46.834 -61 75.501s-16.5 59.667 -16.5 93
c0 66.667 16.667 117.5 50 152.5s79.333 52.5 138 52.5c63.333 0 116.666 -20.333 159.999 -61zM308 857.998c0 28 10.333 49.833 31 65.5s45.334 23.5 74.001 23.5c28 0 52.333 -7.83301 73 -23.5s31 -37.5 31 -65.5s-10.333 -49.833 -31 -65.5s-45 -23.5 -73 -23.5
c-28.667 0 -53.334 7.83301 -74.001 23.5s-31 37.5 -31 65.5z" />
    <glyph glyph-name="gdotaccent" unicode="&#x121;" horiz-adv-x="615" 
d="M34 -35l173 0.000976562c-1.33301 -62.667 29.667 -94 93 -94c26 0 47.667 6.16699 65 18.5s26 29.833 26 52.5c0 44 -29.667 66 -89 66c-83.333 0 -150 22.5 -200 67.5s-75 105.5 -75 181.5s26.167 137.167 78.5 183.5s117.833 69.5 196.5 69.5
c33.333 0 67.333 -6.33301 102 -19l25.5 32.5l27.5 35.5l133 -95l-64 -76c33.333 -37.333 49 -81.666 47 -132.999c-1.33301 -66.667 -31.333 -121.334 -90 -164.001c64.667 -36.667 97 -86.334 97 -149.001c0 -38.667 -7.83301 -72.5 -23.5 -101.5s-37 -51.833 -64 -68.5
s-56.667 -29.167 -89 -37.5s-66.833 -12.5 -103.5 -12.5c-88 0 -155.667 21.5 -203 64.5s-68.333 102.5 -63 178.5zM302 359.001c-28 0 -50.998 -9.00098 -68.998 -27.001s-27 -43 -27 -75c0 -28.667 9.16699 -52 27.5 -70s41.166 -27 68.499 -27c26 0 48 8.33301 66 25
s27 40.667 27 72c0 28.667 -8.83301 52.834 -26.5 72.501s-39.834 29.5 -66.501 29.5zM202.002 650c0 28 10.333 49.833 31 65.5s45 23.5 73 23.5s52.333 -7.83301 73 -23.5s31 -37.5 31 -65.5s-10.333 -49.833 -31 -65.5s-45 -23.5 -73 -23.5s-52.333 7.83301 -73 23.5
s-31 37.5 -31 65.5z" />
    <glyph glyph-name="Gcommaaccent" unicode="&#x122;" horiz-adv-x="756" 
d="M690 607l-115 -113.998c-43.333 40.667 -96.666 61 -159.999 61c-58.667 0 -104.667 -17.5 -138 -52.5s-50 -85.833 -50 -152.5c0 -33.333 5.5 -64.333 16.5 -93s31.333 -53.834 61 -75.501s66.5 -32.5 110.5 -32.5c56.667 0 101.667 12 135 36v90h-177v155h342v-311
c-21.333 -43.333 -59.5 -77 -114.5 -101s-117.167 -36 -186.5 -36c-66.667 0 -125.334 10.5 -176.001 31.5s-90.5 49.167 -119.5 84.5s-50.667 74.166 -65 116.499s-21.5 87.5 -21.5 135.5c0 47.333 7.83301 92.5 23.5 135.5s38.667 82.333 69 118s70.5 64.167 120.5 85.5
s106.667 32 170 32c54 0 102.667 -8 146 -24s86.333 -45.667 129 -89zM500 -140.998c0 -32 -19.333 -86.668 -58 -164.001h-97l22 100c-36 6.66699 -54 28.334 -54 65.001c0 24.667 9.66699 44 29 58s42.333 21 69 21c24.667 0 45.667 -7 63 -21s26 -33.667 26 -59z" />
    <glyph glyph-name="gcommaaccent" unicode="&#x123;" horiz-adv-x="615" 
d="M209 652c0.666992 11.333 2.83691 23.999 6.50391 37.999s7.5 25.5 11.5 34.5s10 21.833 18 38.5s13.333 28.334 16 35.001h117l-17 -88c33.333 -10 49.666 -28.667 48.999 -56c-0.666992 -26 -10.834 -46 -30.501 -60s-42.834 -21 -69.501 -21
s-50.334 7.16699 -71.001 21.5s-30.667 33.5 -30 57.5zM34.0029 -35.001l173 0.000976562c-1.33301 -62.667 29.667 -94 93 -94c26 0 47.667 6.16699 65 18.5s26 29.833 26 52.5c0 44 -29.667 66 -89 66c-83.333 0 -150 22.5 -200 67.5s-75 105.5 -75 181.5
s26.167 137.167 78.5 183.5s117.833 69.5 196.5 69.5c33.333 0 67.333 -6.33301 102 -19l25.5 32.5l27.5 35.5l133 -95l-64 -76c33.333 -37.333 49 -81.666 47 -132.999c-1.33301 -66.667 -31.333 -121.334 -90 -164.001c64.667 -36.667 97 -86.334 97 -149.001
c0 -38.667 -7.83301 -72.5 -23.5 -101.5s-37 -51.833 -64 -68.5s-56.667 -29.167 -89 -37.5s-66.833 -12.5 -103.5 -12.5c-88 0 -155.667 21.5 -203 64.5s-68.333 102.5 -63 178.5zM302.003 359c-28 0 -50.998 -9.00098 -68.998 -27.001s-27 -43 -27 -75
c0 -28.667 9.16699 -52 27.5 -70s41.166 -27 68.499 -27c26 0 48 8.33301 66 25s27 40.667 27 72c0 28.667 -8.83301 52.834 -26.5 72.501s-39.834 29.5 -66.501 29.5z" />
    <glyph glyph-name="Hcircumflex" unicode="&#x124;" horiz-adv-x="788" 
d="M521 0h196v700h-196v-266h-252v266h-198v-700h198v265h252v-265zM329 926h120l160 -156v-8h-166l-54 46l-53 -46h-167v8z" />
    <glyph glyph-name="hcircumflex" unicode="&#x125;" horiz-adv-x="613" 
d="M240 700h-186v-700h185v261c0.666992 27.333 8.66699 48.333 24 63s33 22 53 22c42.667 0 65 -24.333 67 -73v-273h183v274c0 78 -18.5 136 -55.5 174s-83.167 57 -138.5 57c-54.667 0 -98.667 -21.333 -132 -64v259zM248 911h109l146 -152v-7h-152l-49 45l-49 -45h-151
v7z" />
    <glyph glyph-name="Hbar" unicode="&#x126;" horiz-adv-x="798" 
d="M722 -1h-196v260h-252v-260h-198v502h-59v113h59v85h198v-85h252v85h196v-85h62v-113h-62v-502zM274 427h252v74h-252v-74z" />
    <glyph glyph-name="hbar" unicode="&#x127;" horiz-adv-x="613" 
d="M-1 539v111h55v50h186v-50h81v-111h-81v-98c33.333 42.667 77.333 64 132 64c55.333 0 101.5 -19 138.5 -57s55.5 -96 55.5 -174v-274h-183v273c-2 48.667 -24.333 73 -67 73c-20 0 -37.667 -7.33301 -53 -22s-23.333 -35.667 -24 -63v-261h-185v539h-55z" />
    <glyph glyph-name="Itilde" unicode="&#x128;" horiz-adv-x="339" 
d="M268 0h-197v700h197v-700zM167 782c-51.333 28.667 -85.333 23.999 -102 -14.001l-99 65c16 44.667 45.667 74 89 88s83.666 9.66699 120.999 -13c46.667 -27.333 81.334 -21.666 104.001 17.001l94 -64c-17.333 -46.667 -44.5 -77.5 -81.5 -92.5
s-78.833 -10.5 -125.5 13.5z" />
    <glyph glyph-name="itilde" unicode="&#x129;" horiz-adv-x="292" 
d="M238 0h-184v494h184v-494zM146 569c-41.333 28.667 -68.668 23.998 -82.001 -14.002l-79 63c8.66699 29.333 22.667 52.166 42 68.499s39.833 24.333 61.5 24s43.167 -6.83301 64.5 -19.5c38 -25.333 65.667 -19.666 83 17.001l75 -62
c-14 -45.333 -35.667 -75.166 -65 -89.499s-62.666 -10.166 -99.999 12.501z" />
    <glyph glyph-name="Imacron" unicode="&#x12a;" horiz-adv-x="339" 
d="M268 0h-197v700h197v-700zM17 761v144h301v-144h-301z" />
    <glyph glyph-name="imacron" unicode="&#x12b;" horiz-adv-x="292" 
d="M238 0h-184v494h184v-494zM16 563v134h263v-134h-263z" />
    <glyph glyph-name="Ibreve" unicode="&#x12c;" horiz-adv-x="339" 
d="M268 0h-197v700h197v-700zM-7 923h134.002c0 -12 3 -21.5 9 -28.5s11.667 -11.333 17 -13s10.666 -2.5 15.999 -2.5s10.666 0.833008 15.999 2.5s11 6 17 13s9 16.5 9 28.5h134c1.33301 -52.667 -14.167 -94.167 -46.5 -124.5s-75.5 -45.5 -129.5 -45.5
s-97.167 15.167 -129.5 45.5s-47.833 71.833 -46.5 124.5z" />
    <glyph glyph-name="ibreve" unicode="&#x12d;" horiz-adv-x="292" 
d="M238 0h-184v494h184v-494zM-7 701h117.997c0 -11.333 2.5 -20.333 7.5 -27s10 -10.667 15 -12s9.83301 -2 14.5 -2s9.33398 0.666992 14.001 2s9.66699 5.33301 15 12s8 15.667 8 27h118c0.666992 -50 -13.166 -89.167 -41.499 -117.5s-66.166 -42.5 -113.499 -42.5
c-48 0 -86.167 14.167 -114.5 42.5s-41.833 67.5 -40.5 117.5z" />
    <glyph glyph-name="Iogonek" unicode="&#x12e;" horiz-adv-x="339" 
d="M180 -45c3.33301 -12.667 15.334 -19.001 36.001 -19.001s35.667 3 45 9l62 -83c-22.667 -20.667 -53 -35.667 -91 -45s-75.333 -9 -112 1s-62 30.333 -76 61c-9.33301 22 -11.333 44.5 -6 67.5s16.333 41.833 33 56.5v697h197v-700h-40
c-16 -1.33301 -28.833 -6.16602 -38.5 -14.499s-12.834 -18.5 -9.50098 -30.5z" />
    <glyph glyph-name="iogonek" unicode="&#x12f;" horiz-adv-x="294" 
d="M44 621c0 29.333 10.333 52.166 31 68.499s45 24.5 73 24.5s52.167 -8.16699 72.5 -24.5s30.5 -39.166 30.5 -68.499c0 -28.667 -10.333 -51.167 -31 -67.5s-44.667 -24.5 -72 -24.5c-28 0 -52.333 8.16699 -73 24.5s-31 38.833 -31 67.5zM241 -15l-1 14.9971v486h-185
v-476c-32 -26 -44.667 -60 -38 -102c5.33301 -36 25.666 -62 60.999 -78s73 -21 113 -15s71.667 19.333 95 40l-55 82c-12 -9.33301 -28.667 -13.666 -50 -12.999s-33.666 7.33398 -36.999 20.001c-4.66699 19.333 4.5 32.333 27.5 39s46.167 7.33398 69.5 2.00098z" />
    <glyph glyph-name="Idotaccent" unicode="&#x130;" horiz-adv-x="339" 
d="M71 0h197v700h-197v-700zM57 835c0 27.333 10.667 48.666 32 63.999s47 23 77 23c29.333 0 54.833 -7.66699 76.5 -23s32.5 -36.666 32.5 -63.999c0 -28 -10.833 -49.667 -32.5 -65s-47.167 -23 -76.5 -23c-30 0 -55.667 7.66699 -77 23s-32 37 -32 65z" />
    <glyph glyph-name="dotlessi" unicode="&#x131;" horiz-adv-x="292" 
d="M238 0h-184v494h184v-494z" />
    <glyph glyph-name="IJ" unicode="&#x132;" horiz-adv-x="1067" 
d="M268 0h-197v700h197v-700zM354 302h193c0.666992 -49.333 13 -85.833 37 -109.5s54.667 -35.5 92 -35.5c42 0 74.5 12.5 97.5 37.5s34.5 61.167 34.5 108.5v231h-186v166h384v-398c0 -94.667 -29.167 -171.167 -87.5 -229.5s-139.833 -87.5 -244.5 -87.5
c-213.333 0 -320 105.667 -320 317z" />
    <glyph glyph-name="ij" unicode="&#x133;" horiz-adv-x="585" 
d="M43 621c0 29.333 10.333 52.166 31 68.499s45 24.5 73 24.5s52.167 -8.16699 72.5 -24.5s30.5 -39.166 30.5 -68.499c0 -28.667 -10.333 -51.167 -31 -67.5s-44.667 -24.5 -72 -24.5c-28 0 -52.333 8.16699 -73 24.5s-31 38.833 -31 67.5zM54 0h185v486h-185v-486z
M336 621c0 29.333 10.333 52.166 31 68.499s45 24.5 73 24.5s52.167 -8.16699 72.5 -24.5s30.5 -39.166 30.5 -68.499c0 -28.667 -10.333 -51.167 -31 -67.5s-44.667 -24.5 -72 -24.5c-28 0 -52.333 8.16699 -73 24.5s-31 38.833 -31 67.5zM258 -72l-34.9971 -128.997
c39.333 -19.333 77.666 -29.833 114.999 -31.5s70.166 4.66602 98.499 18.999s51.166 38 68.499 71s26 72.833 26 119.5v509h-184v-509c0 -30.667 -8.16699 -50.334 -24.5 -59.001s-37.833 -5.33398 -64.5 9.99902z" />
    <glyph glyph-name="Jcircumflex" unicode="&#x134;" horiz-adv-x="728" 
d="M208 302h-193c0 -211.333 106.667 -317 320 -317c104.667 0 186.167 29.167 244.5 87.5s87.5 134.833 87.5 229.5v398h-384v-166h186v-231c0 -47.333 -11.5 -83.5 -34.5 -108.5s-55.5 -37.5 -97.5 -37.5c-37.333 0 -68 11.833 -92 35.5s-36.333 60.167 -37 109.5z
M375 924h119l158 -164v-9h-164l-53 49l-53 -49h-165v9z" />
    <glyph glyph-name="jcircumflex" unicode="&#x135;" horiz-adv-x="292" 
d="M72 723h101l135 -172v-9h-140l-46 52l-45 -52h-141v9zM-35 -72l-34.9971 -128.997c39.333 -19.333 77.666 -29.833 114.999 -31.5s70.166 4.66602 98.499 18.999s51.166 38 68.499 71s26 72.833 26 119.5v509h-184v-509c0 -30.667 -8 -50.334 -24 -59.001
s-37.667 -5.33398 -65 9.99902z" />
    <glyph glyph-name="Kcommaaccent" unicode="&#x136;" horiz-adv-x="703" 
d="M690 700v-12l-284 -331l308 -345v-12h-245l-200 233v-233h-198v700h198v-230l184 230h237zM449 -126c0 -30.667 -20 -84.667 -60 -162h-101l22 99c-37.333 6.66699 -56 28 -56 64c0 24 10 43 30 57s44 21 72 21c26 0 48 -6.83301 66 -20.5s27 -33.167 27 -58.5z" />
    <glyph glyph-name="kcommaaccent" unicode="&#x137;" horiz-adv-x="569" 
d="M54 700h185v-351l103 145h205v-8l-173 -224l201 -251v-11h-208l-128 172v-172h-185v700zM387 -125c0 -32 -19.333 -86.668 -58 -164.001h-96l21 100c-35.333 6.66699 -53 28.334 -53 65.001c0 24.667 9.5 44 28.5 58s41.833 21 68.5 21c24.667 0 45.667 -7 63 -21
s26 -33.667 26 -59z" />
    <glyph glyph-name="kgreenlandic" unicode="&#x138;" horiz-adv-x="569" 
d="M54 495h185v-146l103 145h205v-8l-173 -224l201 -251v-11h-208l-128 172v-172h-185v495z" />
    <glyph glyph-name="Lacute" unicode="&#x139;" horiz-adv-x="620" 
d="M269 700h-198v-700h533v168h-335v532zM354 910v-7l-110 -146h-163v6l78 147h195z" />
    <glyph glyph-name="lacute" unicode="&#x13a;" horiz-adv-x="290" 
d="M236 701h-182v-701h182v701zM320 906v-7l-104 -142h-153v5l73 144h184z" />
    <glyph glyph-name="Lcommaaccent" unicode="&#x13b;" horiz-adv-x="620" 
d="M71 700h198v-532h335v-168h-533v700zM430 -127c0 -33.333 -19.333 -89.666 -58 -168.999h-96l21 103c-35.333 6.66699 -53 29 -53 67c0 25.333 9.5 45.166 28.5 59.499s41.833 21.5 68.5 21.5c24.667 0 45.667 -7.16699 63 -21.5s26 -34.5 26 -60.5z" />
    <glyph glyph-name="lcommaaccent" unicode="&#x13c;" horiz-adv-x="290" 
d="M54 701h182v-701h-182v701zM236 -132c0 -33.333 -19.333 -89.666 -58 -168.999h-96l21 103c-35.333 6.66699 -53 29 -53 67c0 25.333 9.5 45.166 28.5 59.499s41.833 21.5 68.5 21.5c24.667 0 45.667 -7.16699 63 -21.5s26 -34.5 26 -60.5z" />
    <glyph glyph-name="Lcaron" unicode="&#x13d;" 
d="M71 700h198v-532h335v-168h-533v700zM379 467l47 235h161l-82 -235h-126z" />
    <glyph glyph-name="lcaron" unicode="&#x13e;" horiz-adv-x="383" 
d="M54 702h182v-702h-182v702zM261 464l47 236h161l-82 -236h-126z" />
    <glyph glyph-name="Ldot" unicode="&#x13f;" horiz-adv-x="620" 
d="M71 700h198v-532h335v-168h-533v700zM446 275c-32.667 0 -58.334 9.83301 -77.001 29.5s-28 41.5 -28 65.5s9.33301 45.833 28 65.5s44.334 29.5 77.001 29.5s58.334 -9.83301 77.001 -29.5s28 -41.5 28 -65.5s-9.33301 -45.833 -28 -65.5s-44.334 -29.5 -77.001 -29.5z
" />
    <glyph glyph-name="ldot" unicode="&#x140;" horiz-adv-x="481" 
d="M54 701h182v-701h-182v701zM386 245c-32.667 0 -58.334 9.83301 -77.001 29.5s-28 41.5 -28 65.5s9.33301 45.833 28 65.5s44.334 29.5 77.001 29.5s58.334 -9.83301 77.001 -29.5s28 -41.5 28 -65.5s-9.33301 -45.833 -28 -65.5s-44.334 -29.5 -77.001 -29.5z" />
    <glyph glyph-name="Lslash" unicode="&#x141;" horiz-adv-x="628" 
d="M277 453l99 52v-149l-99 -50v-140h336v-166h-533v209l-69 -35v145l69 35v346h197v-247z" />
    <glyph glyph-name="lslash" unicode="&#x142;" horiz-adv-x="331" 
d="M317 470v-131l-64 -32v-307h-182v215l-58 -32v135l58 30v339h182v-248z" />
    <glyph glyph-name="Nacute" unicode="&#x143;" horiz-adv-x="799" 
d="M535 317l-296 383.001h-168v-700h200v224l-3 153l292 -377h168v700h-199v-240c2.66699 -74.667 4.66699 -122.334 6 -143.001zM573 919.001v-8l-115 -155h-170v6l81 157h204z" />
    <glyph glyph-name="nacute" unicode="&#x144;" 
d="M390 0h184.001v274c0 82 -17.667 141 -53 177s-82 54.333 -140 55c-65.333 1.33301 -117.333 -20.667 -156 -66l-8 54h-163v-494h182v260c0 30.667 8.16699 54.167 24.5 70.5s36.5 24.5 60.5 24.5c19.333 0 35.666 -6.66699 48.999 -20s20 -34 20 -62v-273zM478.001 712
v-7l-103 -150h-151v6l72 151h182z" />
    <glyph glyph-name="Ncommaaccent" unicode="&#x145;" horiz-adv-x="799" 
d="M239 700l296 -383.001c-1.33301 20.667 -3.33301 68.334 -6 143.001v240h199v-700h-168l-292 377l3 -153v-224h-200v700h168zM502 -115.001c0 -33.333 -19.333 -89.666 -58 -168.999h-96l21 103c-35.333 6.66699 -53 29 -53 67c0 25.333 9.5 45.166 28.5 59.499
s41.833 21.5 68.5 21.5c24.667 0 45.667 -7.16699 63 -21.5s26 -34.5 26 -60.5z" />
    <glyph glyph-name="ncommaaccent" unicode="&#x146;" 
d="M574 0h-184.001v273c0 28 -6.66699 48.667 -20 62s-29.666 20 -48.999 20c-24 0 -44.167 -8.16699 -60.5 -24.5s-24.5 -39.833 -24.5 -70.5v-260h-182v494h163l8 -54c38.667 45.333 90.667 67.333 156 66c58 -0.666992 104.667 -19 140 -55s53 -95 53 -177v-274z
M404.999 -121c0 -33.333 -19.333 -89.666 -58 -168.999h-96l21 103c-35.333 6.66699 -53 29 -53 67c0 25.333 9.5 45.166 28.5 59.499s41.833 21.5 68.5 21.5c24.667 0 45.667 -7.16699 63 -21.5s26 -34.5 26 -60.5z" />
    <glyph glyph-name="Ncaron" unicode="&#x147;" horiz-adv-x="799" 
d="M535 317l-296 383.001h-168v-700h200v224l-3 153l292 -377h168v700h-199v-240c2.66699 -74.667 4.66699 -122.334 6 -143.001zM454 753.001h-113l-152 145v7h158l50 -43l51 43h158v-7z" />
    <glyph glyph-name="ncaron" unicode="&#x148;" 
d="M390 0h184.001v274c0 82 -17.667 141 -53 177s-82 54.333 -140 55c-65.333 1.33301 -117.333 -20.667 -156 -66l-8 54h-163v-494h182v260c0 30.667 8.16699 54.167 24.5 70.5s36.5 24.5 60.5 24.5c19.333 0 35.666 -6.66699 48.999 -20s20 -34 20 -62v-273zM370.001 553
h-109l-146 143v8h151l49 -43l49 43h151v-8z" />
    <glyph glyph-name="napostrophe" unicode="&#x149;" 
d="M574 0h-184.001v273c0 28 -6.66699 48.667 -20 62s-29.666 20 -48.999 20c-24 0 -44.167 -8.16699 -60.5 -24.5s-24.5 -39.833 -24.5 -70.5v-260h-182v494h163l8 -54c38.667 45.333 90.667 67.333 156 66c58 -0.666992 104.667 -19 140 -55s53 -95 53 -177v-274z" />
    <glyph glyph-name="Eng" unicode="&#x14a;" horiz-adv-x="794" 
d="M526 700h196.999v-723c0 -96 -27.5 -159.5 -82.5 -190.5s-130.167 -26.833 -225.5 12.5l35 129c26.667 -15.333 48.834 -18.5 66.501 -9.5s26.5 28.5 26.5 58.5v50l-177 220.5l-97 118.5v-366h-198v700h165l290 -369v369z" />
    <glyph glyph-name="eng" unicode="&#x14b;" 
d="M266 -198l34.9971 125.999c27.333 -14.667 49.333 -17.167 66 -7.5s25 28.5 25 56.5v296c0 28 -7 48.667 -21 62s-30.667 20 -50 20c-24 0 -44.167 -8.16699 -60.5 -24.5s-24.5 -39.833 -24.5 -70.5v-260h-182v494h163l8 -54c38.667 45.333 90.667 67.333 156 66
c58 -0.666992 104.667 -19 140 -55s53 -95 53 -177v-299c0 -45.333 -8.66699 -84.166 -26 -116.499s-40.166 -55.5 -68.499 -69.5s-61.166 -20.167 -98.499 -18.5s-75.666 12.167 -114.999 31.5z" />
    <glyph glyph-name="Omacron" unicode="&#x14c;" horiz-adv-x="842" 
d="M810 350c0 -114.667 -35.5 -204.5 -106.5 -269.5s-165.167 -97.5 -282.5 -97.5c-116.667 0 -210.667 32.5 -282 97.5s-107 154.833 -107 269.5c0 113.333 35.833 202.833 107.5 268.5s165.5 98.5 281.5 98.5c117.333 0 211.5 -32.5 282.5 -97.5
s106.5 -154.833 106.5 -269.5zM612 350c0 60 -17.333 108 -52 144s-81 54 -139 54c-56.667 0 -102.667 -18.5 -138 -55.5s-53 -84.5 -53 -142.5c0 -58.667 17.833 -106.334 53.5 -143.001s81.5 -55 137.5 -55c57.333 0 103.5 18.333 138.5 55s52.5 84.334 52.5 143.001z
M245 770v140h350v-140h-350z" />
    <glyph glyph-name="omacron" unicode="&#x14d;" horiz-adv-x="618" 
d="M309 505c79.333 0 146.168 -22 200.501 -66s81.5 -108.333 81.5 -193c0 -84 -27.833 -148 -83.5 -192s-121.834 -66 -198.501 -66c-36.667 0 -71.5 5.16699 -104.5 15.5s-62.833 25.5 -89.5 45.5s-48 47 -64 81s-24 72.667 -24 116c0 58 13.833 107.167 41.5 147.5
s62.167 69 103.5 86s87 25.5 137 25.5zM309.002 139c30.667 0 55.332 10.167 73.999 30.5s28 45.833 28 76.5c0 30 -9.16699 55.5 -27.5 76.5s-43.166 31.5 -74.499 31.5s-56.166 -10.5 -74.499 -31.5s-27.5 -46.5 -27.5 -76.5s9.16699 -55.333 27.5 -76
s43.166 -31 74.499 -31zM156 555v143h305v-143h-305z" />
    <glyph glyph-name="Obreve" unicode="&#x14e;" horiz-adv-x="842" 
d="M810 350c0 -114.667 -35.5 -204.5 -106.5 -269.5s-165.167 -97.5 -282.5 -97.5c-116.667 0 -210.667 32.5 -282 97.5s-107 154.833 -107 269.5c0 113.333 35.833 202.833 107.5 268.5s165.5 98.5 281.5 98.5c117.333 0 211.5 -32.5 282.5 -97.5
s106.5 -154.833 106.5 -269.5zM612 350c0 60 -17.333 108 -52 144s-81 54 -139 54c-56.667 0 -102.667 -18.5 -138 -55.5s-53 -84.5 -53 -142.5c0 -58.667 17.833 -106.334 53.5 -143.001s81.5 -55 137.5 -55c57.333 0 103.5 18.333 138.5 55s52.5 84.334 52.5 143.001z
M237 919h141.998c0 -10.667 3.16699 -19.334 9.5 -26.001s12.333 -10.834 18 -12.501s11.5 -2.5 17.5 -2.5c5.33301 0 10.833 0.833008 16.5 2.5s11.667 5.83398 18 12.501s9.5 15.334 9.5 26.001h143c1.33301 -49.333 -15.167 -88 -49.5 -116s-80.166 -42 -137.499 -42
s-103.166 14 -137.499 42s-50.833 66.667 -49.5 116z" />
    <glyph glyph-name="obreve" unicode="&#x14f;" horiz-adv-x="618" 
d="M309 505c79.333 0 146.168 -22 200.501 -66s81.5 -108.333 81.5 -193c0 -84 -27.833 -148 -83.5 -192s-121.834 -66 -198.501 -66c-36.667 0 -71.5 5.16699 -104.5 15.5s-62.833 25.5 -89.5 45.5s-48 47 -64 81s-24 72.667 -24 116c0 58 13.833 107.167 41.5 147.5
s62.167 69 103.5 86s87 25.5 137 25.5zM309.002 139c30.667 0 55.332 10.167 73.999 30.5s28 45.833 28 76.5c0 30 -9.16699 55.5 -27.5 76.5s-43.166 31.5 -74.499 31.5s-56.166 -10.5 -74.499 -31.5s-27.5 -46.5 -27.5 -76.5s9.16699 -55.333 27.5 -76
s43.166 -31 74.499 -31zM134 707h132.999c0 -26.667 13.667 -40 41 -40c28 0 42 13.333 42 40h133c1.33301 -48 -14.167 -85.833 -46.5 -113.5s-75.166 -41.5 -128.499 -41.5s-96 13.833 -128 41.5s-47.333 65.5 -46 113.5z" />
    <glyph glyph-name="Ohungarumlaut" unicode="&#x150;" horiz-adv-x="842" 
d="M810 350c0 114.667 -35.5 204.5 -106.5 269.5s-165.167 97.5 -282.5 97.5c-116 0 -209.833 -32.833 -281.5 -98.5s-107.5 -155.167 -107.5 -268.5c0 -114.667 35.667 -204.5 107 -269.5s165.333 -97.5 282 -97.5c117.333 0 211.5 32.5 282.5 97.5
s106.5 154.833 106.5 269.5zM612 350c0 -58.667 -17.5 -106.334 -52.5 -143.001s-81.167 -55 -138.5 -55c-56 0 -101.833 18.333 -137.5 55s-53.5 84.334 -53.5 143.001c0 58 17.667 105.5 53 142.5s81.333 55.5 138 55.5c58 0 104.333 -18 139 -54s52 -84 52 -144zM321 912
h170v-7l-103 -142h-166zM548 912h170v-7l-103 -142h-166z" />
    <glyph glyph-name="ohungarumlaut" unicode="&#x151;" horiz-adv-x="618" 
d="M309 505c-50 0 -95.6689 -8.5 -137.002 -25.5s-75.833 -45.667 -103.5 -86s-41.5 -89.5 -41.5 -147.5c0 -43.333 8 -82 24 -116s37.333 -61 64 -81s56.5 -35.167 89.5 -45.5s67.833 -15.5 104.5 -15.5c76.667 0 142.834 22 198.501 66s83.5 108 83.5 192
c0 84.667 -27.167 149 -81.5 193s-121.166 66 -200.499 66zM308.998 139c-31.333 0 -56.1641 10.333 -74.4971 31s-27.5 46 -27.5 76s9.16699 55.5 27.5 76.5s43.166 31.5 74.499 31.5s56.166 -10.5 74.499 -31.5s27.5 -46.5 27.5 -76.5
c0 -30.667 -9.33301 -56.167 -28 -76.5s-43.334 -30.5 -74.001 -30.5zM218 696h160v-7l-97 -137h-156zM432 696h160v-7l-97 -137h-156z" />
    <glyph glyph-name="OE" unicode="&#x152;" horiz-adv-x="1023" 
d="M979 156l-0.000976562 -156h-448c-37.333 -11.333 -80.666 -17 -129.999 -17c-120.667 0 -212.167 33.667 -274.5 101s-93.5 157 -93.5 269c0 110 31.5 198.167 94.5 264.5s154.167 99.5 273.5 99.5c33.333 0 75.333 -5.33301 126 -16h444v-152h-302v-112h284v-150h-284
v-131h310zM221.999 352c0 -62.667 16.667 -115.833 50 -159.5s80.333 -65.5 141 -65.5c34.667 0 64 5.33301 88 16v416c-27.333 10.667 -58.333 16 -93 16c-54 0 -98.5 -22 -133.5 -66s-52.5 -96.333 -52.5 -157z" />
    <glyph glyph-name="oe" unicode="&#x153;" horiz-adv-x="948" 
d="M574 313h177.001c-1.33301 24.667 -15.833 42.167 -43.5 52.5s-55.834 10.5 -84.501 0.5s-45 -27.667 -49 -53zM309.001 139c31.333 0 55.5 10 72.5 30s25.5 45.667 25.5 77s-8.5 57.166 -25.5 77.499s-41.167 30.5 -72.5 30.5s-55.5 -10.167 -72.5 -30.5
s-25.5 -46.166 -25.5 -77.499s8.5 -57 25.5 -77s41.167 -30 72.5 -30zM309.001 505c78.667 0 139.337 -25.001 182.004 -75.001c19.333 22.667 44.5 41 75.5 55s62.167 21 93.5 21c90.667 0 161.167 -28.167 211.5 -84.5s65.166 -131.833 44.499 -226.5h-343
c6 -20 19.833 -35.5 41.5 -46.5s43.834 -16.5 66.501 -16.5c49.333 0 91.666 13.333 126.999 40l92 -106c-58.667 -50.667 -135.334 -76 -230.001 -76c-79.333 0 -139.333 24.667 -180 74c-54.667 -50.667 -119 -76 -193 -76c-76.667 0 -140.834 22.333 -192.501 67
s-77.5 108.334 -77.5 191.001c0 86.667 27.167 151.5 81.5 194.5s121.166 64.5 200.499 64.5z" />
    <glyph glyph-name="Racute" unicode="&#x154;" horiz-adv-x="737" 
d="M719 0v12.001l-182 236c55.333 24.667 93.833 54.167 115.5 88.5s32.5 75.166 32.5 122.499c0 67.333 -24 124.333 -72 171s-114.667 70 -200 70h-342v-700h198v227h69l163 -227h218zM269 542.001l144.001 0.000976562c24.667 0 43.667 -8.5 57 -25.5s20 -37.5 20 -61.5
c0 -22.667 -6.33301 -41.834 -19 -57.501s-31.334 -23.5 -56.001 -23.5h-146v168zM517.001 923.002v-8l-109 -152h-161v5l77 155h193z" />
    <glyph glyph-name="racute" unicode="&#x155;" horiz-adv-x="472" 
d="M219 494l-165.001 -0.000976562v-494h184v257c0 30.667 8 53.834 24 69.501s36.333 23.5 61 23.5c30 0 57.667 -10 83 -30l74 133c-33.333 35.333 -76.666 53 -129.999 53c-55.333 0 -95.333 -22 -120 -66zM398.999 704.999v-7l-102 -139h-149v5l71 141h180z" />
    <glyph glyph-name="Rcommaaccent" unicode="&#x156;" horiz-adv-x="737" 
d="M719 12v-12.001h-218l-163 227h-69v-227h-198v700h342c85.333 0 152 -23.333 200 -70s72 -103.667 72 -171c0 -47.333 -10.833 -88.166 -32.5 -122.499s-60.167 -63.833 -115.5 -88.5zM413 541.999l-144.001 -0.000976562v-168h146c24.667 0 43.334 7.83301 56.001 23.5
s19 34.834 19 57.501c0 24 -6.66699 44.5 -20 61.5s-32.333 25.5 -57 25.5zM465.999 -123.002c0 -33.333 -19.333 -89.666 -58 -168.999h-96l21 103c-35.333 6.66699 -53 29 -53 67c0 25.333 9.5 45.166 28.5 59.499s41.833 21.5 68.5 21.5
c24.667 0 45.667 -7.16699 63 -21.5s26 -34.5 26 -60.5z" />
    <glyph glyph-name="rcommaaccent" unicode="&#x157;" horiz-adv-x="472" 
d="M54 494l165.001 0.000976562l11 -54c24.667 44 64.667 66 120 66c53.333 0 96.666 -17.667 129.999 -53l-74 -133c-25.333 20 -53 30 -83 30c-24.667 0 -45 -7.83301 -61 -23.5s-24 -38.834 -24 -69.501v-257h-184v494zM235.001 -126.999
c0 -30.667 -18.667 -85.334 -56 -164.001h-93l20 100c-34 6.66699 -51 28.334 -51 65.001c0 24.667 9.16699 44 27.5 58s40.5 21 66.5 21c24 0 44.333 -7 61 -21s25 -33.667 25 -59z" />
    <glyph glyph-name="Rcaron" unicode="&#x158;" horiz-adv-x="737" 
d="M719 0v12.001l-182 236c55.333 24.667 93.833 54.167 115.5 88.5s32.5 75.166 32.5 122.499c0 67.333 -24 124.333 -72 171s-114.667 70 -200 70h-342v-700h198v227h69l163 -227h218zM269 542.001l144.001 0.000976562c24.667 0 43.667 -8.5 57 -25.5s20 -37.5 20 -61.5
c0 -22.667 -6.33301 -41.834 -19 -57.501s-31.334 -23.5 -56.001 -23.5h-146v168zM399.001 755.002h-115l-154 151v8h160l51 -46l52 46h159v-8z" />
    <glyph glyph-name="rcaron" unicode="&#x159;" horiz-adv-x="472" 
d="M219 494l-165.001 -0.000976562v-494h184v257c0 30.667 8 53.834 24 69.501s36.333 23.5 61 23.5c30 0 57.667 -10 83 -30l74 133c-33.333 35.333 -76.666 53 -129.999 53c-55.333 0 -95.333 -22 -120 -66zM312.999 551.999h-107l-142 143v7h148l47 -42l48 42h148v-7z
" />
    <glyph glyph-name="Sacute" unicode="&#x15a;" horiz-adv-x="666" 
d="M502 506l97.9971 124.999c-70.667 55.333 -158 83 -262 83c-81.333 0 -150.5 -18 -207.5 -54s-85.5 -88.667 -85.5 -158c0 -42 7.33301 -77.5 22 -106.5s36.167 -51.5 64.5 -67.5s57.833 -27.833 88.5 -35.5s67.334 -13.5 110.001 -17.5
c78 -7.33301 117 -28.666 117 -63.999c0 -19.333 -10 -34.5 -30 -45.5s-46.667 -16.5 -80 -16.5c-82.667 0 -151 26.333 -205 79l-109 -125c46 -48.667 92.667 -81.5 140 -98.5s105 -25.167 173 -24.5c54.667 0.666992 104.5 8.5 149.5 23.5s82.5 40.167 112.5 75.5
s45 78.333 45 129c0 38.667 -8 72.5 -24 101.5s-38.167 52.167 -66.5 69.5s-58.166 30.833 -89.499 40.5s-66 16.5 -104 20.5c-41.333 4 -71 9.83301 -89 17.5s-27 22.5 -27 44.5c0 17.333 9.16699 30.333 27.5 39s40.833 13 67.5 13c66.667 0 121.334 -16 164.001 -48z
M503.997 928.999v-8l-108 -157h-160v6l76 159h192z" />
    <glyph glyph-name="sacute" unicode="&#x15b;" horiz-adv-x="511" 
d="M19 52l60.001 134c51.333 -33.333 109.666 -51.666 174.999 -54.999c33.333 0 50 8 50 24c0 15.333 -17.333 24.333 -52 27c-26 0.666992 -50.667 4 -74 10s-45.833 15 -67.5 27s-38.834 28.667 -51.501 50s-19 46.333 -19 75c0 55.333 21.833 96.166 65.5 122.499
s97.834 39.5 162.501 39.5c81.333 0 148.666 -20 201.999 -60l-78 -110c-13.333 8.66699 -32.333 16 -57 22s-47 8.66699 -67 8c-29.333 0 -44 -8 -44 -24c0 -15.333 12.333 -23.333 37 -24c151.333 -4.66699 227 -59 227 -163c0 -38.667 -11.167 -71 -33.5 -97
s-50.166 -44.333 -83.499 -55s-71 -16 -113 -16c-44 0 -88 5.83301 -132 17.5s-79.667 27.5 -107 47.5zM428.001 709v-7l-100 -146h-148v5l70 148h178z" />
    <glyph glyph-name="Scircumflex" unicode="&#x15c;" horiz-adv-x="666" 
d="M502 506l97.9971 124.999c-70.667 55.333 -158 83 -262 83c-81.333 0 -150.5 -18 -207.5 -54s-85.5 -88.667 -85.5 -158c0 -42 7.33301 -77.5 22 -106.5s36.167 -51.5 64.5 -67.5s57.833 -27.833 88.5 -35.5s67.334 -13.5 110.001 -17.5
c78 -7.33301 117 -28.666 117 -63.999c0 -19.333 -10 -34.5 -30 -45.5s-46.667 -16.5 -80 -16.5c-82.667 0 -151 26.333 -205 79l-109 -125c46 -48.667 92.667 -81.5 140 -98.5s105 -25.167 173 -24.5c54.667 0.666992 104.5 8.5 149.5 23.5s82.5 40.167 112.5 75.5
s45 78.333 45 129c0 38.667 -8 72.5 -24 101.5s-38.167 52.167 -66.5 69.5s-58.166 30.833 -89.499 40.5s-66 16.5 -104 20.5c-41.333 4 -71 9.83301 -89 17.5s-27 22.5 -27 44.5c0 17.333 9.16699 30.333 27.5 39s40.833 13 67.5 13c66.667 0 121.334 -16 164.001 -48z
M289.997 920.999h114l152 -157v-8h-158l-51 47l-51 -47h-158v8z" />
    <glyph glyph-name="scircumflex" unicode="&#x15d;" horiz-adv-x="511" 
d="M19 52l60.001 134c51.333 -33.333 109.666 -51.666 174.999 -54.999c33.333 0 50 8 50 24c0 15.333 -17.333 24.333 -52 27c-26 0.666992 -50.667 4 -74 10s-45.833 15 -67.5 27s-38.834 28.667 -51.501 50s-19 46.333 -19 75c0 55.333 21.833 96.166 65.5 122.499
s97.834 39.5 162.501 39.5c81.333 0 148.666 -20 201.999 -60l-78 -110c-13.333 8.66699 -32.333 16 -57 22s-47 8.66699 -67 8c-29.333 0 -44 -8 -44 -24c0 -15.333 12.333 -23.333 37 -24c151.333 -4.66699 227 -59 227 -163c0 -38.667 -11.167 -71 -33.5 -97
s-50.166 -44.333 -83.499 -55s-71 -16 -113 -16c-44 0 -88 5.83301 -132 17.5s-79.667 27.5 -107 47.5zM218.001 708h109l145 -153v-8h-151l-49 46l-48 -46h-151v8z" />
    <glyph glyph-name="Scedilla" unicode="&#x15e;" horiz-adv-x="668" 
d="M601 631l-97.9951 -124.997c-42.667 32 -97.334 48 -164.001 48c-26.667 0 -49.167 -4.33301 -67.5 -13s-27.5 -21.667 -27.5 -39c0 -22 9 -36.833 27 -44.5s47.667 -13.5 89 -17.5c38 -4 72.667 -10.833 104 -20.5s61.166 -23.167 89.499 -40.5s50.5 -40.5 66.5 -69.5
s24 -62.833 24 -101.5c0 -66.667 -24 -118.834 -72 -156.501s-109 -60.5 -183 -68.5l-10 -28c44.667 -4.66699 76 -20 94 -46s21.667 -56.333 11 -91c-12.667 -38.667 -39.834 -66.334 -81.501 -83.001s-85.167 -20.334 -130.5 -11.001s-80 28.666 -104 57.999l67 68
c17.333 -15.333 38.666 -24 63.999 -26s42 6.33301 50 25c4.66699 16.667 -4.5 28.834 -27.5 36.501s-43.833 5.83398 -62.5 -5.49902l-29 20l33 83c-91.333 8 -171 48 -239 120l109 125c54 -52.667 122.333 -79 205 -79c33.333 0 60 5.5 80 16.5s30 26.167 30 45.5
c0 35.333 -39 56.666 -117 63.999c-42.667 4 -79.334 9.83301 -110.001 17.5s-60.167 19.5 -88.5 35.5s-49.833 38.5 -64.5 67.5s-22 64.5 -22 106.5c0 69.333 28.5 122 85.5 158s126.167 54 207.5 54c104 0 191.333 -27.667 262 -83z" />
    <glyph glyph-name="scedilla" unicode="&#x15f;" horiz-adv-x="513" 
d="M20 52l60.0039 134.003c51.333 -33.333 109.666 -51.666 174.999 -54.999c33.333 0 50 8 50 24c0 15.333 -17.333 24.333 -52 27c-26 0.666992 -50.667 4 -74 10s-45.833 15 -67.5 27s-38.834 28.667 -51.501 50s-19 46.333 -19 75c0 55.333 21.833 96.166 65.5 122.499
s97.834 39.5 162.501 39.5c81.333 0 148.666 -20 201.999 -60l-78 -110c-13.333 8.66699 -32.333 16 -57 22s-47 8.66699 -67 8c-29.333 0 -44 -8 -44 -24c0 -15.333 12.333 -23.333 37 -24c151.333 -4.66699 227 -59 227 -163c0 -48.667 -16.333 -86.5 -49 -113.5
s-75 -43.833 -127 -50.5l-14 -36c40.667 -3.33301 69.667 -17.5 87 -42.5s20.666 -53.5 9.99902 -85.5c-12.667 -35.333 -38 -60.333 -76 -75s-77.5 -17.334 -118.5 -8.00098s-72.167 27.333 -93.5 54l60 62c14.667 -13.333 34.167 -21.166 58.5 -23.499
s39.833 4.5 46.5 20.5c4 15.333 -4.5 26.666 -25.5 33.999s-39.833 5.66602 -56.5 -5.00098l-28 19l36 86c-76.667 9.33301 -136.334 29.666 -179.001 60.999z" />
    <glyph glyph-name="Scaron" unicode="&#x160;" horiz-adv-x="666" 
d="M502 506l97.9971 124.999c-70.667 55.333 -158 83 -262 83c-81.333 0 -150.5 -18 -207.5 -54s-85.5 -88.667 -85.5 -158c0 -42 7.33301 -77.5 22 -106.5s36.167 -51.5 64.5 -67.5s57.833 -27.833 88.5 -35.5s67.334 -13.5 110.001 -17.5
c78 -7.33301 117 -28.666 117 -63.999c0 -19.333 -10 -34.5 -30 -45.5s-46.667 -16.5 -80 -16.5c-82.667 0 -151 26.333 -205 79l-109 -125c46 -48.667 92.667 -81.5 140 -98.5s105 -25.167 173 -24.5c54.667 0.666992 104.5 8.5 149.5 23.5s82.5 40.167 112.5 75.5
s45 78.333 45 129c0 38.667 -8 72.5 -24 101.5s-38.167 52.167 -66.5 69.5s-58.166 30.833 -89.499 40.5s-66 16.5 -104 20.5c-41.333 4 -71 9.83301 -89 17.5s-27 22.5 -27 44.5c0 17.333 9.16699 30.333 27.5 39s40.833 13 67.5 13c66.667 0 121.334 -16 164.001 -48z
M401.997 761.999h-115l-154 150v7h160l51 -44l52 44h160v-7z" />
    <glyph glyph-name="scaron" unicode="&#x161;" horiz-adv-x="511" 
d="M19 52l60.001 134c51.333 -33.333 109.666 -51.666 174.999 -54.999c33.333 0 50 8 50 24c0 15.333 -17.333 24.333 -52 27c-26 0.666992 -50.667 4 -74 10s-45.833 15 -67.5 27s-38.834 28.667 -51.501 50s-19 46.333 -19 75c0 55.333 21.833 96.166 65.5 122.499
s97.834 39.5 162.501 39.5c81.333 0 148.666 -20 201.999 -60l-78 -110c-13.333 8.66699 -32.333 16 -57 22s-47 8.66699 -67 8c-29.333 0 -44 -8 -44 -24c0 -15.333 12.333 -23.333 37 -24c151.333 -4.66699 227 -59 227 -163c0 -38.667 -11.167 -71 -33.5 -97
s-50.166 -44.333 -83.499 -55s-71 -16 -113 -16c-44 0 -88 5.83301 -132 17.5s-79.667 27.5 -107 47.5zM324.001 552h-103l-139 143v7h144l46 -42l47 42h143v-7z" />
    <glyph glyph-name="Tcommaaccent" unicode="&#x162;" horiz-adv-x="636" 
d="M141 -211l62.998 66.0029c16 -16 38.167 -25.167 66.5 -27.5s45.833 6.16699 52.5 25.5c5.33301 20 -4.83398 33.667 -30.501 41s-47.5 4.66602 -65.5 -8.00098l-28 21l21 93l-1 537h-204v163h606v-163h-205v-537h-56l-9 -36
c42.667 -4.66699 72.834 -20.834 90.501 -48.501s20.834 -59.167 9.50098 -94.5c-12.667 -39.333 -40 -67.5 -82 -84.5s-85.167 -20.333 -129.5 -10s-77.166 31.166 -98.499 62.499z" />
    <glyph glyph-name="tcommaaccent" unicode="&#x163;" horiz-adv-x="434" 
d="M99 614l182.999 20.002v-143h111v-141h-112v-162c0.666992 -32 17 -48 49 -48c18.667 0 36.667 5.66699 54 17l40 -136c-36 -20 -78.333 -31 -127 -33l-13 -32c42.667 -4.66699 72.834 -19.5 90.501 -44.5s20.834 -53.5 9.50098 -85.5c-14 -38 -40.667 -64.5 -80 -79.5
s-80 -17.5 -122 -7.5s-75 29.333 -99 58l64 60c16 -14.667 36.167 -23 60.5 -25s40.166 5.66699 47.499 23c4.66699 16 -4 27.667 -26 35s-41.667 5.66602 -59 -5.00098l-28 19l43 103c-59.333 29.333 -88 89.666 -86 180.999v162h-79v141h79v123z" />
    <glyph glyph-name="Tcaron" unicode="&#x164;" horiz-adv-x="636" 
d="M219 537v-537h197v537h205v163h-606v-163h204zM378 751h-114l-152 157v8h158l51 -47l51 47h158v-8z" />
    <glyph glyph-name="tcaron" unicode="&#x165;" horiz-adv-x="528" 
d="M98 614l183 20v-143h86v-141h-87v-162c0.666992 -32 17 -48 49 -48c19.333 0 37.333 5.66699 54 17l40 -136c-38.667 -22 -86 -33 -142 -33c-55.333 0 -100 15.333 -134 46s-50.333 82 -49 154v162h-79v141h79v123zM393 417l45 231h158l-80 -231h-123z" />
    <glyph glyph-name="Tbar" unicode="&#x166;" horiz-adv-x="645" 
d="M108 272v141h115v122h-204v165h606v-165h-205v-122h120v-141h-120v-272h-197v272h-115z" />
    <glyph glyph-name="tbar" unicode="&#x167;" horiz-adv-x="431" 
d="M37 201v102h60v47h-79v141h79v123l183 20v-143h111v-141h-112v-47h82v-102h-82v-13c0.666992 -32 17 -48 49 -48c18.667 0 36.667 5.66699 54 17l40 -136c-38.667 -22 -86 -33 -142 -33c-55.333 0 -100 15.333 -134 46s-50.333 82 -49 154v13h-60z" />
    <glyph glyph-name="Utilde" unicode="&#x168;" horiz-adv-x="780" 
d="M523 699l197 -0.000976562v-391c0.666992 -102.667 -28.333 -182.167 -87 -238.5s-139.667 -84.5 -243 -84.5c-104 0 -185 27.833 -243 83.5s-87 136.167 -87 241.5v389h197v-389c0 -53.333 11.667 -92.666 35 -117.999s56 -38 98 -38c41.333 0 73.833 12.833 97.5 38.5
s35.5 64.167 35.5 115.5v391zM378 774.999c-50.667 30.667 -84.668 25.6641 -102.001 -15.0029l-97 69c16 47.333 45.333 78.333 88 93s82.334 10 119.001 -14c20.667 -14 40 -20.167 58 -18.5s33 13.834 45 36.501l94 -68c-17.333 -49.333 -44.333 -81.666 -81 -96.999
s-78 -10.666 -124 14.001z" />
    <glyph glyph-name="utilde" unicode="&#x169;" 
d="M48 494h184.001v-273c0 -28 6.66699 -48.667 20 -62s29.666 -20 48.999 -20c24 0 44.167 7.66699 60.5 23s24.5 38.333 24.5 69v263h182v-494h-163l-8 54c-38.667 -45.333 -90.667 -67.333 -156 -66c-58 0.666992 -104.667 19 -140 55s-53 95 -53 177v274zM309.001 573
c-50 31.333 -83.333 26.001 -100 -15.999l-96 71c16 49.333 45 81.333 87 96s81.333 9.66699 118 -15c46 -28.667 79.667 -22.334 101 18.999l92 -69c-16.667 -51.333 -43 -85 -79 -101s-77 -11 -123 15z" />
    <glyph glyph-name="Umacron" unicode="&#x16a;" horiz-adv-x="780" 
d="M523 699l197 -0.000976562v-391c0.666992 -102.667 -28.333 -182.167 -87 -238.5s-139.667 -84.5 -243 -84.5c-104 0 -185 27.833 -243 83.5s-87 136.167 -87 241.5v389h197v-389c0 -53.333 11.667 -92.666 35 -117.999s56 -38 98 -38c41.333 0 73.833 12.833 97.5 38.5
s35.5 64.167 35.5 115.5v391zM225 758.999v147h333v-147h-333z" />
    <glyph glyph-name="umacron" unicode="&#x16b;" 
d="M48 494h184.001v-273c0 -28 6.66699 -48.667 20 -62s29.666 -20 48.999 -20c24 0 44.167 7.66699 60.5 23s24.5 38.333 24.5 69v263h182v-494h-163l-8 54c-38.667 -45.333 -90.667 -67.333 -156 -66c-58 0.666992 -104.667 19 -140 55s-53 95 -53 177v274zM154.001 570
v139h311v-139h-311z" />
    <glyph glyph-name="Ubreve" unicode="&#x16c;" horiz-adv-x="780" 
d="M523 699l197 -0.000976562v-391c0.666992 -102.667 -28.333 -182.167 -87 -238.5s-139.667 -84.5 -243 -84.5c-104 0 -185 27.833 -243 83.5s-87 136.167 -87 241.5v389h197v-389c0 -53.333 11.667 -92.666 35 -117.999s56 -38 98 -38c41.333 0 73.833 12.833 97.5 38.5
s35.5 64.167 35.5 115.5v391zM204 917.999l145 -0.000976562c0 -16 5.16699 -27 15.5 -33s20.5 -9 30.5 -9c5.33301 0 11 0.833008 17 2.5s12.167 5.83398 18.5 12.501s9.5 15.667 9.5 27h145c1.33301 -50.667 -15.5 -90.834 -50.5 -120.501s-81.5 -44.5 -139.5 -44.5
c-58.667 0 -105.5 14.833 -140.5 44.5s-51.833 69.834 -50.5 120.501z" />
    <glyph glyph-name="ubreve" unicode="&#x16d;" 
d="M48 494h184.001v-273c0 -28 6.66699 -48.667 20 -62s29.666 -20 48.999 -20c24 0 44.167 7.66699 60.5 23s24.5 38.333 24.5 69v263h182v-494h-163l-8 54c-38.667 -45.333 -90.667 -67.333 -156 -66c-58 0.666992 -104.667 19 -140 55s-53 95 -53 177v274zM132.001 708
l140.003 -0.000976562c0 -16 4.83301 -27 14.5 -33s19.5 -9 29.5 -9c5.33301 0 10.833 0.833008 16.5 2.5s11.5 5.83398 17.5 12.501s9 15.667 9 27h140c1.33301 -49.333 -14.834 -88.333 -48.501 -117s-78.5 -43 -134.5 -43c-56.667 0 -101.834 14.167 -135.501 42.5
s-49.834 67.5 -48.501 117.5z" />
    <glyph glyph-name="Uring" unicode="&#x16e;" horiz-adv-x="780" 
d="M523 699l197 -0.000976562v-391c0.666992 -102.667 -28.333 -182.167 -87 -238.5s-139.667 -84.5 -243 -84.5c-104 0 -185 27.833 -243 83.5s-87 136.167 -87 241.5v389h197v-389c0 -53.333 11.667 -92.666 35 -117.999s56 -38 98 -38c41.333 0 73.833 12.833 97.5 38.5
s35.5 64.167 35.5 115.5v391zM396 990.999c46 0 82.166 -13.002 108.499 -39.002s39.666 -54.833 39.999 -86.5s-12.667 -60.5 -39 -86.5s-62.833 -39 -109.5 -39c-30.667 0 -57.167 6.16699 -79.5 18.5s-38.666 27.833 -48.999 46.5s-15.5 38.834 -15.5 60.501
s5 41.834 15 60.501s26.333 34.167 49 46.5s49.334 18.5 80.001 18.5zM397.999 900.997c-17.333 0 -29.333 -5.83301 -36 -17.5s-6.66699 -23.334 0 -35.001s18.667 -17.5 36 -17.5c16.667 0 28.5 5.83301 35.5 17.5s7 23.334 0 35.001s-18.833 17.5 -35.5 17.5z" />
    <glyph glyph-name="uring" unicode="&#x16f;" 
d="M48 494h184.001v-273c0 -28 6.66699 -48.667 20 -62s29.666 -20 48.999 -20c24 0 44.167 7.66699 60.5 23s24.5 38.333 24.5 69v263h182v-494h-163l-8 54c-38.667 -45.333 -90.667 -67.333 -156 -66c-58 0.666992 -104.667 19 -140 55s-53 95 -53 177v274zM314.001 763
c35.333 0 65.002 -7.83594 89.002 -23.5029s39 -34.667 45 -57s6.16699 -44.666 0.5 -66.999s-20.5 -41.333 -44.5 -57s-54 -23.5 -90 -23.5c-42.667 0 -76.334 11.833 -101.001 35.5s-37 49.834 -37 78.501s12.167 54.834 36.5 78.501s58.166 35.5 101.499 35.5z
M316.003 680.997c-16.667 0 -28.334 -5.16699 -35.001 -15.5s-6.66699 -20.833 0 -31.5s18.334 -16 35.001 -16c16 0 27.167 5.33301 33.5 16s6.33301 21.167 0 31.5s-17.5 15.5 -33.5 15.5z" />
    <glyph glyph-name="Uhungarumlaut" unicode="&#x170;" horiz-adv-x="780" 
d="M720 699l-197 0.000976562v-391c0 -51.333 -11.833 -89.833 -35.5 -115.5s-56.167 -38.5 -97.5 -38.5c-42 0 -74.667 12.667 -98 38s-35 64.666 -35 117.999v389h-197v-389c0 -105.333 29 -185.833 87 -241.5s139 -83.5 243 -83.5c103.333 0 184.333 28.167 243 84.5
s87.667 135.833 87 238.5v391zM286 909.001h166v-8l-101 -152h-162zM508 909.001h166v-8l-101 -152h-162z" />
    <glyph glyph-name="uhungarumlaut" unicode="&#x171;" 
d="M232 494h-184.001v-274c0 -82 17.667 -141 53 -177s82 -54.333 140 -55c65.333 -1.33301 117.333 20.667 156 66l8 -54h163v494h-182v-263c0 -30.667 -8.16699 -53.667 -24.5 -69s-36.5 -23 -60.5 -23c-19.333 0 -35.666 6.66699 -48.999 20s-20 34 -20 62v273z
M209.999 700h160v-7l-97 -137h-156zM423.999 700h160v-7l-97 -137h-156z" />
    <glyph glyph-name="Uogonek" unicode="&#x172;" horiz-adv-x="784" 
d="M525 699l197.001 0.00195312v-391c0.666992 -77.333 -16 -141.833 -50 -193.5s-82.333 -88.167 -145 -109.5l-6 -2c-1.33301 0 -3.33301 -0.666992 -6 -2c-24 -8 -33.667 -22 -29 -42c4.66699 -15.333 16.667 -23.833 36 -25.5s39 3.16602 59 14.499l74 -97
c-31.333 -22.667 -67.666 -38.667 -108.999 -48s-81 -9.33301 -119 0s-65 29.333 -81 60c-11.333 21.333 -14.833 43.666 -10.5 66.999s15.166 42 32.499 56c-96.667 4 -171.834 33.667 -225.501 89s-80.5 133.666 -80.5 234.999v389h197v-389
c0 -53.333 11.667 -92.666 35 -117.999s56 -38 98 -38c41.333 0 73.833 12.833 97.5 38.5s35.5 64.167 35.5 115.5v391z" />
    <glyph glyph-name="uogonek" unicode="&#x173;" 
d="M48 494l184 -0.000976562v-273c0 -28 6.66699 -48.667 20 -62s29.666 -20 48.999 -20c24 0 44.167 7.66699 60.5 23s24.5 38.333 24.5 69v263h182v-530c-28.667 7.33301 -52 5.83301 -70 -4.5s-25.333 -23.166 -22 -38.499c2 -10 9.66699 -16.333 23 -19
s31.333 0.333008 54 9l56 -77c-25.333 -20 -57.5 -32.5 -96.5 -37.5s-75.167 -0.166992 -108.5 14.5s-53.333 38.667 -60 72c-5.33301 26 -2.16602 50 9.50098 72s29.167 38 52.5 48l-9 54c-20 -23.333 -44 -40.833 -72 -52.5s-56 -17.167 -84 -16.5
c-58 0.666992 -104.667 19 -140 55s-53 95 -53 177v274z" />
    <glyph glyph-name="Wcircumflex" unicode="&#x174;" horiz-adv-x="1066" 
d="M817 1l255 699h-216l-84 -241c-16 -57.333 -29 -113 -39 -167l-133 408h-137l-129 -408c-14.667 77.333 -27 131.333 -37 162l-90 246h-216l261 -699h160l120 335l124 -335h161zM475 941h124l165 -170v-8h-172l-55 51l-56 -51h-172v8z" />
    <glyph glyph-name="wcircumflex" unicode="&#x175;" horiz-adv-x="836" 
d="M474 494h-111l-87 -275l-38 139l-47 136h-192l180 -497h171l68 187l69 -187h169l181 497h-193l-46 -135l-37 -140zM360 719h115l155 -156v-8h-161l-52 47l-51 -47h-161v8z" />
    <glyph glyph-name="Ycircumflex" unicode="&#x176;" horiz-adv-x="722" 
d="M362 460l-145 240h-223v-8l266 -413v-279h198v279l278 412v9h-223zM302 918h118l158 -155v-7h-164l-53 46l-52 -46h-164v7z" />
    <glyph glyph-name="ycircumflex" unicode="&#x177;" horiz-adv-x="582" 
d="M591 494h-197l-46 -117l-60 -172l-54 171l-42 118h-195l196 -472l-100 -231h192zM227 720h126l170 -163v-9h-176l-57 49l-57 -49h-175v9z" />
    <glyph glyph-name="Ydieresis" unicode="&#x178;" horiz-adv-x="722" 
d="M125 847c0 26.667 9.16699 47.667 27.5 63s40.166 23 65.499 23s47.5 -7.66699 66.5 -23s28.5 -36.333 28.5 -63c0 -25.333 -9.5 -45.5 -28.5 -60.5s-41.167 -22.5 -66.5 -22.5s-47.166 7.5 -65.499 22.5s-27.5 35.167 -27.5 60.5zM415 847
c0 26.667 9.33301 47.667 28 63s41 23 67 23c24.667 0 46.5 -7.66699 65.5 -23s28.5 -36.333 28.5 -63c0 -25.333 -9.5 -45.5 -28.5 -60.5s-40.833 -22.5 -65.5 -22.5c-26 0 -48.333 7.5 -67 22.5s-28 35.167 -28 60.5zM362 460l-145 240h-223v-8l266 -413v-279h198v279
l278 412v9h-223z" />
    <glyph glyph-name="Zacute" unicode="&#x179;" horiz-adv-x="643" 
d="M42 700v-160h296l-313 -478v-62h586v171h-314l306 473v56h-561zM504 928v-8l-109 -159h-161v6l77 161h193z" />
    <glyph glyph-name="zacute" unicode="&#x17a;" horiz-adv-x="495" 
d="M455 494h-413v-146h178l-197 -291v-57h441v158h-197l188 274v62zM419 700v-7l-102 -138h-149v5l71 140h180z" />
    <glyph glyph-name="Zdotaccent" unicode="&#x17b;" horiz-adv-x="643" 
d="M42 700v-160h296l-313 -478v-62h586v171h-314l306 473v56h-561zM222 850c0 28.667 10.667 51 32 67s46.666 24 75.999 24s54.666 -8 75.999 -24s32 -38.333 32 -67s-10.667 -51 -32 -67s-46.666 -24 -75.999 -24s-54.666 8 -75.999 24s-32 38.333 -32 67z" />
    <glyph glyph-name="zdotaccent" unicode="&#x17c;" horiz-adv-x="495" 
d="M455 494h-413v-146h178l-197 -291v-57h441v158h-197l188 274v62zM158 632c0 25.333 9.16699 44.833 27.5 58.5s40.5 20.5 66.5 20.5c25.333 0 47.333 -7 66 -21s28 -33.333 28 -58s-9.5 -44 -28.5 -58s-40.833 -21 -65.5 -21c-26 0 -48.167 7 -66.5 21
s-27.5 33.333 -27.5 58z" />
    <glyph glyph-name="Zcaron" unicode="&#x17d;" horiz-adv-x="643" 
d="M42 700v-160h296l-313 -478v-62h586v171h-314l306 473v56h-561zM394 760h-114l-152 157v8h158l51 -47l51 47h158v-8z" />
    <glyph glyph-name="zcaron" unicode="&#x17e;" horiz-adv-x="495" 
d="M455 494h-413v-146h178l-197 -291v-57h441v158h-197l188 274v62zM312 547h-107l-143 142v7h148l48 -43l48 43h149v-7z" />
    <glyph glyph-name="longs" unicode="&#x17f;" horiz-adv-x="360" 
d="M286 0h-183.999v343h-84v142h84v24c0 67.333 21.167 117.833 63.5 151.5s92.166 50.5 149.499 50.5c62 0 111.667 -18 149 -54l-56 -111c-18.667 16 -41 24 -67 24c-16 0 -29.167 -5.16699 -39.5 -15.5s-15.5 -25.5 -15.5 -45.5v-509z" />
    <glyph glyph-name="florin" unicode="&#x192;" horiz-adv-x="525" 
d="M464 337h-127.999v-338c0 -52.667 -12.667 -96.5 -38 -131.5s-56.166 -57.833 -92.499 -68.5s-74.833 -12 -115.5 -4s-76.334 25 -107.001 51l56 111c18.667 -16 38 -24 58 -24c16 0 29.167 5.33301 39.5 16s15.5 27 15.5 49v339h-109v142h109v30
c0 67.333 21.167 117.833 63.5 151.5s92.166 50.5 149.499 50.5c62 0 111.667 -18 149 -54l-56 -111c-18.667 16 -41 24 -67 24c-16 0 -29.167 -5.16699 -39.5 -15.5s-15.5 -25.5 -15.5 -45.5v-30h128v-142z" />
    <glyph glyph-name="Aringacute" unicode="&#x1fa;" horiz-adv-x="797" 
d="M399 853c-36 0 -66.833 -7 -92.5 -21s-43.334 -31.167 -53.001 -51.5s-12.667 -42.333 -9 -66s14.5 -45.167 32.5 -64.5l-292 -650h210l46 115h313l46 -115h212l-290 648c20 18.667 32 40 36 64s0.833008 46.333 -9.5 67s-28.666 38.167 -54.999 52.5
s-57.833 21.5 -94.5 21.5zM398 530l48 -146l41 -103h-179l41 103zM401 751c18.667 0 31.834 -6.16699 39.501 -18.5s7.66699 -24.5 0 -36.5s-20.834 -18 -39.501 -18c-19.333 0 -33 6 -41 18s-8 24.167 0 36.5s21.667 18.5 41 18.5zM600 990v-6l-114 -107h-168v4l81 109h201
z" />
    <glyph glyph-name="aringacute" unicode="&#x1fb;" horiz-adv-x="648" 
d="M421 494l-9.00098 -53.001c-28 42.667 -76.333 64 -145 64c-71.333 0 -129.166 -24.5 -173.499 -73.5s-66.5 -110.5 -66.5 -184.5c0 -73.333 19.833 -133.166 59.5 -179.499s95.167 -71.833 166.5 -76.5c30 -1.33301 59.667 3 89 13s54 26.333 74 49l8 -53h170v494h-173z
M308.999 355.999c32 0 57 -9.83203 75 -29.499s27 -46.167 27 -79.5c0 -30 -9.5 -55.5 -28.5 -76.5s-43.5 -31.5 -73.5 -31.5c-28.667 0 -52.334 9.66699 -71.001 29s-28 45.666 -28 78.999s9.33301 59.833 28 79.5s42.334 29.5 71.001 29.5zM323.999 750
c-34.667 0 -63.834 -7.33301 -87.501 -22s-38.334 -32.5 -44.001 -53.5s-5.66699 -42 0 -63s20.334 -38.833 44.001 -53.5s52.834 -22 87.501 -22c36 0 66 7.33301 90 22s38.833 32.5 44.5 53.5s5.5 42 -0.5 63s-21 38.833 -45 53.5s-53.667 22 -89 22zM325.999 673
c16 0 27.167 -5 33.5 -15s6.33301 -20 0 -30s-17.5 -15 -33.5 -15c-16.667 0 -28.334 5 -35.001 15s-6.66699 20 0 30s18.334 15 35.001 15zM508.999 891v-6l-104 -109h-153v4l73 111h184z" />
    <glyph glyph-name="AEacute" unicode="&#x1fc;" horiz-adv-x="925" 
d="M-26 11v-11h199l63 105h208v-105h440v157h-258v122h226v153h-226v110h243v158h-480zM444 278h-109l124 240l-12 -124zM750 907v-7l-112 -150h-166v6l79 151h199z" />
    <glyph glyph-name="aeacute" unicode="&#x1fd;" horiz-adv-x="946" 
d="M643 695v-7l-95 -146h-141v6l68 147h168zM315 356c32.667 0 58.167 -9.99902 76.5 -29.999s27.5 -48 27.5 -84c0 -30.667 -9.66699 -55.5 -29 -74.5s-44.333 -28.5 -75 -28.5c-28.667 0 -52.334 9.66699 -71.001 29s-28 45.666 -28 78.999s9.33301 59.833 28 79.5
s42.334 29.5 71.001 29.5zM755 313.001h-182c4 25.333 20.667 43 50 53s58.333 9.83301 87 -0.5s43.667 -27.833 45 -52.5zM572 195.001l337.997 -0.000976562c20.667 93.333 8.16699 167.833 -37.5 223.5s-107.167 83.834 -184.5 84.501
c-56.667 1.33301 -106 -15.334 -148 -50.001l-3 41h-116l-9 -53c-28 42.667 -76.333 64 -145 64c-71.333 0 -129.166 -24.5 -173.499 -73.5s-66.5 -110.5 -66.5 -184.5c0 -73.333 19.833 -133.166 59.5 -179.499s95.167 -71.833 166.5 -76.5c30 -1.33301 59.667 3 89 13
s54 26.333 74 49l8 -53h113l3 45c28.667 -37.333 74.334 -56 137.001 -56c91.333 0 166.333 27.333 225 82l-90 101c-35.333 -26.667 -77.666 -40 -126.999 -40c-23.333 0 -46.5 5.5 -69.5 16.5s-37.5 26.5 -43.5 46.5z" />
    <glyph glyph-name="Oslashacute" unicode="&#x1fe;" horiz-adv-x="842" 
d="M619 943v-8l-109 -159h-161v6l77 161h193zM783 769h-172.999l-47 -72c-44 13.333 -91.333 20 -142 20c-116 0 -209.833 -32.833 -281.5 -98.5s-107.5 -155.167 -107.5 -268.5c0 -123.333 41.333 -218.333 124 -285l-90 -139h171l48 74
c43.333 -11.333 88.666 -17 135.999 -17c117.333 0 211.5 32.5 282.5 97.5s106.5 154.833 106.5 269.5c0 120 -39.333 213 -118 279zM421.001 548c10.667 0 25.333 -1.33203 44 -3.99902l-202 -312c-22 33.333 -33 72.666 -33 117.999c0 58 17.667 105.5 53 142.5
s81.333 55.5 138 55.5zM612 350.001c0 -58.667 -17.5 -106.333 -52.5 -143s-81.167 -55 -138.5 -55c-12 0 -24 1 -36 3l199 307c18.667 -32 28 -69.333 28 -112z" />
    <glyph glyph-name="oslashacute" unicode="&#x1ff;" horiz-adv-x="619" 
d="M476 712v-7l-98 -129h-147v5l70 131h175zM310 139c-31.333 0 -55.5 10 -72.5 30s-25.5 45.667 -25.5 77s8.5 57.166 25.5 77.499s41.167 30.5 72.5 30.5s55.5 -10.167 72.5 -30.5s25.5 -46.166 25.5 -77.499s-8.5 -57 -25.5 -77s-41.167 -30 -72.5 -30zM310 505
c-79.333 0 -146.167 -21.502 -200.5 -64.502s-81.5 -107.833 -81.5 -194.5c0 -87.333 29.333 -153.666 88 -198.999l-65 -107h171l31 52c25.333 -2.66699 44.333 -4 57 -4c36 0 70.333 4.83301 103 14.5s62.667 24.334 90 44.001s49 46.667 65 81s24 73.833 24 118.5
c0 86.667 -28.333 153 -85 199l67 110h-170l-33 -55c-22 3.33301 -42.333 5 -61 5z" />
    <glyph glyph-name="Scommaaccent" unicode="&#x218;" horiz-adv-x="666" 
d="M600 631l-97.9971 -124.999c-42.667 32 -97.334 48 -164.001 48c-26.667 0 -49.167 -4.33301 -67.5 -13s-27.5 -21.667 -27.5 -39c0 -22 9 -36.833 27 -44.5s47.667 -13.5 89 -17.5c38 -4 72.667 -10.833 104 -20.5s61.166 -23.167 89.499 -40.5s50.5 -40.5 66.5 -69.5
s24 -62.833 24 -101.5c0 -50.667 -15 -93.667 -45 -129s-67.5 -60.5 -112.5 -75.5s-94.833 -22.833 -149.5 -23.5c-68 -0.666992 -125.667 7.5 -173 24.5s-94 49.833 -140 98.5l109 125c54 -52.667 122.333 -79 205 -79c33.333 0 60 5.5 80 16.5s30 26.167 30 45.5
c0 35.333 -39 56.666 -117 63.999c-42.667 4 -79.334 9.83301 -110.001 17.5s-60.167 19.5 -88.5 35.5s-49.833 38.5 -64.5 67.5s-22 64.5 -22 106.5c0 69.333 28.5 122 85.5 158s126.167 54 207.5 54c104 0 191.333 -27.667 262 -83zM434.003 -141.999
c0 -31.333 -21 -85.668 -63 -163.001h-104l23 99c-38 6.66699 -57 28.334 -57 65.001c0 24 10.167 43 30.5 57s44.833 21 73.5 21c26.667 0 49.5 -6.83301 68.5 -20.5s28.5 -33.167 28.5 -58.5z" />
    <glyph glyph-name="scommaaccent" unicode="&#x219;" horiz-adv-x="511" 
d="M19 52l60.001 134c51.333 -33.333 109.666 -51.666 174.999 -54.999c33.333 0 50 8 50 24c0 15.333 -17.333 24.333 -52 27c-26 0.666992 -50.667 4 -74 10s-45.833 15 -67.5 27s-38.834 28.667 -51.501 50s-19 46.333 -19 75c0 55.333 21.833 96.166 65.5 122.499
s97.834 39.5 162.501 39.5c81.333 0 148.666 -20 201.999 -60l-78 -110c-13.333 8.66699 -32.333 16 -57 22s-47 8.66699 -67 8c-29.333 0 -44 -8 -44 -24c0 -15.333 12.333 -23.333 37 -24c151.333 -4.66699 227 -59 227 -163c0 -38.667 -11.167 -71 -33.5 -97
s-50.166 -44.333 -83.499 -55s-71 -16 -113 -16c-44 0 -88 5.83301 -132 17.5s-79.667 27.5 -107 47.5zM343.001 -132c0 -30 -18.332 -79.666 -54.999 -148.999h-90l20 91c-33.333 6 -50 25.667 -50 59c0 22 9 39.333 27 52s39.333 19 64 19
c23.333 0 43.166 -6.33301 59.499 -19s24.5 -30.334 24.5 -53.001z" />
    <glyph glyph-name="uni021A" unicode="&#x21a;" horiz-adv-x="636" 
d="M219 0v537h-204v163h606v-163h-205v-537h-197zM403 -125c0 -32.667 -19 -88.333 -57 -167h-95l21 102c-35.333 6.66699 -53 28.667 -53 66c0 25.333 9.5 45 28.5 59s41.5 21 67.5 21c24.667 0 45.5 -7 62.5 -21s25.5 -34 25.5 -60z" />
    <glyph glyph-name="uni021B" unicode="&#x21b;" horiz-adv-x="432" 
d="M98 614l183 20v-143h111v-141h-112v-162c0.666992 -32 17 -48 49 -48c19.333 0 37.333 5.66699 54 17l40 -136c-38.667 -22 -86 -33 -142 -33c-55.333 0 -100 15.333 -134 46s-50.333 82 -49 154v162h-79v141h79v123zM345 -132c0 -32.667 -19 -88.333 -57 -167h-95
l21 102c-35.333 6.66699 -53 28.667 -53 66c0 25.333 9.5 45 28.5 59s41.5 21 67.5 21c24.667 0 45.5 -7 62.5 -21s25.5 -34 25.5 -60z" />
    <glyph glyph-name="dotlessj" unicode="&#x237;" horiz-adv-x="292" 
d="M-70 -201l34.9971 128.997c27.333 -15.333 49 -18.666 65 -9.99902s24 28.334 24 59.001v509h184v-509c0 -46.667 -8.66699 -86.5 -26 -119.5s-40.166 -56.667 -68.499 -71s-61.166 -20.666 -98.499 -18.999s-75.666 12.167 -114.999 31.5z" />
    <glyph glyph-name="circumflex" unicode="&#x2c6;" horiz-adv-x="451" 
d="M157 706h114l152 -157v-8h-158l-51 47l-51 -47h-158v8z" />
    <glyph glyph-name="caron" unicode="&#x2c7;" horiz-adv-x="446" 
d="M283 534h-114l-152 157v8h158l51 -47l51 47h158v-8z" />
    <glyph glyph-name="breve" unicode="&#x2d8;" horiz-adv-x="406" 
d="M29 700h134.002c0 -12 3 -21.5 9 -28.5s11.667 -11.333 17 -13s10.666 -2.5 15.999 -2.5s10.666 0.833008 15.999 2.5s11 6 17 13s9 16.5 9 28.5h134c1.33301 -52.667 -14.167 -94.167 -46.5 -124.5s-75.5 -45.5 -129.5 -45.5s-97.167 15.167 -129.5 45.5
s-47.833 71.833 -46.5 124.5z" />
    <glyph glyph-name="dotaccent" unicode="&#x2d9;" horiz-adv-x="276" 
d="M36 610c0 28 10 49.833 30 65.5s43.667 23.5 71 23.5s51 -7.83301 71 -23.5s30 -37.5 30 -65.5s-10 -49.833 -30 -65.5s-43.667 -23.5 -71 -23.5s-51 7.83301 -71 23.5s-30 37.5 -30 65.5z" />
    <glyph glyph-name="ring" unicode="&#x2da;" horiz-adv-x="427" 
d="M208 706c49.333 0 87.9971 -14.5 115.997 -43.5s42.167 -61 42.5 -96s-13.5 -67 -41.5 -96s-67 -43.5 -117 -43.5c-48.667 0 -86.667 14.5 -114 43.5s-41.166 61 -41.499 96s13.334 67 41.001 96s65.834 43.5 114.501 43.5zM209.997 606
c-18 0 -30.832 -6.5 -38.499 -19.5s-7.66699 -26 0 -39s20.5 -19.5 38.5 -19.5s30.667 6.5 38 19.5s7.16602 26 -0.500977 39s-20.167 19.5 -37.5 19.5z" />
    <glyph glyph-name="ogonek" unicode="&#x2db;" horiz-adv-x="390" 
d="M251 -126l59.002 -74.999c-22.667 -20.667 -53.334 -33.334 -92.001 -38.001s-74.834 0.833008 -108.501 16.5s-53.834 40.167 -60.501 73.5c-8.66699 41.333 1 76.166 29 104.499s66.333 42.5 115 42.5c20.667 0 42.667 -2 66 -6l17 -75c-16 4 -33 6 -51 6
c-16.667 0 -30 -3.83301 -40 -11.5s-13.667 -17.167 -11 -28.5c3.33301 -11.333 14.833 -17.166 34.5 -17.499s33.834 2.5 42.501 8.5z" />
    <glyph glyph-name="tilde" unicode="&#x2dc;" horiz-adv-x="487" 
d="M236 571c-52.667 28.667 -87.668 24 -105.001 -14l-101 64c16.667 44.667 47 73.834 91 87.501s85.333 9.16699 124 -13.5c48.667 -26.667 84.334 -21 107.001 17l97 -63c-18 -46 -46 -76.333 -84 -91s-81 -10.334 -129 12.999z" />
    <glyph glyph-name="hungarumlaut" unicode="&#x2dd;" horiz-adv-x="530" 
d="M113 700h168v-8l-102 -155h-164zM338 700h168v-8l-102 -155h-164z" />
    <glyph glyph-name="_375" unicode="&#x394;" horiz-adv-x="794" 
d="M785 17v-17h-804v12l303 688h200zM384 502l-140 -343h278z" />
    <glyph glyph-name="_376" unicode="&#x3a9;" horiz-adv-x="826" 
d="M404 555c-55.333 0 -99.998 -19.333 -133.998 -58s-51 -85.334 -51 -140.001c-0.666992 -44.667 9.83301 -85.167 31.5 -121.5s56.167 -60.166 103.5 -71.499v-164h-309v157h93c-34.667 22.667 -61.334 55 -80.001 97s-28 82.333 -28 121c0 102 33.5 185 100.5 249
s158.167 96 273.5 96s206.666 -32 273.999 -96s101 -147 101 -249c0 -42 -9.5 -83.667 -28.5 -125s-46.833 -72.333 -83.5 -93h97v-157h-309v164c48.667 12 84.167 36.167 106.5 72.5s33.5 76.833 33.5 121.5c0 58 -17.167 105.333 -51.5 142s-80.833 55 -139.5 55z" />
    <glyph glyph-name="mu" unicode="&#x3bc;" horiz-adv-x="641" 
d="M597 0h-149.002l-18 63c-9.33301 -25.333 -26 -44 -50 -56s-49.667 -14.833 -77 -8.5s-50 21.5 -68 45.5v-249h-172v699h179v-235c0 -34 8.83301 -58.667 26.5 -74s38.834 -23 63.501 -23c25.333 0 46.333 8.16699 63 24.5s25.334 40.833 26.001 73.5v234h176v-494z" />
    <glyph glyph-name="pi" unicode="&#x3c0;" horiz-adv-x="702" 
d="M292 0l-183 0.00195312v346h-93v147h653v-147h-93v-186c0 -37.333 24.333 -49 73 -35l16 -124c-26.667 -6.66699 -52.167 -11 -76.5 -13s-48.333 -0.5 -72 4.5s-44.167 13.667 -61.5 26s-31.333 30.166 -42 53.499s-16 51.666 -16 84.999v189h-105v-346z" />
    <glyph glyph-name="Wgrave" unicode="&#x1e80;" horiz-adv-x="1066" 
d="M1072 700l-255 -699h-161l-124 335l-120 -335h-160l-261 699h216l90 -246c10 -30.667 22.333 -84.667 37 -162l129 408h137l133 -408c10 54 23 109.667 39 167l84 241h216zM342 911v8h209l83 -149v-6h-174z" />
    <glyph glyph-name="wgrave" unicode="&#x1e81;" horiz-adv-x="836" 
d="M363 494h111l87 -275l37 140l46 135h193l-181 -497h-169l-69 187l-68 -187h-171l-180 497h192l47 -136l38 -139zM247 694v7h189l75 -141v-5h-157z" />
    <glyph glyph-name="Wacute" unicode="&#x1e82;" horiz-adv-x="1066" 
d="M817 1l255 699h-216l-84 -241c-16 -57.333 -29 -113 -39 -167l-133 408h-137l-129 -408c-14.667 77.333 -27 131.333 -37 162l-90 246h-216l261 -699h160l120 335l124 -335h161zM735 919v-7l-116 -150h-172v6l82 151h206z" />
    <glyph glyph-name="wacute" unicode="&#x1e83;" horiz-adv-x="836" 
d="M474 494h-111l-87 -275l-38 139l-47 136h-192l180 -497h171l68 187l69 -187h169l181 497h-193l-46 -135l-37 -140zM605 703v-7l-109 -142h-160v5l77 144h192z" />
    <glyph glyph-name="Wdieresis" unicode="&#x1e84;" horiz-adv-x="1066" 
d="M817 1l255 699h-216l-84 -241c-16 -57.333 -29 -113 -39 -167l-133 408h-137l-129 -408c-14.667 77.333 -27 131.333 -37 162l-90 246h-216l261 -699h160l120 335l124 -335h161zM294 843c0 26.667 9.16699 47.667 27.5 63s40.166 23 65.499 23s47.5 -7.66699 66.5 -23
s28.5 -36.333 28.5 -63c0 -25.333 -9.5 -45.5 -28.5 -60.5s-41.167 -22.5 -66.5 -22.5s-47.166 7.5 -65.499 22.5s-27.5 35.167 -27.5 60.5zM584 843c0 26.667 9.33301 47.667 28 63s41 23 67 23c24.667 0 46.5 -7.66699 65.5 -23s28.5 -36.333 28.5 -63
c0 -25.333 -9.5 -45.5 -28.5 -60.5s-40.833 -22.5 -65.5 -22.5c-26 0 -48.333 7.5 -67 22.5s-28 35.167 -28 60.5z" />
    <glyph glyph-name="wdieresis" unicode="&#x1e85;" horiz-adv-x="836" 
d="M474 494h-111l-87 -275l-38 139l-47 136h-192l180 -497h171l68 187l69 -187h169l181 497h-193l-46 -135l-37 -140zM197 626c0 24.667 8.66699 44.167 26 58.5s37.666 21.5 60.999 21.5s43.833 -7.16699 61.5 -21.5s26.5 -33.833 26.5 -58.5c0 -24 -8.83301 -43 -26.5 -57
s-38.167 -21 -61.5 -21s-43.666 7 -60.999 21s-26 33 -26 57zM466 626c0 24.667 8.83301 44.167 26.5 58.5s38.5 21.5 62.5 21.5c22.667 0 42.834 -7.16699 60.501 -21.5s26.5 -33.833 26.5 -58.5c0 -24 -8.83301 -43 -26.5 -57s-37.834 -21 -60.501 -21
c-24 0 -44.833 7 -62.5 21s-26.5 33 -26.5 57z" />
    <glyph glyph-name="Ygrave" unicode="&#x1ef2;" horiz-adv-x="722" 
d="M217 700l145 -240l151 240h223v-9l-278 -412v-279h-198v279l-266 413v8h223zM164 911v8h212l85 -155v-5h-177z" />
    <glyph glyph-name="ygrave" unicode="&#x1ef3;" horiz-adv-x="582" 
d="M394 494h197l-306 -703h-192l100 231l-196 472h195l42 -118l54 -171l60 172zM133 699v8h190l76 -157v-6h-159z" />
    <glyph glyph-name="endash" unicode="&#x2013;" horiz-adv-x="607" 
d="M53 210v147h501v-147h-501z" />
    <glyph glyph-name="emdash" unicode="&#x2014;" horiz-adv-x="697" 
d="M54 213v147h589v-147h-589z" />
    <glyph glyph-name="quoteleft" unicode="&#x2018;" horiz-adv-x="293" 
d="M261 701l-51 -259h-177l90 259h138z" />
    <glyph glyph-name="quoteright" unicode="&#x2019;" horiz-adv-x="288" 
d="M41 441l51 259h177l-90 -259h-138z" />
    <glyph glyph-name="quotesinglbase" unicode="&#x201a;" horiz-adv-x="300" 
d="M16 -155l52 256h180l-87 -256h-145z" />
    <glyph glyph-name="quotedblleft" unicode="&#x201c;" horiz-adv-x="503" 
d="M273 700l-70 -253h-170l106 253h134zM470 700l-49 -253h-173l87 253h135z" />
    <glyph glyph-name="quotedblright" unicode="&#x201d;" horiz-adv-x="494" 
d="M240 447l70 253h170l-106 -253h-134zM43 447l49 253h173l-87 -253h-135z" />
    <glyph glyph-name="quotedblbase" unicode="&#x201e;" horiz-adv-x="517" 
d="M16 -155l52 256h176l-83 -256h-145zM237 -155l55 256h173l-85 -256h-143z" />
    <glyph glyph-name="dagger" unicode="&#x2020;" horiz-adv-x="607" 
d="M395 700v-173h179v-157h-179v-462h-184v462h-177v157h177v173h184z" />
    <glyph glyph-name="daggerdbl" unicode="&#x2021;" horiz-adv-x="636" 
d="M409 701v-171h179v-150h-179v-164h179v-148h-179v-170h-182v170h-179v148h179v164h-179v150h179v171h182z" />
    <glyph glyph-name="bullet" unicode="&#x2022;" horiz-adv-x="439" 
d="M220 170c-45.333 0 -82.5 13 -111.5 39s-43.5 60 -43.5 102s14.667 76.333 44 103s66.333 40 111 40c44 0 80.667 -13.333 110 -40s44 -61 44 -103s-14.667 -76 -44 -102s-66 -39 -110 -39z" />
    <glyph glyph-name="ellipsis" unicode="&#x2026;" horiz-adv-x="823" 
d="M141 -8c-30.667 0 -55 9.5 -73 28.5s-27 39.667 -27 62s8.83301 43 26.5 62s42.167 28.5 73.5 28.5c25.333 0 46.666 -6.16699 63.999 -18.5s28 -27.333 32 -45s4 -35.5 0 -53.5s-14.667 -33.167 -32 -45.5s-38.666 -18.5 -63.999 -18.5zM411 -8
c-30.667 0 -55 9.5 -73 28.5s-27 39.667 -27 62s8.83301 43 26.5 62s42.167 28.5 73.5 28.5c25.333 0 46.666 -6.16699 63.999 -18.5s28 -27.333 32 -45s4 -35.5 0 -53.5s-14.667 -33.167 -32 -45.5s-38.666 -18.5 -63.999 -18.5zM681 -8c-30.667 0 -55 9.5 -73 28.5
s-27 39.667 -27 62s8.83301 43 26.5 62s42.167 28.5 73.5 28.5c25.333 0 46.666 -6.16699 63.999 -18.5s28 -27.333 32 -45s4 -35.5 0 -53.5s-14.667 -33.167 -32 -45.5s-38.666 -18.5 -63.999 -18.5z" />
    <glyph glyph-name="perthousand" unicode="&#x2030;" horiz-adv-x="1304" 
d="M212 710c58 0 102.333 -16.5 133 -49.5s46 -72.5 46 -118.5c0 -46.667 -15.333 -86.167 -46 -118.5s-75 -48.5 -133 -48.5s-102.167 16.167 -132.5 48.5s-45.5 71.833 -45.5 118.5c0 46 15.167 85.5 45.5 118.5s74.5 49.5 132.5 49.5zM589 699h180l-458 -699h-183z
M212 498c15.333 0 27 4.33301 35 13s12 19 12 31s-4 22.333 -12 31s-19.667 13 -35 13s-27 -4.33301 -35 -13s-12 -19 -12 -31s4 -22.333 12 -31s19.667 -13 35 -13zM689 327c58 0 102.333 -16.5 133 -49.5s46 -72.5 46 -118.5c0 -46.667 -15.333 -86.167 -46 -118.5
s-75 -48.5 -133 -48.5s-102.167 16.167 -132.5 48.5s-45.5 71.833 -45.5 118.5c0 46 15.167 85.5 45.5 118.5s74.5 49.5 132.5 49.5zM689 115c15.333 0 27 4.33301 35 13s12 19 12 31s-4 22.333 -12 31s-19.667 13 -35 13s-27 -4.33301 -35 -13s-12 -19 -12 -31
s4 -22.333 12 -31s19.667 -13 35 -13zM1094 327c58 0 102.333 -16.5 133 -49.5s46 -72.5 46 -118.5c0 -46.667 -15.333 -86.167 -46 -118.5s-75 -48.5 -133 -48.5s-102.167 16.167 -132.5 48.5s-45.5 71.833 -45.5 118.5c0 46 15.167 85.5 45.5 118.5s74.5 49.5 132.5 49.5z
M1094 115c15.333 0 27 4.33301 35 13s12 19 12 31s-4 22.333 -12 31s-19.667 13 -35 13s-27 -4.33301 -35 -13s-12 -19 -12 -31s4 -22.333 12 -31s19.667 -13 35 -13z" />
    <glyph glyph-name="guilsinglleft" unicode="&#x2039;" horiz-adv-x="394" 
d="M29 292l140 224l193 1l-139 -224c60 -99.333 106.667 -174.333 140 -225h-194z" />
    <glyph glyph-name="guilsinglright" unicode="&#x203a;" horiz-adv-x="392" 
d="M225 520l139 -223l-139 -223h-194l138 222l-138 224h194z" />
    <glyph glyph-name="fraction" unicode="&#x2044;" horiz-adv-x="180" 
d="M201 696h162l-385 -701h-162z" />
    <glyph glyph-name="zerosuperior" unicode="&#x2070;" horiz-adv-x="407" 
d="M139 655v-55c0 -20 6.33301 -35.5 19 -46.5s27.667 -16.5 45 -16.5s32.5 5.5 45.5 16.5s19.5 26.5 19.5 46.5v55c0 20.667 -6.5 36.667 -19.5 48s-28.167 17 -45.5 17s-32.333 -5.66699 -45 -17s-19 -27.333 -19 -48zM33 603v53c0 52 16.833 92.333 50.5 121
s73.834 43 120.501 43c46 0 85.833 -14.333 119.5 -43s50.5 -69 50.5 -121v-53c0 -52.667 -17 -94 -51 -124s-73.667 -45 -119 -45c-46.667 0 -86.834 15 -120.501 45s-50.5 71.333 -50.5 124z" />
    <glyph glyph-name="foursuperior" unicode="&#x2074;" horiz-adv-x="399" 
d="M186 813h135v-219h44v-93h-44v-60h-107v60h-190l-4 91zM214 594v105l-80 -105h80z" />
    <glyph glyph-name="fivesuperior" unicode="&#x2075;" horiz-adv-x="381" 
d="M328 814l0.00292969 -94.001h-180v-33h48c104 0 156 -41.667 156 -125c0 -45.333 -15.167 -78.833 -45.5 -100.5s-65.5 -32.5 -105.5 -32.5c-46.667 0 -84.834 10.833 -114.501 32.5s-44.834 54.834 -45.501 99.501h109c1.33301 -12 6.16602 -21.333 14.499 -28
s17.833 -10 28.5 -10c12.667 0 24 3.5 34 10.5s15 16.5 15 28.5c0 10.667 -4.5 19 -13.5 25s-19.833 9 -32.5 9h-150v218h282z" />
    <glyph glyph-name="sixsuperior" unicode="&#x2076;" horiz-adv-x="385" 
d="M244 565c0 10.667 -4.83203 18.835 -14.499 24.502s-21.167 8.5 -34.5 8.5c-14 0 -25.833 -2.83301 -35.5 -8.5s-14.167 -13.834 -13.5 -24.501c0 -10.667 4.66699 -18.834 14 -24.501s20.666 -8.5 33.999 -8.5s25 3 35 9s15 14 15 24zM345.001 703.001h-101.002
c-1.33301 9.33301 -6.33301 16.666 -15 21.999s-19 8 -31 8c-14 0 -26.167 -2.66699 -36.5 -8s-15.5 -12.666 -15.5 -21.999v-32c20.667 10.667 44 16 70 16c36.667 0 68.834 -10.5 96.501 -31.5s41.5 -51.167 41.5 -90.5c0 -44 -15.5 -76.167 -46.5 -96.5
s-68.5 -30.5 -112.5 -30.5c-42 0 -78.667 11.333 -110 34s-47 54 -47 94v137c0 38 15.333 67.333 46 88s67.334 31 110.001 31c43.333 0 78.833 -9.66699 106.5 -29s42.5 -49.333 44.5 -90z" />
    <glyph glyph-name="sevensuperior" unicode="&#x2077;" horiz-adv-x="329" 
d="M167 441h-121l130 272h-150v100h287l4 -47z" />
    <glyph glyph-name="eightsuperior" unicode="&#x2078;" horiz-adv-x="392" 
d="M140 557c-0.666992 -8 3.83496 -16 13.502 -24s24.5 -12 44.5 -12c19.333 0 33.666 3.66699 42.999 11s13.666 15.666 12.999 24.999c0 8.66699 -5.33301 16.334 -16 23.001s-23.667 10 -39 10c-16.667 0 -30.667 -3 -42 -9s-17 -14 -17 -24zM30.002 558
c0 12 4.5 25.333 13.5 40s20.833 26.667 35.5 36c-25.333 18.667 -38 41.334 -38 68.001c0 38 14.333 67.5 43 88.5s65.667 31.5 111 31.5c44.667 0 82 -10.5 112 -31.5s45 -50.167 45 -87.5c0 -29.333 -12.667 -51.333 -38 -66c14.667 -10 26.334 -22.333 35.001 -37
s13 -29 13 -43c0.666992 -44 -15 -76.333 -47 -97s-72 -30.334 -120 -29.001c-48 0 -87.833 10.167 -119.5 30.5s-46.834 52.5 -45.501 96.5zM198.002 671c14.667 0 25.834 3 33.501 9s11.5 13 11.5 21s-4.16699 15.167 -12.5 21.5s-19.5 9.5 -33.5 9.5
c-14.667 0 -26.167 -3 -34.5 -9s-12.5 -13 -12.5 -21c0 -8.66699 4.16699 -16 12.5 -22s20.166 -9 35.499 -9z" />
    <glyph glyph-name="ninesuperior" unicode="&#x2079;" horiz-adv-x="384" 
d="M142 694c0 -22 16.334 -32.999 49.001 -32.999c13.333 0 25 2.66699 35 8s14.667 13.666 14 24.999c0 10 -4.83301 17.833 -14.5 23.5s-20.834 8.5 -33.501 8.5c-14 0 -25.833 -2.83301 -35.5 -8.5s-14.5 -13.5 -14.5 -23.5zM36.001 556.001h103.001
c1.33301 -10 6.66602 -17.667 15.999 -23s20 -8 32 -8c14 0 26.333 2.83301 37 8.5s16 13.167 16 22.5v31c-20.667 -10.667 -44 -16 -70 -16c-36.667 0 -68.834 10.667 -96.501 32s-41.5 51.666 -41.5 90.999c0 40.667 16 71.834 48 93.501s69 32.5 111 32.5
s78.667 -11.333 110 -34s47 -53.667 47 -93v-137c0 -38.667 -15.5 -68.667 -46.5 -90s-67.5 -32 -109.5 -32c-46 0 -83.167 9.83301 -111.5 29.5s-43.166 50.5 -44.499 92.5z" />
    <glyph glyph-name="zeroinferior" unicode="&#x2080;" horiz-adv-x="407" 
d="M139 136v-55c0 -20 6.33301 -35.5 19 -46.5s27.667 -16.5 45 -16.5s32.5 5.5 45.5 16.5s19.5 26.5 19.5 46.5v55c0 20.667 -6.5 36.667 -19.5 48s-28.167 17 -45.5 17s-32.333 -5.66699 -45 -17s-19 -27.333 -19 -48zM33 84v53c0 52 16.833 92.333 50.5 121
s73.834 43 120.501 43c46 0 85.833 -14.333 119.5 -43s50.5 -69 50.5 -121v-53c0 -52.667 -17 -94 -51 -124s-73.667 -45 -119 -45c-46.667 0 -86.834 15 -120.501 45s-50.5 71.333 -50.5 124z" />
    <glyph glyph-name="oneinferior" unicode="&#x2081;" horiz-adv-x="286" 
d="M33 -78v91h61v162c-4.66699 -0.666992 -13.167 -2.5 -25.5 -5.5s-20.833 -4.83301 -25.5 -5.5v92l158 42v-285h63v-91h-231z" />
    <glyph glyph-name="twoinferior" unicode="&#x2082;" horiz-adv-x="379" 
d="M142 180l-105.001 -0.000976562c0.666992 38 15.834 68.167 45.501 90.5s64.5 33.5 104.5 33.5c46.667 0 84.5 -10.667 113.5 -32s43.5 -52.333 43.5 -93c0 -21.333 -4 -39.666 -12 -54.999s-20.167 -27.5 -36.5 -36.5s-30.5 -15.5 -42.5 -19.5s-28.333 -8.33301 -49 -13
c-40.667 -8.66699 -62.667 -18.334 -66 -29.001h203v-104h-306v99c0 20.667 3.66699 38.334 11 53.001s18.666 26.334 33.999 35.001s28.5 15 39.5 19s26.5 8.33301 46.5 13c16 3.33301 27.833 6.16602 35.5 8.49902s15 6 22 11s10.5 11.167 10.5 18.5
c0 9.33301 -4.33301 16.5 -13 21.5s-19 7.5 -31 7.5c-11.333 0 -21.666 -2.5 -30.999 -7.5s-15 -11.833 -17 -20.5z" />
    <glyph glyph-name="threeinferior" unicode="&#x2083;" horiz-adv-x="382" 
d="M189 73l-61.999 -0.00195312v83h58c33.333 0 50 10 50 30c0 18 -16.667 27.667 -50 29c-13.333 0.666992 -25.333 -1.66602 -36 -6.99902s-17 -12.666 -19 -21.999h-96c0 39.333 15.5 69.166 46.5 89.499s66.5 30.5 106.5 30.5s76 -10.667 108 -32s48 -51 48 -89
c0 -30 -13 -53.333 -39 -70c14 -7.33301 25.333 -18.333 34 -33s13 -30.334 13 -47.001c0 -23.333 -5 -43.166 -15 -59.499s-23.333 -28.666 -40 -36.999s-33.834 -14.333 -51.501 -18s-36.5 -5.5 -56.5 -5.5c-40.667 0 -77.5 10.667 -110.5 32s-49.833 52.333 -50.5 93h112
c2.66699 -18.667 18.667 -28 48 -28c14 0 26 2.66699 36 8s15 13.333 15 24c0 19.333 -16.333 29 -49 29z" />
    <glyph glyph-name="fourinferior" unicode="&#x2084;" horiz-adv-x="399" 
d="M186 294h135v-219h44v-93h-44v-60h-107v60h-190l-4 91zM214 75v105l-80 -105h80z" />
    <glyph glyph-name="fiveinferior" unicode="&#x2085;" horiz-adv-x="383" 
d="M330 301l0.00292969 -94.001h-180v-33h48c104 0 156 -41.667 156 -125c0 -45.333 -15.167 -78.833 -45.5 -100.5s-65.5 -32.5 -105.5 -32.5c-46.667 0 -84.834 10.833 -114.501 32.5s-44.834 54.834 -45.501 99.501h109c1.33301 -12 6.16602 -21.333 14.499 -28
s17.833 -10 28.5 -10c12.667 0 24 3.5 34 10.5s15 16.5 15 28.5c0 10.667 -4.5 19 -13.5 25s-19.833 9 -32.5 9h-150v218h282z" />
    <glyph glyph-name="sixinferior" unicode="&#x2086;" horiz-adv-x="385" 
d="M244 44c0 10.667 -4.83203 18.835 -14.499 24.502s-21.167 8.5 -34.5 8.5c-14 0 -25.833 -2.83301 -35.5 -8.5s-14.167 -13.834 -13.5 -24.501c0 -10.667 4.66699 -18.834 14 -24.501s20.666 -8.5 33.999 -8.5s25 3 35 9s15 14 15 24zM345.001 182.001h-101.002
c-1.33301 9.33301 -6.33301 16.666 -15 21.999s-19 8 -31 8c-14 0 -26.167 -2.66699 -36.5 -8s-15.5 -12.666 -15.5 -21.999v-32c20.667 10.667 44 16 70 16c36.667 0 68.834 -10.5 96.501 -31.5s41.5 -51.167 41.5 -90.5c0 -44 -15.5 -76.167 -46.5 -96.5
s-68.5 -30.5 -112.5 -30.5c-42 0 -78.667 11.333 -110 34s-47 54 -47 94v137c0 38 15.333 67.333 46 88s67.334 31 110.001 31c43.333 0 78.833 -9.66699 106.5 -29s42.5 -49.333 44.5 -90z" />
    <glyph glyph-name="seveninferior" unicode="&#x2087;" horiz-adv-x="329" 
d="M167 -78h-121l130 272h-150v100h287l4 -47z" />
    <glyph glyph-name="eightinferior" unicode="&#x2088;" horiz-adv-x="392" 
d="M140 41c-0.666992 -8 3.83496 -16 13.502 -24s24.5 -12 44.5 -12c19.333 0 33.666 3.66699 42.999 11s13.666 15.666 12.999 24.999c0 8.66699 -5.33301 16.334 -16 23.001s-23.667 10 -39 10c-16.667 0 -30.667 -3 -42 -9s-17 -14 -17 -24zM30.002 42
c0 12 4.5 25.333 13.5 40s20.833 26.667 35.5 36c-25.333 18.667 -38 41.334 -38 68.001c0 38 14.333 67.5 43 88.5s65.667 31.5 111 31.5c44.667 0 82 -10.5 112 -31.5s45 -50.167 45 -87.5c0 -29.333 -12.667 -51.333 -38 -66c14.667 -10 26.334 -22.333 35.001 -37
s13 -29 13 -43c0.666992 -44 -15 -76.333 -47 -97s-72 -30.334 -120 -29.001c-48 0 -87.833 10.167 -119.5 30.5s-46.834 52.5 -45.501 96.5zM198.002 155c14.667 0 25.834 3 33.501 9s11.5 13 11.5 21s-4.16699 15.167 -12.5 21.5s-19.5 9.5 -33.5 9.5
c-14.667 0 -26.167 -3 -34.5 -9s-12.5 -13 -12.5 -21c0 -8.66699 4.16699 -16 12.5 -22s20.166 -9 35.499 -9z" />
    <glyph glyph-name="nineinferior" unicode="&#x2089;" horiz-adv-x="386" 
d="M142 177c0 -22 16.334 -32.999 49.001 -32.999c13.333 0 25 2.66699 35 8s14.667 13.666 14 24.999c0 10 -4.83301 17.833 -14.5 23.5s-20.834 8.5 -33.501 8.5c-14 0 -25.833 -2.83301 -35.5 -8.5s-14.5 -13.5 -14.5 -23.5zM36.001 39.001h103.001
c1.33301 -10 6.66602 -17.667 15.999 -23s20 -8 32 -8c14 0 26.333 2.83301 37 8.5s16 13.167 16 22.5v31c-20.667 -10.667 -44 -16 -70 -16c-36.667 0 -68.834 10.667 -96.501 32s-41.5 51.666 -41.5 90.999c0 40.667 16 71.834 48 93.501s69 32.5 111 32.5
s78.667 -11.333 110 -34s47 -53.667 47 -93v-137c0 -38.667 -15.5 -68.667 -46.5 -90s-67.5 -32 -109.5 -32c-46 0 -83.167 9.83301 -111.5 29.5s-43.166 50.5 -44.499 92.5z" />
    <glyph glyph-name="Euro" unicode="&#x20ac;" horiz-adv-x="645" 
d="M43 199l0.00292969 121.002h55v50h-55v117h83c17.333 48.667 44.166 90 80.499 124s76.5 58.333 120.5 73s90.167 21.667 138.5 21s93.833 -9.33398 136.5 -26.001l-48 -141c-40.667 18 -82.334 23.5 -125.001 16.5s-75 -29.5 -97 -67.5h181l-29 -117h-199
c-0.666992 -16.667 -0.666992 -33.334 0 -50.001h188l-26 -121h-113c25.333 -28 61 -46.667 107 -56s86.667 -7 122 7l48 -144c-44.667 -14 -91.334 -21 -140.001 -21c-90 0 -164.833 18.667 -224.5 56s-101.5 90 -125.5 158h-78z" />
    <glyph glyph-name="afii61289" unicode="&#x2113;" horiz-adv-x="410" 
d="M231 239l0.00195312 -85.999c0 -16.667 5.16699 -29.667 15.5 -39s24.166 -14 41.499 -14c9.33301 0 31 4.66699 65 14v-97c-42 -14 -78.667 -21 -110 -21c-94 0 -145.333 47.667 -154 143c-24.667 -12.667 -38.334 -19.334 -41.001 -20.001l-22 75
c28.667 12 49 21.333 61 28v308c0 62.667 12.333 107 37 133s69 39 133 39c87.333 0 131 -48 131 -144c0 -18.667 -1 -36.667 -3 -54c-10.667 -90.667 -62 -179 -154 -265zM228.002 530.001v-98c0 -8 -0.166992 -17.333 -0.5 -28s-0.5 -17.667 -0.5 -21v-13
c38.667 56.667 60 105.667 64 147c2.66699 17.333 4 32.333 4 45c0 41.333 -12 62 -36 62c-10 0 -17.667 -9.33301 -23 -28s-8 -40.667 -8 -66z" />
    <glyph glyph-name="uni2117" unicode="&#x2117;" horiz-adv-x="801" 
d="M400 717c112 0 200.333 -35 265 -105s97 -156.667 97 -260s-32.333 -190 -97 -260s-153 -105 -265 -105c-111.333 0 -199.333 35 -264 105s-97 156.667 -97 260s32.333 190 97 260s152.667 105 264 105zM148 352c1.33301 -78 24.333 -142.333 69 -193
s105.667 -76 183 -76c78 0 139.333 25.333 184 76s67 115 67 193c0 77.333 -22.333 141.5 -67 192.5s-106 76.5 -184 76.5c-77.333 0 -138.333 -25.333 -183 -76s-67.667 -115 -69 -193zM374 267l65.999 0.00292969c26 0 49.333 4.66699 70 14s36.334 21.666 47.001 36.999
s18.5 32.166 23.5 50.499s5 36.5 0 54.5s-12.667 34.667 -23 50s-25.833 27.666 -46.5 36.999s-44 14 -70 14h-170v-356h103v99zM373.999 430.003h67.001c15.333 0 26.666 -6.33301 33.999 -19s8 -25.167 2 -37.5s-17.667 -18.5 -35 -18.5h-68v75z" />
    <glyph glyph-name="trademark" unicode="&#x2122;" horiz-adv-x="847" 
d="M271 592v-196h-121v196h-90v108h303v-108h-92zM524 700l69 -87l67 87h119v-305h-120v69l4 72l-57 -79h-28l-57 80l4 -73v-69h-119v305h118z" />
    <glyph glyph-name="Omega" unicode="&#x2126;" horiz-adv-x="842" 
d="M421 555c-55.333 0 -99.998 -19.333 -133.998 -58s-51 -85.334 -51 -140.001c-0.666992 -44.667 9.83301 -85.167 31.5 -121.5s56.167 -60.166 103.5 -71.499v-164h-309v157h93c-34.667 22.667 -61.334 55 -80.001 97s-28 82.333 -28 121c0 102 33.5 185 100.5 249
s158.167 96 273.5 96s206.666 -32 273.999 -96s101 -147 101 -249c0 -42 -9.5 -83.667 -28.5 -125s-46.833 -72.333 -83.5 -93h97v-157h-309v164c48.667 12 84.167 36.167 106.5 72.5s33.5 76.833 33.5 121.5c0 58 -17.167 105.333 -51.5 142s-80.833 55 -139.5 55z" />
    <glyph glyph-name="estimated" unicode="&#x212e;" horiz-adv-x="633" 
d="M325 -7c-80 0 -146.166 25.667 -198.499 77s-78.5 123.333 -78.5 216c0 93.333 26 165.666 78 216.999s118 77 198 77c37.333 0 71.666 -4.83301 102.999 -14.5s60 -24.667 86 -45s46.333 -48.666 61 -84.999s22 -79.166 22 -128.499
c0 -20.667 -1.66699 -40.334 -5 -59.001h-375v-151c28 -22.667 64.333 -34 109 -34c82.667 0 144.334 30.667 185.001 92l54 -40c-31.333 -44.667 -66.333 -76.167 -105 -94.5s-83.334 -27.5 -134.001 -27.5zM324.001 514c-44 0 -80 -10.333 -108 -31v-162h219v164
c-30 19.333 -67 29 -111 29z" />
    <glyph glyph-name="onethird" unicode="&#x2153;" horiz-adv-x="852" 
d="M534 701h111l-393 -706h-108zM656 151l-61.999 -0.00195312v83h58c33.333 0 50 10 50 30c0 18 -16.667 27.667 -50 29c-13.333 0.666992 -25.333 -1.66602 -36 -6.99902s-17 -12.666 -19 -21.999h-96c0 39.333 15.5 69.166 46.5 89.499s66.5 30.5 106.5 30.5
s76 -10.667 108 -32s48 -51 48 -89c0 -30 -13 -53.333 -39 -70c14 -7.33301 25.333 -18.333 34 -33s13 -30.334 13 -47.001c0 -23.333 -5 -43.166 -15 -59.499s-23.333 -28.666 -40 -36.999s-33.834 -14.333 -51.501 -18s-36.5 -5.5 -56.5 -5.5
c-40.667 0 -77.5 10.667 -110.5 32s-49.833 52.333 -50.5 93h112c2.66699 -18.667 18.667 -28 48 -28c14 0 26 2.66699 36 8s15 13.333 15 24c0 19.333 -16.333 29 -49 29zM40.001 336.998v91h67v162c-4.66699 -0.666992 -13.5 -2.5 -26.5 -5.5s-21.833 -4.83301 -26.5 -5.5
v92l153 42v-285h63v-91h-230z" />
    <glyph glyph-name="twothirds" unicode="&#x2154;" horiz-adv-x="916" 
d="M606 701h111l-393 -706h-108zM721 151l-61.999 -0.00195312v83h58c33.333 0 50 10 50 30c0 18 -16.667 27.667 -50 29c-13.333 0.666992 -25.333 -1.66602 -36 -6.99902s-17 -12.666 -19 -21.999h-96c0 39.333 15.5 69.166 46.5 89.499s66.5 30.5 106.5 30.5
s76 -10.667 108 -32s48 -51 48 -89c0 -30 -13 -53.333 -39 -70c14 -7.33301 25.333 -18.333 34 -33s13 -30.334 13 -47.001c0 -23.333 -5 -43.166 -15 -59.499s-23.333 -28.666 -40 -36.999s-33.834 -14.333 -51.501 -18s-36.5 -5.5 -56.5 -5.5
c-40.667 0 -77.5 10.667 -110.5 32s-49.833 52.333 -50.5 93h112c2.66699 -18.667 18.667 -28 48 -28c14 0 26 2.66699 36 8s15 13.333 15 24c0 19.333 -16.333 29 -49 29zM148.001 580.998h-105.002c0.666992 38 15.834 68.167 45.501 90.5s64.5 33.5 104.5 33.5
c46.667 0 84.5 -10.667 113.5 -32s43.5 -52.333 43.5 -93c0 -16.667 -3 -31.5 -9 -44.5s-12.333 -23.167 -19 -30.5s-17.667 -14.166 -33 -20.499s-26.5 -10.5 -33.5 -12.5s-19.5 -5 -37.5 -9c-3.33301 -0.666992 -6 -1.33398 -8 -2.00098
c-21.333 -4 -36.833 -8.33301 -46.5 -13s-16.167 -12.667 -19.5 -24h203v-101h-306v99c0 16.667 3 31.5 9 44.5s12.5 23.167 19.5 30.5s17.667 14.166 32 20.499s25.5 10.666 33.5 12.999s20.333 5.5 37 9.5c22 4.66699 38.833 9.83398 50.5 15.501s17.5 13.834 17.5 24.501
c0 9.33301 -4.33301 16.5 -13 21.5s-19 7.5 -31 7.5c-11.333 0 -21.666 -2.5 -30.999 -7.5s-15 -11.833 -17 -20.5z" />
    <glyph glyph-name="oneeighth" unicode="&#x215b;" horiz-adv-x="848" 
d="M534 701h111l-393 -706h-108zM40 337v91h67v162c-4.66699 -0.666992 -13.5 -2.5 -26.5 -5.5s-21.833 -4.83301 -26.5 -5.5v92l153 42v-285h63v-91h-230zM588 119c-0.666992 -8.66699 4.16797 -17.333 14.501 -26s26.5 -13 48.5 -13c21.333 0 37 4 47 12s14.667 17 14 27
c0 9.33301 -5.83301 17.666 -17.5 24.999s-25.834 11 -42.501 11c-18 0 -33.167 -3.16699 -45.5 -9.5s-18.5 -15.166 -18.5 -26.499zM483.002 120.001c0 12 4.5 25.333 13.5 40s20.833 26.667 35.5 36c-25.333 18.667 -38 41.334 -38 68.001c0 38 14.333 67.5 43 88.5
s65.667 31.5 111 31.5c44.667 0 82 -10.5 112 -31.5s45 -50.167 45 -87.5c0 -29.333 -12.667 -51.333 -38 -66c14.667 -10 26.334 -22.333 35.001 -37s13 -29 13 -43c0.666992 -44 -15 -76.333 -47 -97s-72 -30.334 -120 -29.001c-48 0 -87.833 10.167 -119.5 30.5
s-46.834 52.5 -45.501 96.5zM651.002 232.001c14.667 0 26.167 3.16699 34.5 9.5s12.5 13.5 12.5 21.5c0 9.33301 -4.33301 17 -13 23s-20.334 9 -35.001 9c-15.333 0 -27.166 -3 -35.499 -9s-12.5 -13.333 -12.5 -22s4.33301 -16.167 13 -22.5s20.667 -9.5 36 -9.5z" />
    <glyph glyph-name="threeeighths" unicode="&#x215c;" horiz-adv-x="910" 
d="M596 701h111l-393 -706h-108zM650 119c-0.666992 -8.66699 4.16797 -17.333 14.501 -26s26.5 -13 48.5 -13c21.333 0 37 4 47 12s14.667 17 14 27c0 9.33301 -5.83301 17.666 -17.5 24.999s-25.834 11 -42.501 11c-18 0 -33.167 -3.16699 -45.5 -9.5
s-18.5 -15.166 -18.5 -26.499zM545.002 120.001c0 12 4.5 25.333 13.5 40s20.833 26.667 35.5 36c-25.333 18.667 -38 41.334 -38 68.001c0 38 14.333 67.5 43 88.5s65.667 31.5 111 31.5c44.667 0 82 -10.5 112 -31.5s45 -50.167 45 -87.5
c0 -29.333 -12.667 -51.333 -38 -66c14.667 -10 26.334 -22.333 35.001 -37s13 -29 13 -43c0.666992 -44 -15 -76.333 -47 -97s-72 -30.334 -120 -29.001c-48 0 -87.833 10.167 -119.5 30.5s-46.834 52.5 -45.501 96.5zM713.002 232.001c14.667 0 26.167 3.16699 34.5 9.5
s12.5 13.5 12.5 21.5c0 9.33301 -4.33301 17 -13 23s-20.334 9 -35.001 9c-15.333 0 -27.166 -3 -35.499 -9s-12.5 -13.333 -12.5 -22s4.33301 -16.167 13 -22.5s20.667 -9.5 36 -9.5zM196.002 476.001l-61.999 -0.00292969v83h58c33.333 0 50 10 50 30
c0 18 -16.667 27.667 -50 29c-13.333 0.666992 -25.333 -1.66602 -36 -6.99902s-17 -12.666 -19 -21.999h-96c0 39.333 15.5 69.166 46.5 89.499s66.5 30.5 106.5 30.5s76 -10.667 108 -32s48 -51 48 -89c0 -29.333 -13 -52.666 -39 -69.999
c14 -7.33301 25.333 -18.333 34 -33s13 -30.334 13 -47.001c0 -23.333 -5 -43.166 -15 -59.499s-23.333 -28.666 -40 -36.999s-33.834 -14.333 -51.501 -18s-36.5 -5.5 -56.5 -5.5c-40.667 0 -77.5 10.667 -110.5 32s-49.833 52.333 -50.5 93h112
c2.66699 -18.667 18.667 -28 48 -28c14 0 26 2.66699 36 8s15 13.333 15 24c0 19.333 -16.333 29 -49 29z" />
    <glyph glyph-name="fiveeighths" unicode="&#x215d;" horiz-adv-x="900" 
d="M586 701h111l-393 -706h-108zM640 119c-0.666992 -8.66699 4.16797 -17.333 14.501 -26s26.5 -13 48.5 -13c21.333 0 37 4 47 12s14.667 17 14 27c0 9.33301 -5.83301 17.666 -17.5 24.999s-25.834 11 -42.501 11c-18 0 -33.167 -3.16699 -45.5 -9.5
s-18.5 -15.166 -18.5 -26.499zM535.002 120.001c0 12 4.5 25.333 13.5 40s20.833 26.667 35.5 36c-25.333 18.667 -38 41.334 -38 68.001c0 38 14.333 67.5 43 88.5s65.667 31.5 111 31.5c44.667 0 82 -10.5 112 -31.5s45 -50.167 45 -87.5
c0 -29.333 -12.667 -51.333 -38 -66c14.667 -10 26.334 -22.333 35.001 -37s13 -29 13 -43c0.666992 -44 -15 -76.333 -47 -97s-72 -30.334 -120 -29.001c-48 0 -87.833 10.167 -119.5 30.5s-46.834 52.5 -45.501 96.5zM703.002 232.001c14.667 0 26.167 3.16699 34.5 9.5
s12.5 13.5 12.5 21.5c0 9.33301 -4.33301 17 -13 23s-20.334 9 -35.001 9c-15.333 0 -27.166 -3 -35.499 -9s-12.5 -13.333 -12.5 -22s4.33301 -16.167 13 -22.5s20.667 -9.5 36 -9.5zM325.002 699.001l0.00292969 -94.001h-180v-33h48c104 0 156 -41.667 156 -125
c0 -45.333 -15.167 -78.833 -45.5 -100.5s-65.5 -32.5 -105.5 -32.5c-46.667 0 -84.834 10.833 -114.501 32.5s-44.834 54.834 -45.501 99.501h109c1.33301 -12 6.16602 -21.333 14.499 -28s17.833 -10 28.5 -10c12.667 0 24 3.5 34 10.5s15 16.5 15 28.5
c0 10.667 -4.5 19 -13.5 25s-19.833 9 -32.5 9h-150v218h282z" />
    <glyph glyph-name="seveneighths" unicode="&#x215e;" horiz-adv-x="850" 
d="M521 701h111l-393 -706h-108zM590 119c-0.666992 -8.66699 4.16797 -17.333 14.501 -26s26.5 -13 48.5 -13c21.333 0 37 4 47 12s14.667 17 14 27c0 9.33301 -5.83301 17.666 -17.5 24.999s-25.834 11 -42.501 11c-18 0 -33.167 -3.16699 -45.5 -9.5
s-18.5 -15.166 -18.5 -26.499zM485.002 120.001c0 12 4.5 25.333 13.5 40s20.833 26.667 35.5 36c-25.333 18.667 -38 41.334 -38 68.001c0 38 14.333 67.5 43 88.5s65.667 31.5 111 31.5c44.667 0 82 -10.5 112 -31.5s45 -50.167 45 -87.5
c0 -29.333 -12.667 -51.333 -38 -66c14.667 -10 26.334 -22.333 35.001 -37s13 -29 13 -43c0.666992 -44 -15 -76.333 -47 -97s-72 -30.334 -120 -29.001c-48 0 -87.833 10.167 -119.5 30.5s-46.834 52.5 -45.501 96.5zM653.002 232.001c14.667 0 26.167 3.16699 34.5 9.5
s12.5 13.5 12.5 21.5c0 9.33301 -4.33301 17 -13 23s-20.334 9 -35.001 9c-15.333 0 -27.166 -3 -35.499 -9s-12.5 -13.333 -12.5 -22s4.33301 -16.167 13 -22.5s20.667 -9.5 36 -9.5zM178.002 328.001h-121l130 272h-150v100h287l4 -47z" />
    <glyph glyph-name="arrowleft" unicode="&#x2190;" horiz-adv-x="631" 
d="M276 103l-246 245l247 244l82 -76l-102 -103h324v-133h-327l99 -107z" />
    <glyph glyph-name="arrowup" unicode="&#x2191;" horiz-adv-x="547" 
d="M29 390l245 246l244 -247l-77 -82l-103 103v-325h-132v328l-107 -99z" />
    <glyph glyph-name="arrowright" unicode="&#x2192;" horiz-adv-x="631" 
d="M356 593l244.999 -244.001l-246 -244l-83 76l102 102h-324v134h328c-9.33301 10.667 -19.666 21.834 -30.999 33.501l-37.5 39l-31.5 33.5z" />
    <glyph glyph-name="arrowdown" unicode="&#x2193;" horiz-adv-x="547" 
d="M517 312l-244 -246l-244 247l75 82l103 -102v324h133v-328l56.5 52.5l50.5 47.5z" />
    <glyph glyph-name="uni2196" unicode="&#x2196;" horiz-adv-x="524" 
d="M58 193v347l346 -2l4 -110l-144 -1l230 -230l-97 -93l-230 230l-5 -145z" />
    <glyph glyph-name="uni2197" unicode="&#x2197;" horiz-adv-x="525" 
d="M118 435l3 102.998h346c0 -18.667 -0.166992 -47.667 -0.5 -87s-0.5 -68 -0.5 -86v-173l-109 -4c0 8.66699 -0.166992 22.334 -0.5 41.001s-0.5 32.334 -0.5 41.001v63l-232 -230l-93 97l231 230z" />
    <glyph glyph-name="uni2198" unicode="&#x2198;" horiz-adv-x="556" 
d="M125 150l-4 102.999l145 5l-231 230l93 97l231 -230v64c0 8 0.166992 21.333 0.5 40s0.5 32.334 0.5 41.001l110 -4v-174c0 -18 0.166992 -46.5 0.5 -85.5s0.5 -67.833 0.5 -86.5h-346z" />
    <glyph glyph-name="uni2199" unicode="&#x2199;" horiz-adv-x="557" 
d="M436 253l-4 -103h-346v172c0 18.667 0.166992 47.5 0.5 86.5s0.5 68.167 0.5 87.5l111 4v-25.5v-30.5v-25v-64l231 230l93 -97l-230 -230z" />
    <glyph glyph-name="partialdiff" unicode="&#x2202;" horiz-adv-x="587" 
d="M382 238c0 26.667 -6 48.832 -18 66.499s-26.667 28.5 -44 32.5s-34.833 3.83301 -52.5 -0.5s-32.5 -15.333 -44.5 -33s-18 -39.167 -18 -64.5s6 -46.666 18 -63.999s26.833 -28 44.5 -32s35.167 -3.83301 52.5 0.5s32 15 44 32s18 37.833 18 62.5zM267 481.998
c24 0 42.667 -2.66797 56 -8.00098c-18.667 24 -48 45.5 -88 64.5s-74.667 29.833 -104 32.5l28 130c119.333 -8.66699 215.5 -55.667 288.5 -141s109.5 -188.666 109.5 -309.999c-0.666992 -77.333 -24.5 -139.666 -71.5 -186.999s-111.167 -71 -192.5 -71
c-83.333 0 -148.333 24.167 -195 72.5s-70 106.166 -70 173.499c0 70.667 21 129 63 175s100.667 69 176 69z" />
    <glyph glyph-name="Delta" unicode="&#x2206;" horiz-adv-x="855" 
d="M829 17v-17h-804v12l303 688h200zM428 502l-140 -343h278z" />
    <glyph glyph-name="product" unicode="&#x220f;" horiz-adv-x="696" 
d="M624 -181h-185v724h-178v-724h-189v881h552v-881z" />
    <glyph glyph-name="summation" unicode="&#x2211;" horiz-adv-x="621" 
d="M410 366l-140 -204h302v-162h-529v103l177 265l-168 245v87h514v-154h-271z" />
    <glyph glyph-name="minus" unicode="&#x2212;" horiz-adv-x="540" 
d="M60 201v152h420v-152h-420z" />
    <glyph glyph-name="uni2215" unicode="&#x2215;" horiz-adv-x="508" 
d="M365 696h162l-385 -701h-162z" />
    <glyph glyph-name="uni2219" unicode="&#x2219;" horiz-adv-x="300" 
d="M45 312c0 30 10.333 53.5 31 70.5s45.334 25.5 74.001 25.5c28 0 52.5 -8.5 73.5 -25.5s31.5 -40.5 31.5 -70.5s-10.5 -53.333 -31.5 -70s-45.5 -25 -73.5 -25c-28.667 0 -53.334 8.33301 -74.001 25s-31 40 -31 70z" />
    <glyph glyph-name="radical" unicode="&#x221a;" horiz-adv-x="635" 
d="M634 727l-240 -727h-127l-158 296l-70 -27l-38 93l219 99l115 -243l181 544z" />
    <glyph glyph-name="infinity" unicode="&#x221e;" horiz-adv-x="768" 
d="M382 225c-54.667 -54.667 -104.998 -79.999 -150.998 -75.999c-56 2 -99.5 19 -130.5 51s-46.833 70 -47.5 114c0 46 16.667 85.833 50 119.5s79 50.5 137 50.5c22 0 46.833 -7.66699 74.5 -23s50.167 -33 67.5 -53c22 22.667 46.167 41 72.5 55s50.166 21 71.499 21
c59.333 0 105.666 -16 138.999 -48s50 -72.667 50 -122c0 -44.667 -15.833 -83 -47.5 -115s-76.167 -48.667 -133.5 -50c-48 -2.66699 -98.667 22.666 -152 75.999zM532.002 271.001c22.667 0 38.667 7.66797 48 23.001s9.33301 30.666 0 45.999s-25.333 23 -48 23
c-16 0 -40.333 -15.667 -73 -47c30 -30 54.333 -45 73 -45zM236.002 271.002c18.667 0 43 14.999 73 44.999c-32.667 31.333 -57 47 -73 47c-22.667 0 -38.667 -7.66699 -48 -23s-9.33301 -30.666 0 -45.999s25.333 -23 48 -23z" />
    <glyph glyph-name="integral" unicode="&#x222b;" horiz-adv-x="520" 
d="M163 13v485.999c2.66699 50.667 17.167 93.334 43.5 128.001s58 58 95 70s76.167 15.667 117.5 11s78.333 -17.667 111 -39l-63 -137c-19.333 12 -37.833 19.833 -55.5 23.5s-33 1.16699 -46 -7.5s-19.5 -25 -19.5 -49v-486c-2 -48.667 -14.833 -90 -38.5 -124
s-52.5 -57.5 -86.5 -70.5s-71.333 -16.5 -112 -10.5s-79 21.667 -115 47l59 125c9.33301 -7.33301 19.833 -13.5 31.5 -18.5s23.5 -7.83301 35.5 -8.5s22.167 4 30.5 14s12.5 25.333 12.5 46z" />
    <glyph glyph-name="approxequal" unicode="&#x2248;" horiz-adv-x="566" 
d="M134 313l-88.001 50.998c16.667 37.333 39.667 66.333 69 87s61.333 27.334 96 20.001c10.667 -2.66699 28.167 -9 52.5 -19s44.833 -17.833 61.5 -23.5s33.834 -6.5 51.501 -2.5s30.167 15.667 37.5 35l92 -38c-22.667 -89.333 -72.667 -127.666 -150 -114.999
c-22.667 2 -58.667 11.667 -108 29c-15.333 6 -27 10 -35 12s-17.667 3.33301 -29 4s-21 -2.5 -29 -9.5s-15 -17.167 -21 -30.5zM145.999 123.998l-87.002 50.002c16 37.333 38.667 66.5 68 87.5s61.333 27.833 96 20.5c10.667 -2.66699 28.334 -9 53.001 -19
s45.334 -18 62.001 -24s33.834 -7 51.501 -3s30.167 16 37.5 36l92 -39c-11.333 -45.333 -30.333 -77.166 -57 -95.499s-58 -24.5 -94 -18.5c-24 2 -59.667 11.667 -107 29c-14.667 5.33301 -26.334 9.16602 -35.001 11.499s-18.5 3.66602 -29.5 3.99902
s-20.667 -2.83398 -29 -9.50098s-15.5 -16.667 -21.5 -30z" />
    <glyph glyph-name="notequal" unicode="&#x2260;" horiz-adv-x="582" 
d="M57 121l0.00292969 149h164c3.33301 5.33301 9 16.166 17 32.499s15 29.5 21 39.5h-202v150h286l55 97l94 -51l-28 -46h58v-150h-140c-3.33301 -6 -9.83301 -17 -19.5 -33s-16.834 -29 -21.501 -39h181v-149h-266c-6.66699 -11.333 -16.334 -28.666 -29.001 -51.999
s-21.334 -39 -26.001 -47l-92 53l27 46h-79z" />
    <glyph glyph-name="lessequal" unicode="&#x2264;" horiz-adv-x="466" 
d="M51 44v122h365v-122h-365zM50 426v8l254 216l92 -89l-143 -128l142 -126l-91 -93z" />
    <glyph glyph-name="greaterequal" unicode="&#x2265;" horiz-adv-x="466" 
d="M415 166v-122h-365v122h365zM416 434v-8l-254 -212l-91 93l142 126l-143 128l92 89z" />
    <glyph glyph-name="lozenge" unicode="&#x25ca;" horiz-adv-x="641" 
d="M613 350l-214 -351h-154l-217 351l217 352h154zM217 350l106 -183l100 182l-100 186z" />
    <glyph glyph-name="commaaccent" unicode="&#xf6c3;" horiz-adv-x="382" 
d="M267 -120c0 -32 -19.333 -85.666 -58 -160.999h-97l21 98c-35.333 6.66699 -53 28 -53 64c0 24 9.5 42.833 28.5 56.5s42.167 20.5 69.5 20.5c24.667 0 45.667 -6.83301 63 -20.5s26 -32.834 26 -57.501z" />
    <glyph glyph-name="fi" unicode="&#xfb01;" horiz-adv-x="705" 
d="M456 621c0 29.333 10.333 52.166 31 68.499s45 24.5 73 24.5s52.167 -8.16699 72.5 -24.5s30.5 -39.166 30.5 -68.499c0 -28.667 -10.333 -51.167 -31 -67.5s-44.667 -24.5 -72 -24.5c-28 0 -52.333 8.16699 -73 24.5s-31 38.833 -31 67.5zM467 0h185v486h-185v-486z
M390 562l34.998 127c-27.333 14.667 -64.333 22 -111 22c-57.333 0 -107.166 -16.833 -149.499 -50.5s-63.5 -84.167 -63.5 -151.5v-24h-84v-140h84v-345h184v345h119v140h-119v24c0 20 5.16699 35.167 15.5 45.5s23.5 15.5 39.5 15.5c20.667 0 37.334 -2.66699 50.001 -8z
" />
    <glyph glyph-name="fl" unicode="&#xfb02;" horiz-adv-x="706" 
d="M652 0h-181v696h181v-696zM425 689l-34.998 -127c-12.667 5.33301 -29.334 8 -50.001 8c-16 0 -29.167 -5.16699 -39.5 -15.5s-15.5 -25.5 -15.5 -45.5v-24h119v-140h-119v-345h-184v345h-84v140h84v24c0 67.333 21.167 117.833 63.5 151.5s92.166 50.5 149.499 50.5
c46.667 0 83.667 -7.33301 111 -22z" />
    <glyph glyph-name=".null" horiz-adv-x="0" 
 />
    <glyph glyph-name="nonmarkingreturn" horiz-adv-x="333" 
 />
    <glyph glyph-name="CR" horiz-adv-x="322" 
 />
    <glyph glyph-name="g.alt" horiz-adv-x="649" 
d="M310 356c-28.667 0 -52.334 -9.83301 -71.001 -29.5s-28 -46.167 -28 -79.5c0 -32 9.33301 -57.5 28 -76.5s42.334 -28.5 71.001 -28.5c30 0 54.5 10.167 73.5 30.5s28.5 44.833 28.5 73.5c0 33.333 -9 60 -27 80s-43 30 -75 30zM47 -38l183.001 0.000976562
c2.66699 -20 12.5 -35 29.5 -45s37.167 -15 60.5 -15c30 0 53.833 8.5 71.5 25.5s26.5 40.167 26.5 69.5v65c-33.333 -46 -88 -67 -164 -63c-72 4.66699 -127.667 29 -167 73s-59 102.333 -59 175c0 75.333 22.167 137.166 66.5 185.499s102.166 72.5 173.499 72.5
c68.667 0 117 -21.333 145 -64l9 53h173v-492c0 -81.333 -25.333 -143 -76 -185s-117 -63 -199 -63c-80.667 0 -145.667 17.5 -195 52.5s-75.333 86.833 -78 155.5z" />
    <glyph glyph-name="gcircumflex.alt" horiz-adv-x="649" 
d="M310 356c32 0 57 -10 75 -30s27 -46.667 27 -80c0 -28.667 -9.5 -53.167 -28.5 -73.5s-43.5 -30.5 -73.5 -30.5c-28.667 0 -52.334 9.5 -71.001 28.5s-28 44.5 -28 76.5c0 33.333 9.33301 59.833 28 79.5s42.334 29.5 71.001 29.5zM230 -38l-183.001 -0.000976562
c2.66699 -68.667 28.667 -120.5 78 -155.5s114.333 -52.5 195 -52.5c82 0 148.333 21 199 63s76 103.667 76 185v492h-173l-9 -53c-28 42.667 -76.333 64 -145 64c-71.333 0 -129.166 -24.167 -173.499 -72.5s-66.5 -110.166 -66.5 -185.499c0 -72.667 19.667 -131 59 -175
s95 -68.333 167 -73c76 -4 130.667 17 164 63v-65c0 -29.333 -8.83301 -52.5 -26.5 -69.5s-41.5 -25.5 -71.5 -25.5c-23.333 0 -43.5 5 -60.5 15s-26.833 25 -29.5 45zM281.999 715.999h114l152 -157v-8h-158l-51 47l-51 -47h-158v8z" />
    <glyph glyph-name="gbreve.alt" horiz-adv-x="649" 
d="M310 356c-28.667 0 -52.334 -9.83301 -71.001 -29.5s-28 -46.167 -28 -79.5c0 -32 9.33301 -57.5 28 -76.5s42.334 -28.5 71.001 -28.5c30 0 54.5 10.167 73.5 30.5s28.5 44.833 28.5 73.5c0 33.333 -9 60 -27 80s-43 30 -75 30zM47 -38l183.001 0.000976562
c2.66699 -20 12.5 -35 29.5 -45s37.167 -15 60.5 -15c30 0 53.833 8.5 71.5 25.5s26.5 40.167 26.5 69.5v65c-33.333 -46 -88 -67 -164 -63c-72 4.66699 -127.667 29 -167 73s-59 102.333 -59 175c0 75.333 22.167 137.166 66.5 185.499s102.166 72.5 173.499 72.5
c68.667 0 117 -21.333 145 -64l9 53h173v-492c0 -81.333 -25.333 -143 -76 -185s-117 -63 -199 -63c-80.667 0 -145.667 17.5 -195 52.5s-75.333 86.833 -78 155.5zM155.001 712.001l137.001 -0.000976562c0 -16 4.66699 -27 14 -33s18.666 -9 27.999 -9
c5.33301 0 10.833 0.833008 16.5 2.5s11.5 5.83398 17.5 12.501s9 15.667 9 27h136c1.33301 -50.667 -14.5 -90.834 -47.5 -120.501s-76.833 -44.5 -131.5 -44.5s-98.5 14.833 -131.5 44.5s-48.833 69.834 -47.5 120.501z" />
    <glyph glyph-name="gdotaccent.alt" horiz-adv-x="649" 
d="M227 634c0 27.333 10 48.833 30 64.5s43.667 23.5 71 23.5s51 -7.83301 71 -23.5s30 -37.167 30 -64.5c0 -26.667 -10 -47.667 -30 -63s-43.667 -23 -71 -23s-51 7.66699 -71 23s-30 36.333 -30 63zM310 356c32 0 57 -10 75 -30s27 -46.667 27 -80
c0 -28.667 -9.5 -53.167 -28.5 -73.5s-43.5 -30.5 -73.5 -30.5c-28.667 0 -52.334 9.5 -71.001 28.5s-28 44.5 -28 76.5c0 33.333 9.33301 59.833 28 79.5s42.334 29.5 71.001 29.5zM230 -38l-183.001 -0.000976562c2.66699 -68.667 28.667 -120.5 78 -155.5
s114.333 -52.5 195 -52.5c82 0 148.333 21 199 63s76 103.667 76 185v492h-173l-9 -53c-28 42.667 -76.333 64 -145 64c-71.333 0 -129.166 -24.167 -173.499 -72.5s-66.5 -110.166 -66.5 -185.499c0 -72.667 19.667 -131 59 -175s95 -68.333 167 -73
c76 -4 130.667 17 164 63v-65c0 -29.333 -8.83301 -52.5 -26.5 -69.5s-41.5 -25.5 -71.5 -25.5c-23.333 0 -43.5 5 -60.5 15s-26.833 25 -29.5 45z" />
    <glyph glyph-name="gcommaaccent.alt" horiz-adv-x="649" 
d="M310 356c32 0 57 -10 75 -30s27 -46.667 27 -80c0 -28.667 -9.5 -53.167 -28.5 -73.5s-43.5 -30.5 -73.5 -30.5c-28.667 0 -52.334 9.5 -71.001 28.5s-28 44.5 -28 76.5c0 33.333 9.33301 59.833 28 79.5s42.334 29.5 71.001 29.5zM230 -38l-183.001 -0.000976562
c2.66699 -68.667 28.667 -120.5 78 -155.5s114.333 -52.5 195 -52.5c82 0 148.333 21 199 63s76 103.667 76 185v492h-173l-9 -53c-28 42.667 -76.333 64 -145 64c-71.333 0 -129.166 -24.167 -173.499 -72.5s-66.5 -110.166 -66.5 -185.499c0 -72.667 19.667 -131 59 -175
s95 -68.333 167 -73c76 -4 130.667 17 164 63v-65c0 -29.333 -8.83301 -52.5 -26.5 -69.5s-41.5 -25.5 -71.5 -25.5c-23.333 0 -43.5 5 -60.5 15s-26.833 25 -29.5 45zM233.999 632.999c0 32 19.333 85.666 58 160.999h97l-21 -98c35.333 -6.66699 53 -28 53 -64
c0 -24 -9.5 -42.833 -28.5 -56.5s-42.167 -20.5 -69.5 -20.5c-24.667 0 -45.667 6.83301 -63 20.5s-26 32.834 -26 57.501z" />
    <glyph glyph-name="commaaccent.alt" horiz-adv-x="377" 
d="M93 578c0 32 19.333 85.666 58 160.999h97l-21 -98c35.333 -6.66699 53 -28 53 -64c0 -24 -9.5 -42.833 -28.5 -56.5s-42.167 -20.5 -69.5 -20.5c-24.667 0 -45.667 6.83301 -63 20.5s-26 32.834 -26 57.501z" />
    <glyph glyph-name="zero.tf" horiz-adv-x="720" 
d="M237 403v-117c0 -97.333 41 -146 123 -146c38 0 68.167 11.667 90.5 35s33.5 60.333 33.5 111v117c0 48.667 -11 84.667 -33 108s-51.333 35 -88 35c-84 0 -126 -47.667 -126 -143zM43 286l-0.000976562 114.999c0 52.667 8.5 99 25.5 139s40.333 72.167 70 96.5
s63.334 42.5 101.001 54.5s78.834 18 123.501 18c92 0 167.167 -26.167 225.5 -78.5s87.5 -128.833 87.5 -229.5v-114c0 -68 -14.667 -125.5 -44 -172.5s-66.833 -81 -112.5 -102s-97.5 -31.5 -155.5 -31.5c-42.667 0 -82.834 5.83301 -120.501 17.5
s-71.667 29.334 -102 53.001s-54.333 55.5 -72 95.5s-26.5 86.333 -26.5 139z" />
    <glyph glyph-name="one.tf" horiz-adv-x="720" 
d="M107 0v152h169v333l-151 -49v154l343 123v-561h171v-152h-532z" />
    <glyph glyph-name="two.tf" horiz-adv-x="720" 
d="M265 479l-192.999 -0.000976562c0.666992 76.667 28.667 134.334 84 173.001s125.333 58 210 58c86.667 0 156.667 -18.833 210 -56.5s80 -92.5 80 -164.5c0 -154.667 -97.667 -232 -293 -232c-76 0 -114 -29.667 -114 -89h402v-168h-591v163c0 166.667 101 250 303 250
c24.667 0 47.167 5.83301 67.5 17.5s30.5 30.167 30.5 55.5c0 22.667 -9.16699 39.5 -27.5 50.5s-40.833 16.5 -67.5 16.5c-62.667 0 -96.334 -24.667 -101.001 -74z" />
    <glyph glyph-name="three.tf" horiz-adv-x="720" 
d="M363 287l-126.994 0.00195312v140h118c64 0 96.667 19.333 98 58c0 18 -9 33.167 -27 45.5s-41.667 18.5 -71 18.5c-28.667 0 -52.834 -5.66699 -72.501 -17s-29.834 -28.666 -30.501 -51.999h-190c0.666992 33.333 6.83398 63.333 18.501 90s27 48.667 46 66
s41.167 31.833 66.5 43.5s51.5 20 78.5 25s54.833 7.5 83.5 7.5c36 0 70.667 -4 104 -12s64.666 -20.167 93.999 -36.5s53 -39.166 71 -68.499s27 -63.333 27 -102c0 -27.333 -8.5 -53.666 -25.5 -78.999s-39.5 -44 -67.5 -56c72.667 -26.667 109 -78 109 -154
c0 -38.667 -9.66699 -72.834 -29 -102.501s-45 -52.334 -77 -68.001s-65.333 -27.334 -100 -35.001s-70.334 -11.5 -107.001 -11.5c-29.333 0 -57.833 2.66699 -85.5 8s-54.834 14.166 -81.501 26.499s-49.834 27.666 -69.501 45.999s-35.5 41.5 -47.5 69.5
s-18 59.333 -18 94h194c0.666992 -29.333 12.167 -50.666 34.5 -63.999s50.166 -20 83.499 -20c26 0 48.667 6.16699 68 18.5s29 29.166 29 50.499c0 6.66699 -0.833008 13 -2.5 19s-5.33398 13.5 -11.001 22.5s-15.667 16.167 -30 21.5s-32.166 8 -53.499 8z" />
    <glyph glyph-name="four.tf" horiz-adv-x="720" 
d="M406 700h183v-423h75v-156h-75v-121h-186v121h-357l-13 164zM237 277h166v183z" />
    <glyph glyph-name="five.tf" horiz-adv-x="720" 
d="M608 700v-161.001h-337v-84h94c42 0 79.167 -3.33301 111.5 -10s62.833 -18 91.5 -34s50.667 -39.833 66 -71.5s23 -70.167 23 -115.5c0 -41.333 -8.66699 -77.5 -26 -108.5s-40.333 -55.333 -69 -73s-59.334 -30.667 -92.001 -39s-66.334 -12.5 -101.001 -12.5
c-90 0 -161.167 19.167 -213.5 57.5s-78.833 99.5 -79.5 183.5h193c0 -27.333 10 -47.833 30 -61.5s42.667 -20.5 68 -20.5c8.66699 0 17.834 1 27.501 3s20.167 5.5 31.5 10.5s20.5 12.667 27.5 23s10.5 22.833 10.5 37.5c0 16 -3.16699 29.5 -9.5 40.5
s-15.166 18.833 -26.499 23.5s-21.833 7.83398 -31.5 9.50098s-20.167 2.5 -31.5 2.5h-277v400h520z" />
    <glyph glyph-name="six.tf" horiz-adv-x="720" 
d="M658 499l-189.003 -0.00195312c-2 20 -12.667 35.167 -32 45.5s-43.666 15.5 -72.999 15.5s-55 -7.66699 -77 -23s-33 -35.666 -33 -60.999v-66c42.667 32 96.667 48 162 48c76.667 0 138.834 -19.833 186.501 -59.5s71.5 -95.5 71.5 -167.5
c0 -41.333 -8.5 -78 -25.5 -110s-40.167 -57.167 -69.5 -75.5s-61.666 -32.166 -96.999 -41.499s-73 -14 -113 -14c-53.333 0 -102.5 7.83301 -147.5 23.5s-83.167 42.5 -114.5 80.5s-47 84.333 -47 139v243c0 52.667 14.833 97.5 44.5 134.5s66.667 63.5 111 79.5
s93.5 24 147.5 24c41.333 0 79 -3.66699 113 -11s65 -19 93 -35s49.833 -38.333 65.5 -67s23.5 -62.667 23.5 -102zM368.997 151.998c31.333 0 57.168 7.16797 77.501 21.501s30.5 33.5 30.5 57.5c0 26.667 -9.66699 47.5 -29 62.5s-45.333 22.5 -78 22.5
c-36.667 0 -64.834 -7.83301 -84.501 -23.5s-29.5 -35.834 -29.5 -60.501c0 -22 10 -40.833 30 -56.5s47.667 -23.5 83 -23.5z" />
    <glyph glyph-name="seven.tf" horiz-adv-x="720" 
d="M346 0h-212l271 537h-315v163h556l5 -89z" />
    <glyph glyph-name="eight.tf" horiz-adv-x="720" 
d="M360 292c-34.667 0 -62.333 -6.50098 -83 -19.501s-31 -31.167 -31 -54.5s10.833 -41.5 32.5 -54.5s48.5 -19.5 80.5 -19.5c31.333 0 57.833 6.33301 79.5 19s32.167 30.667 31.5 54c0 22.667 -9.66699 40.834 -29 54.501s-46.333 20.5 -81 20.5zM41.001 217.999
c0.666992 23.333 8.83398 49.334 24.501 78.001s38.5 51 68.5 67c-46.667 33.333 -70.667 79.666 -72 138.999c0 68.667 26.833 121.334 80.5 158.001s123.167 55 208.5 55c87.333 0 160.5 -18.5 219.5 -55.5s88.5 -88.833 88.5 -155.5
c0.666992 -27.333 -5.5 -52.833 -18.5 -76.5s-31.5 -42.834 -55.5 -57.501c32.667 -18 56 -41.333 70 -70s21.333 -56 22 -82c1.33301 -80.667 -26.834 -139.667 -84.501 -177s-135.5 -56 -233.5 -56c-63.333 0 -118.166 7.16699 -164.499 21.5s-83.833 39.333 -112.5 75
s-42.334 81.167 -41.001 136.5zM355.001 422c24.667 0 45.3359 4.83301 62.0029 14.5s27 21.5 31 35.5s4.16699 28.167 0.5 42.5s-13.834 26.333 -30.501 36s-37.334 14.5 -62.001 14.5s-45.334 -4.83301 -62.001 -14.5s-27 -21.5 -31 -35.5s-4 -28.167 0 -42.5
s14.333 -26.333 31 -36s37 -14.5 61 -14.5z" />
    <glyph glyph-name="nine.tf" horiz-adv-x="720" 
d="M55 203l189.004 0.00195312c2 -20 12.667 -35.167 32 -45.5s43.666 -15.5 72.999 -15.5c30.667 0 57.834 8 81.501 24s35.5 38 35.5 66v60c-40 -32 -94 -48 -162 -48c-76.667 0 -138.834 19.833 -186.501 59.5s-71.5 95.5 -71.5 167.5c0 41.333 8.5 78 25.5 110
s40.167 57.167 69.5 75.5s61.666 32.166 96.999 41.499s73 14 113 14c53.333 0 102.5 -7.83301 147.5 -23.5s83.167 -42.5 114.5 -80.5s47 -84.333 47 -139v-236c0 -42 -8.66699 -79.333 -26 -112s-41 -58.334 -71 -77.001s-62.833 -32.667 -98.5 -42s-73.5 -14 -113.5 -14
c-32.667 0 -63.167 2.16699 -91.5 6.5s-55.333 11.833 -81 22.5s-47.334 24 -65.001 40s-31.834 36.5 -42.501 61.5s-16 53.167 -16 84.5zM351.004 550.002c-31.333 0 -57.168 -7.16797 -77.501 -21.501s-30.5 -33.5 -30.5 -57.5c0 -26.667 9.66699 -47.5 29 -62.5
s45.333 -22.5 78 -22.5c36.667 0 64.834 7.83301 84.501 23.5s29.5 35.834 29.5 60.501c0 22 -10 40.833 -30 56.5s-47.667 23.5 -83 23.5z" />
    </font>
</defs>
</svg>
